G04 #@! TF.GenerationSoftware,KiCad,Pcbnew,(5.1.5-0-10_14)*
G04 #@! TF.CreationDate,2020-04-06T11:58:05+02:00*
G04 #@! TF.ProjectId,MSX USB Drive,4d535820-5553-4422-9044-726976652e6b,rev?*
G04 #@! TF.SameCoordinates,Original*
G04 #@! TF.FileFunction,Paste,Bot*
G04 #@! TF.FilePolarity,Positive*
%FSLAX46Y46*%
G04 Gerber Fmt 4.6, Leading zero omitted, Abs format (unit mm)*
G04 Created by KiCad (PCBNEW (5.1.5-0-10_14)) date 2020-04-06 11:58:05*
%MOMM*%
%LPD*%
G04 APERTURE LIST*
%ADD10C,0.100000*%
G04 APERTURE END LIST*
D10*
G36*
X644729505Y702754796D02*
G01*
X644753773Y702751196D01*
X644777572Y702745235D01*
X644800671Y702736970D01*
X644822850Y702726480D01*
X644843893Y702713868D01*
X644863599Y702699253D01*
X644881777Y702682777D01*
X644898253Y702664599D01*
X644912868Y702644893D01*
X644925480Y702623850D01*
X644935970Y702601671D01*
X644944235Y702578572D01*
X644950196Y702554773D01*
X644953796Y702530505D01*
X644955000Y702506001D01*
X644955000Y701605999D01*
X644953796Y701581495D01*
X644950196Y701557227D01*
X644944235Y701533428D01*
X644935970Y701510329D01*
X644925480Y701488150D01*
X644912868Y701467107D01*
X644898253Y701447401D01*
X644881777Y701429223D01*
X644863599Y701412747D01*
X644843893Y701398132D01*
X644822850Y701385520D01*
X644800671Y701375030D01*
X644777572Y701366765D01*
X644753773Y701360804D01*
X644729505Y701357204D01*
X644705001Y701356000D01*
X644054999Y701356000D01*
X644030495Y701357204D01*
X644006227Y701360804D01*
X643982428Y701366765D01*
X643959329Y701375030D01*
X643937150Y701385520D01*
X643916107Y701398132D01*
X643896401Y701412747D01*
X643878223Y701429223D01*
X643861747Y701447401D01*
X643847132Y701467107D01*
X643834520Y701488150D01*
X643824030Y701510329D01*
X643815765Y701533428D01*
X643809804Y701557227D01*
X643806204Y701581495D01*
X643805000Y701605999D01*
X643805000Y702506001D01*
X643806204Y702530505D01*
X643809804Y702554773D01*
X643815765Y702578572D01*
X643824030Y702601671D01*
X643834520Y702623850D01*
X643847132Y702644893D01*
X643861747Y702664599D01*
X643878223Y702682777D01*
X643896401Y702699253D01*
X643916107Y702713868D01*
X643937150Y702726480D01*
X643959329Y702736970D01*
X643982428Y702745235D01*
X644006227Y702751196D01*
X644030495Y702754796D01*
X644054999Y702756000D01*
X644705001Y702756000D01*
X644729505Y702754796D01*
G37*
G36*
X646779505Y702754796D02*
G01*
X646803773Y702751196D01*
X646827572Y702745235D01*
X646850671Y702736970D01*
X646872850Y702726480D01*
X646893893Y702713868D01*
X646913599Y702699253D01*
X646931777Y702682777D01*
X646948253Y702664599D01*
X646962868Y702644893D01*
X646975480Y702623850D01*
X646985970Y702601671D01*
X646994235Y702578572D01*
X647000196Y702554773D01*
X647003796Y702530505D01*
X647005000Y702506001D01*
X647005000Y701605999D01*
X647003796Y701581495D01*
X647000196Y701557227D01*
X646994235Y701533428D01*
X646985970Y701510329D01*
X646975480Y701488150D01*
X646962868Y701467107D01*
X646948253Y701447401D01*
X646931777Y701429223D01*
X646913599Y701412747D01*
X646893893Y701398132D01*
X646872850Y701385520D01*
X646850671Y701375030D01*
X646827572Y701366765D01*
X646803773Y701360804D01*
X646779505Y701357204D01*
X646755001Y701356000D01*
X646104999Y701356000D01*
X646080495Y701357204D01*
X646056227Y701360804D01*
X646032428Y701366765D01*
X646009329Y701375030D01*
X645987150Y701385520D01*
X645966107Y701398132D01*
X645946401Y701412747D01*
X645928223Y701429223D01*
X645911747Y701447401D01*
X645897132Y701467107D01*
X645884520Y701488150D01*
X645874030Y701510329D01*
X645865765Y701533428D01*
X645859804Y701557227D01*
X645856204Y701581495D01*
X645855000Y701605999D01*
X645855000Y702506001D01*
X645856204Y702530505D01*
X645859804Y702554773D01*
X645865765Y702578572D01*
X645874030Y702601671D01*
X645884520Y702623850D01*
X645897132Y702644893D01*
X645911747Y702664599D01*
X645928223Y702682777D01*
X645946401Y702699253D01*
X645966107Y702713868D01*
X645987150Y702726480D01*
X646009329Y702736970D01*
X646032428Y702745235D01*
X646056227Y702751196D01*
X646080495Y702754796D01*
X646104999Y702756000D01*
X646755001Y702756000D01*
X646779505Y702754796D01*
G37*
G36*
X646289505Y695134796D02*
G01*
X646313773Y695131196D01*
X646337572Y695125235D01*
X646360671Y695116970D01*
X646382850Y695106480D01*
X646403893Y695093868D01*
X646423599Y695079253D01*
X646441777Y695062777D01*
X646458253Y695044599D01*
X646472868Y695024893D01*
X646485480Y695003850D01*
X646495970Y694981671D01*
X646504235Y694958572D01*
X646510196Y694934773D01*
X646513796Y694910505D01*
X646515000Y694886001D01*
X646515000Y693985999D01*
X646513796Y693961495D01*
X646510196Y693937227D01*
X646504235Y693913428D01*
X646495970Y693890329D01*
X646485480Y693868150D01*
X646472868Y693847107D01*
X646458253Y693827401D01*
X646441777Y693809223D01*
X646423599Y693792747D01*
X646403893Y693778132D01*
X646382850Y693765520D01*
X646360671Y693755030D01*
X646337572Y693746765D01*
X646313773Y693740804D01*
X646289505Y693737204D01*
X646265001Y693736000D01*
X645614999Y693736000D01*
X645590495Y693737204D01*
X645566227Y693740804D01*
X645542428Y693746765D01*
X645519329Y693755030D01*
X645497150Y693765520D01*
X645476107Y693778132D01*
X645456401Y693792747D01*
X645438223Y693809223D01*
X645421747Y693827401D01*
X645407132Y693847107D01*
X645394520Y693868150D01*
X645384030Y693890329D01*
X645375765Y693913428D01*
X645369804Y693937227D01*
X645366204Y693961495D01*
X645365000Y693985999D01*
X645365000Y694886001D01*
X645366204Y694910505D01*
X645369804Y694934773D01*
X645375765Y694958572D01*
X645384030Y694981671D01*
X645394520Y695003850D01*
X645407132Y695024893D01*
X645421747Y695044599D01*
X645438223Y695062777D01*
X645456401Y695079253D01*
X645476107Y695093868D01*
X645497150Y695106480D01*
X645519329Y695116970D01*
X645542428Y695125235D01*
X645566227Y695131196D01*
X645590495Y695134796D01*
X645614999Y695136000D01*
X646265001Y695136000D01*
X646289505Y695134796D01*
G37*
G36*
X644239505Y695134796D02*
G01*
X644263773Y695131196D01*
X644287572Y695125235D01*
X644310671Y695116970D01*
X644332850Y695106480D01*
X644353893Y695093868D01*
X644373599Y695079253D01*
X644391777Y695062777D01*
X644408253Y695044599D01*
X644422868Y695024893D01*
X644435480Y695003850D01*
X644445970Y694981671D01*
X644454235Y694958572D01*
X644460196Y694934773D01*
X644463796Y694910505D01*
X644465000Y694886001D01*
X644465000Y693985999D01*
X644463796Y693961495D01*
X644460196Y693937227D01*
X644454235Y693913428D01*
X644445970Y693890329D01*
X644435480Y693868150D01*
X644422868Y693847107D01*
X644408253Y693827401D01*
X644391777Y693809223D01*
X644373599Y693792747D01*
X644353893Y693778132D01*
X644332850Y693765520D01*
X644310671Y693755030D01*
X644287572Y693746765D01*
X644263773Y693740804D01*
X644239505Y693737204D01*
X644215001Y693736000D01*
X643564999Y693736000D01*
X643540495Y693737204D01*
X643516227Y693740804D01*
X643492428Y693746765D01*
X643469329Y693755030D01*
X643447150Y693765520D01*
X643426107Y693778132D01*
X643406401Y693792747D01*
X643388223Y693809223D01*
X643371747Y693827401D01*
X643357132Y693847107D01*
X643344520Y693868150D01*
X643334030Y693890329D01*
X643325765Y693913428D01*
X643319804Y693937227D01*
X643316204Y693961495D01*
X643315000Y693985999D01*
X643315000Y694886001D01*
X643316204Y694910505D01*
X643319804Y694934773D01*
X643325765Y694958572D01*
X643334030Y694981671D01*
X643344520Y695003850D01*
X643357132Y695024893D01*
X643371747Y695044599D01*
X643388223Y695062777D01*
X643406401Y695079253D01*
X643426107Y695093868D01*
X643447150Y695106480D01*
X643469329Y695116970D01*
X643492428Y695125235D01*
X643516227Y695131196D01*
X643540495Y695134796D01*
X643564999Y695136000D01*
X644215001Y695136000D01*
X644239505Y695134796D01*
G37*
G36*
X673574505Y705940796D02*
G01*
X673598773Y705937196D01*
X673622572Y705931235D01*
X673645671Y705922970D01*
X673667850Y705912480D01*
X673688893Y705899868D01*
X673708599Y705885253D01*
X673726777Y705868777D01*
X673743253Y705850599D01*
X673757868Y705830893D01*
X673770480Y705809850D01*
X673780970Y705787671D01*
X673789235Y705764572D01*
X673795196Y705740773D01*
X673798796Y705716505D01*
X673800000Y705692001D01*
X673800000Y705041999D01*
X673798796Y705017495D01*
X673795196Y704993227D01*
X673789235Y704969428D01*
X673780970Y704946329D01*
X673770480Y704924150D01*
X673757868Y704903107D01*
X673743253Y704883401D01*
X673726777Y704865223D01*
X673708599Y704848747D01*
X673688893Y704834132D01*
X673667850Y704821520D01*
X673645671Y704811030D01*
X673622572Y704802765D01*
X673598773Y704796804D01*
X673574505Y704793204D01*
X673550001Y704792000D01*
X672649999Y704792000D01*
X672625495Y704793204D01*
X672601227Y704796804D01*
X672577428Y704802765D01*
X672554329Y704811030D01*
X672532150Y704821520D01*
X672511107Y704834132D01*
X672491401Y704848747D01*
X672473223Y704865223D01*
X672456747Y704883401D01*
X672442132Y704903107D01*
X672429520Y704924150D01*
X672419030Y704946329D01*
X672410765Y704969428D01*
X672404804Y704993227D01*
X672401204Y705017495D01*
X672400000Y705041999D01*
X672400000Y705692001D01*
X672401204Y705716505D01*
X672404804Y705740773D01*
X672410765Y705764572D01*
X672419030Y705787671D01*
X672429520Y705809850D01*
X672442132Y705830893D01*
X672456747Y705850599D01*
X672473223Y705868777D01*
X672491401Y705885253D01*
X672511107Y705899868D01*
X672532150Y705912480D01*
X672554329Y705922970D01*
X672577428Y705931235D01*
X672601227Y705937196D01*
X672625495Y705940796D01*
X672649999Y705942000D01*
X673550001Y705942000D01*
X673574505Y705940796D01*
G37*
G36*
X673574505Y703890796D02*
G01*
X673598773Y703887196D01*
X673622572Y703881235D01*
X673645671Y703872970D01*
X673667850Y703862480D01*
X673688893Y703849868D01*
X673708599Y703835253D01*
X673726777Y703818777D01*
X673743253Y703800599D01*
X673757868Y703780893D01*
X673770480Y703759850D01*
X673780970Y703737671D01*
X673789235Y703714572D01*
X673795196Y703690773D01*
X673798796Y703666505D01*
X673800000Y703642001D01*
X673800000Y702991999D01*
X673798796Y702967495D01*
X673795196Y702943227D01*
X673789235Y702919428D01*
X673780970Y702896329D01*
X673770480Y702874150D01*
X673757868Y702853107D01*
X673743253Y702833401D01*
X673726777Y702815223D01*
X673708599Y702798747D01*
X673688893Y702784132D01*
X673667850Y702771520D01*
X673645671Y702761030D01*
X673622572Y702752765D01*
X673598773Y702746804D01*
X673574505Y702743204D01*
X673550001Y702742000D01*
X672649999Y702742000D01*
X672625495Y702743204D01*
X672601227Y702746804D01*
X672577428Y702752765D01*
X672554329Y702761030D01*
X672532150Y702771520D01*
X672511107Y702784132D01*
X672491401Y702798747D01*
X672473223Y702815223D01*
X672456747Y702833401D01*
X672442132Y702853107D01*
X672429520Y702874150D01*
X672419030Y702896329D01*
X672410765Y702919428D01*
X672404804Y702943227D01*
X672401204Y702967495D01*
X672400000Y702991999D01*
X672400000Y703642001D01*
X672401204Y703666505D01*
X672404804Y703690773D01*
X672410765Y703714572D01*
X672419030Y703737671D01*
X672429520Y703759850D01*
X672442132Y703780893D01*
X672456747Y703800599D01*
X672473223Y703818777D01*
X672491401Y703835253D01*
X672511107Y703849868D01*
X672532150Y703862480D01*
X672554329Y703872970D01*
X672577428Y703881235D01*
X672601227Y703887196D01*
X672625495Y703890796D01*
X672649999Y703892000D01*
X673550001Y703892000D01*
X673574505Y703890796D01*
G37*
M02*
