G04 #@! TF.GenerationSoftware,KiCad,Pcbnew,(5.1.7-0-10_14)*
G04 #@! TF.CreationDate,2021-05-30T12:22:11+02:00*
G04 #@! TF.ProjectId,MSX USB Drive,4d535820-5553-4422-9044-726976652e6b,rev?*
G04 #@! TF.SameCoordinates,Original*
G04 #@! TF.FileFunction,Paste,Top*
G04 #@! TF.FilePolarity,Positive*
%FSLAX46Y46*%
G04 Gerber Fmt 4.6, Leading zero omitted, Abs format (unit mm)*
G04 Created by KiCad (PCBNEW (5.1.7-0-10_14)) date 2021-05-30 12:22:11*
%MOMM*%
%LPD*%
G01*
G04 APERTURE LIST*
%ADD10R,1.270000X7.620000*%
G04 APERTURE END LIST*
D10*
X617220000Y666496000D03*
X614680000Y666496000D03*
X665480000Y666496000D03*
X675640000Y666496000D03*
X668020000Y666496000D03*
X662940000Y666496000D03*
X660400000Y666496000D03*
X657860000Y666496000D03*
X670560000Y666496000D03*
X673100000Y666496000D03*
X642620000Y666496000D03*
X640080000Y666496000D03*
X637540000Y666496000D03*
X650240000Y666496000D03*
X647700000Y666496000D03*
X652780000Y666496000D03*
X645160000Y666496000D03*
X655320000Y666496000D03*
X624840000Y666496000D03*
X635000000Y666496000D03*
X632460000Y666496000D03*
X629920000Y666496000D03*
X627380000Y666496000D03*
X622300000Y667766000D03*
X619760000Y666496000D03*
G36*
G01*
X616480000Y677884000D02*
X616480000Y678984000D01*
G75*
G02*
X616730000Y679234000I250000J0D01*
G01*
X619730000Y679234000D01*
G75*
G02*
X619980000Y678984000I0J-250000D01*
G01*
X619980000Y677884000D01*
G75*
G02*
X619730000Y677634000I-250000J0D01*
G01*
X616730000Y677634000D01*
G75*
G02*
X616480000Y677884000I0J250000D01*
G01*
G37*
G36*
G01*
X622080000Y677884000D02*
X622080000Y678984000D01*
G75*
G02*
X622330000Y679234000I250000J0D01*
G01*
X625330000Y679234000D01*
G75*
G02*
X625580000Y678984000I0J-250000D01*
G01*
X625580000Y677884000D01*
G75*
G02*
X625330000Y677634000I-250000J0D01*
G01*
X622330000Y677634000D01*
G75*
G02*
X622080000Y677884000I0J250000D01*
G01*
G37*
M02*
