G04 #@! TF.GenerationSoftware,KiCad,Pcbnew,(5.1.7-0-10_14)*
G04 #@! TF.CreationDate,2021-05-30T12:22:11+02:00*
G04 #@! TF.ProjectId,MSX USB Drive,4d535820-5553-4422-9044-726976652e6b,rev?*
G04 #@! TF.SameCoordinates,Original*
G04 #@! TF.FileFunction,Soldermask,Top*
G04 #@! TF.FilePolarity,Negative*
%FSLAX46Y46*%
G04 Gerber Fmt 4.6, Leading zero omitted, Abs format (unit mm)*
G04 Created by KiCad (PCBNEW (5.1.7-0-10_14)) date 2021-05-30 12:22:11*
%MOMM*%
%LPD*%
G01*
G04 APERTURE LIST*
%ADD10O,1.802000X1.802000*%
%ADD11O,1.702000X1.702000*%
%ADD12C,1.499000*%
G04 APERTURE END LIST*
G36*
G01*
X616534000Y662686000D02*
X616534000Y670306000D01*
G75*
G02*
X616585000Y670357000I51000J0D01*
G01*
X617855000Y670357000D01*
G75*
G02*
X617906000Y670306000I0J-51000D01*
G01*
X617906000Y662686000D01*
G75*
G02*
X617855000Y662635000I-51000J0D01*
G01*
X616585000Y662635000D01*
G75*
G02*
X616534000Y662686000I0J51000D01*
G01*
G37*
G36*
G01*
X613994000Y662686000D02*
X613994000Y670306000D01*
G75*
G02*
X614045000Y670357000I51000J0D01*
G01*
X615315000Y670357000D01*
G75*
G02*
X615366000Y670306000I0J-51000D01*
G01*
X615366000Y662686000D01*
G75*
G02*
X615315000Y662635000I-51000J0D01*
G01*
X614045000Y662635000D01*
G75*
G02*
X613994000Y662686000I0J51000D01*
G01*
G37*
G36*
G01*
X664794000Y662686000D02*
X664794000Y670306000D01*
G75*
G02*
X664845000Y670357000I51000J0D01*
G01*
X666115000Y670357000D01*
G75*
G02*
X666166000Y670306000I0J-51000D01*
G01*
X666166000Y662686000D01*
G75*
G02*
X666115000Y662635000I-51000J0D01*
G01*
X664845000Y662635000D01*
G75*
G02*
X664794000Y662686000I0J51000D01*
G01*
G37*
G36*
G01*
X674954000Y662686000D02*
X674954000Y670306000D01*
G75*
G02*
X675005000Y670357000I51000J0D01*
G01*
X676275000Y670357000D01*
G75*
G02*
X676326000Y670306000I0J-51000D01*
G01*
X676326000Y662686000D01*
G75*
G02*
X676275000Y662635000I-51000J0D01*
G01*
X675005000Y662635000D01*
G75*
G02*
X674954000Y662686000I0J51000D01*
G01*
G37*
G36*
G01*
X667334000Y662686000D02*
X667334000Y670306000D01*
G75*
G02*
X667385000Y670357000I51000J0D01*
G01*
X668655000Y670357000D01*
G75*
G02*
X668706000Y670306000I0J-51000D01*
G01*
X668706000Y662686000D01*
G75*
G02*
X668655000Y662635000I-51000J0D01*
G01*
X667385000Y662635000D01*
G75*
G02*
X667334000Y662686000I0J51000D01*
G01*
G37*
G36*
G01*
X662254000Y662686000D02*
X662254000Y670306000D01*
G75*
G02*
X662305000Y670357000I51000J0D01*
G01*
X663575000Y670357000D01*
G75*
G02*
X663626000Y670306000I0J-51000D01*
G01*
X663626000Y662686000D01*
G75*
G02*
X663575000Y662635000I-51000J0D01*
G01*
X662305000Y662635000D01*
G75*
G02*
X662254000Y662686000I0J51000D01*
G01*
G37*
G36*
G01*
X659714000Y662686000D02*
X659714000Y670306000D01*
G75*
G02*
X659765000Y670357000I51000J0D01*
G01*
X661035000Y670357000D01*
G75*
G02*
X661086000Y670306000I0J-51000D01*
G01*
X661086000Y662686000D01*
G75*
G02*
X661035000Y662635000I-51000J0D01*
G01*
X659765000Y662635000D01*
G75*
G02*
X659714000Y662686000I0J51000D01*
G01*
G37*
G36*
G01*
X657174000Y662686000D02*
X657174000Y670306000D01*
G75*
G02*
X657225000Y670357000I51000J0D01*
G01*
X658495000Y670357000D01*
G75*
G02*
X658546000Y670306000I0J-51000D01*
G01*
X658546000Y662686000D01*
G75*
G02*
X658495000Y662635000I-51000J0D01*
G01*
X657225000Y662635000D01*
G75*
G02*
X657174000Y662686000I0J51000D01*
G01*
G37*
G36*
G01*
X669874000Y662686000D02*
X669874000Y670306000D01*
G75*
G02*
X669925000Y670357000I51000J0D01*
G01*
X671195000Y670357000D01*
G75*
G02*
X671246000Y670306000I0J-51000D01*
G01*
X671246000Y662686000D01*
G75*
G02*
X671195000Y662635000I-51000J0D01*
G01*
X669925000Y662635000D01*
G75*
G02*
X669874000Y662686000I0J51000D01*
G01*
G37*
G36*
G01*
X672414000Y662686000D02*
X672414000Y670306000D01*
G75*
G02*
X672465000Y670357000I51000J0D01*
G01*
X673735000Y670357000D01*
G75*
G02*
X673786000Y670306000I0J-51000D01*
G01*
X673786000Y662686000D01*
G75*
G02*
X673735000Y662635000I-51000J0D01*
G01*
X672465000Y662635000D01*
G75*
G02*
X672414000Y662686000I0J51000D01*
G01*
G37*
G36*
G01*
X641934000Y662686000D02*
X641934000Y670306000D01*
G75*
G02*
X641985000Y670357000I51000J0D01*
G01*
X643255000Y670357000D01*
G75*
G02*
X643306000Y670306000I0J-51000D01*
G01*
X643306000Y662686000D01*
G75*
G02*
X643255000Y662635000I-51000J0D01*
G01*
X641985000Y662635000D01*
G75*
G02*
X641934000Y662686000I0J51000D01*
G01*
G37*
G36*
G01*
X639394000Y662686000D02*
X639394000Y670306000D01*
G75*
G02*
X639445000Y670357000I51000J0D01*
G01*
X640715000Y670357000D01*
G75*
G02*
X640766000Y670306000I0J-51000D01*
G01*
X640766000Y662686000D01*
G75*
G02*
X640715000Y662635000I-51000J0D01*
G01*
X639445000Y662635000D01*
G75*
G02*
X639394000Y662686000I0J51000D01*
G01*
G37*
G36*
G01*
X636854000Y662686000D02*
X636854000Y670306000D01*
G75*
G02*
X636905000Y670357000I51000J0D01*
G01*
X638175000Y670357000D01*
G75*
G02*
X638226000Y670306000I0J-51000D01*
G01*
X638226000Y662686000D01*
G75*
G02*
X638175000Y662635000I-51000J0D01*
G01*
X636905000Y662635000D01*
G75*
G02*
X636854000Y662686000I0J51000D01*
G01*
G37*
G36*
G01*
X649554000Y662686000D02*
X649554000Y670306000D01*
G75*
G02*
X649605000Y670357000I51000J0D01*
G01*
X650875000Y670357000D01*
G75*
G02*
X650926000Y670306000I0J-51000D01*
G01*
X650926000Y662686000D01*
G75*
G02*
X650875000Y662635000I-51000J0D01*
G01*
X649605000Y662635000D01*
G75*
G02*
X649554000Y662686000I0J51000D01*
G01*
G37*
G36*
G01*
X647014000Y662686000D02*
X647014000Y670306000D01*
G75*
G02*
X647065000Y670357000I51000J0D01*
G01*
X648335000Y670357000D01*
G75*
G02*
X648386000Y670306000I0J-51000D01*
G01*
X648386000Y662686000D01*
G75*
G02*
X648335000Y662635000I-51000J0D01*
G01*
X647065000Y662635000D01*
G75*
G02*
X647014000Y662686000I0J51000D01*
G01*
G37*
G36*
G01*
X652094000Y662686000D02*
X652094000Y670306000D01*
G75*
G02*
X652145000Y670357000I51000J0D01*
G01*
X653415000Y670357000D01*
G75*
G02*
X653466000Y670306000I0J-51000D01*
G01*
X653466000Y662686000D01*
G75*
G02*
X653415000Y662635000I-51000J0D01*
G01*
X652145000Y662635000D01*
G75*
G02*
X652094000Y662686000I0J51000D01*
G01*
G37*
G36*
G01*
X644474000Y662686000D02*
X644474000Y670306000D01*
G75*
G02*
X644525000Y670357000I51000J0D01*
G01*
X645795000Y670357000D01*
G75*
G02*
X645846000Y670306000I0J-51000D01*
G01*
X645846000Y662686000D01*
G75*
G02*
X645795000Y662635000I-51000J0D01*
G01*
X644525000Y662635000D01*
G75*
G02*
X644474000Y662686000I0J51000D01*
G01*
G37*
G36*
G01*
X654634000Y662686000D02*
X654634000Y670306000D01*
G75*
G02*
X654685000Y670357000I51000J0D01*
G01*
X655955000Y670357000D01*
G75*
G02*
X656006000Y670306000I0J-51000D01*
G01*
X656006000Y662686000D01*
G75*
G02*
X655955000Y662635000I-51000J0D01*
G01*
X654685000Y662635000D01*
G75*
G02*
X654634000Y662686000I0J51000D01*
G01*
G37*
G36*
G01*
X624154000Y662686000D02*
X624154000Y670306000D01*
G75*
G02*
X624205000Y670357000I51000J0D01*
G01*
X625475000Y670357000D01*
G75*
G02*
X625526000Y670306000I0J-51000D01*
G01*
X625526000Y662686000D01*
G75*
G02*
X625475000Y662635000I-51000J0D01*
G01*
X624205000Y662635000D01*
G75*
G02*
X624154000Y662686000I0J51000D01*
G01*
G37*
G36*
G01*
X634314000Y662686000D02*
X634314000Y670306000D01*
G75*
G02*
X634365000Y670357000I51000J0D01*
G01*
X635635000Y670357000D01*
G75*
G02*
X635686000Y670306000I0J-51000D01*
G01*
X635686000Y662686000D01*
G75*
G02*
X635635000Y662635000I-51000J0D01*
G01*
X634365000Y662635000D01*
G75*
G02*
X634314000Y662686000I0J51000D01*
G01*
G37*
G36*
G01*
X631774000Y662686000D02*
X631774000Y670306000D01*
G75*
G02*
X631825000Y670357000I51000J0D01*
G01*
X633095000Y670357000D01*
G75*
G02*
X633146000Y670306000I0J-51000D01*
G01*
X633146000Y662686000D01*
G75*
G02*
X633095000Y662635000I-51000J0D01*
G01*
X631825000Y662635000D01*
G75*
G02*
X631774000Y662686000I0J51000D01*
G01*
G37*
G36*
G01*
X629234000Y662686000D02*
X629234000Y670306000D01*
G75*
G02*
X629285000Y670357000I51000J0D01*
G01*
X630555000Y670357000D01*
G75*
G02*
X630606000Y670306000I0J-51000D01*
G01*
X630606000Y662686000D01*
G75*
G02*
X630555000Y662635000I-51000J0D01*
G01*
X629285000Y662635000D01*
G75*
G02*
X629234000Y662686000I0J51000D01*
G01*
G37*
G36*
G01*
X626694000Y662686000D02*
X626694000Y670306000D01*
G75*
G02*
X626745000Y670357000I51000J0D01*
G01*
X628015000Y670357000D01*
G75*
G02*
X628066000Y670306000I0J-51000D01*
G01*
X628066000Y662686000D01*
G75*
G02*
X628015000Y662635000I-51000J0D01*
G01*
X626745000Y662635000D01*
G75*
G02*
X626694000Y662686000I0J51000D01*
G01*
G37*
G36*
G01*
X621614000Y663956000D02*
X621614000Y671576000D01*
G75*
G02*
X621665000Y671627000I51000J0D01*
G01*
X622935000Y671627000D01*
G75*
G02*
X622986000Y671576000I0J-51000D01*
G01*
X622986000Y663956000D01*
G75*
G02*
X622935000Y663905000I-51000J0D01*
G01*
X621665000Y663905000D01*
G75*
G02*
X621614000Y663956000I0J51000D01*
G01*
G37*
G36*
G01*
X619074000Y662686000D02*
X619074000Y670306000D01*
G75*
G02*
X619125000Y670357000I51000J0D01*
G01*
X620395000Y670357000D01*
G75*
G02*
X620446000Y670306000I0J-51000D01*
G01*
X620446000Y662686000D01*
G75*
G02*
X620395000Y662635000I-51000J0D01*
G01*
X619125000Y662635000D01*
G75*
G02*
X619074000Y662686000I0J51000D01*
G01*
G37*
G36*
G01*
X624420000Y686423000D02*
X622720000Y686423000D01*
G75*
G02*
X622669000Y686474000I0J51000D01*
G01*
X622669000Y688174000D01*
G75*
G02*
X622720000Y688225000I51000J0D01*
G01*
X624420000Y688225000D01*
G75*
G02*
X624471000Y688174000I0J-51000D01*
G01*
X624471000Y686474000D01*
G75*
G02*
X624420000Y686423000I-51000J0D01*
G01*
G37*
D10*
X623570000Y689864000D03*
X621030000Y687324000D03*
X621030000Y689864000D03*
X618490000Y687324000D03*
X618490000Y689864000D03*
X615950000Y687324000D03*
X615950000Y689864000D03*
X613410000Y687324000D03*
X613410000Y689864000D03*
X610870000Y687324000D03*
X610870000Y689864000D03*
X608330000Y687324000D03*
X608330000Y689864000D03*
X605790000Y687324000D03*
X605790000Y689864000D03*
G36*
G01*
X664629000Y720306000D02*
X664629000Y721906000D01*
G75*
G02*
X664680000Y721957000I51000J0D01*
G01*
X666280000Y721957000D01*
G75*
G02*
X666331000Y721906000I0J-51000D01*
G01*
X666331000Y720306000D01*
G75*
G02*
X666280000Y720255000I-51000J0D01*
G01*
X664680000Y720255000D01*
G75*
G02*
X664629000Y720306000I0J51000D01*
G01*
G37*
D11*
X680720000Y683006000D03*
X665480000Y718566000D03*
X680720000Y685546000D03*
X665480000Y716026000D03*
X680720000Y688086000D03*
X665480000Y713486000D03*
X680720000Y690626000D03*
X665480000Y710946000D03*
X680720000Y693166000D03*
X665480000Y708406000D03*
X680720000Y695706000D03*
X665480000Y705866000D03*
X680720000Y698246000D03*
X665480000Y703326000D03*
X680720000Y700786000D03*
X665480000Y700786000D03*
X680720000Y703326000D03*
X665480000Y698246000D03*
X680720000Y705866000D03*
X665480000Y695706000D03*
X680720000Y708406000D03*
X665480000Y693166000D03*
X680720000Y710946000D03*
X665480000Y690626000D03*
X680720000Y713486000D03*
X665480000Y688086000D03*
X680720000Y716026000D03*
X665480000Y685546000D03*
X680720000Y718566000D03*
X665480000Y683006000D03*
X680720000Y721106000D03*
G36*
G01*
X616429000Y677848937D02*
X616429000Y679019063D01*
G75*
G02*
X616694937Y679285000I265937J0D01*
G01*
X619765063Y679285000D01*
G75*
G02*
X620031000Y679019063I0J-265937D01*
G01*
X620031000Y677848937D01*
G75*
G02*
X619765063Y677583000I-265937J0D01*
G01*
X616694937Y677583000D01*
G75*
G02*
X616429000Y677848937I0J265937D01*
G01*
G37*
G36*
G01*
X622029000Y677848937D02*
X622029000Y679019063D01*
G75*
G02*
X622294937Y679285000I265937J0D01*
G01*
X625365063Y679285000D01*
G75*
G02*
X625631000Y679019063I0J-265937D01*
G01*
X625631000Y677848937D01*
G75*
G02*
X625365063Y677583000I-265937J0D01*
G01*
X622294937Y677583000D01*
G75*
G02*
X622029000Y677848937I0J265937D01*
G01*
G37*
G36*
G01*
X640930000Y717665000D02*
X639230000Y717665000D01*
G75*
G02*
X639179000Y717716000I0J51000D01*
G01*
X639179000Y719416000D01*
G75*
G02*
X639230000Y719467000I51000J0D01*
G01*
X640930000Y719467000D01*
G75*
G02*
X640981000Y719416000I0J-51000D01*
G01*
X640981000Y717716000D01*
G75*
G02*
X640930000Y717665000I-51000J0D01*
G01*
G37*
D10*
X640080000Y721106000D03*
X642620000Y718566000D03*
X642620000Y721106000D03*
X645160000Y718566000D03*
X645160000Y721106000D03*
X647700000Y718566000D03*
X647700000Y721106000D03*
X650240000Y718566000D03*
X650240000Y721106000D03*
D12*
X646430000Y707136000D03*
X648970000Y704596000D03*
X648970000Y707136000D03*
X651510000Y704596000D03*
X651510000Y707136000D03*
X654050000Y704596000D03*
X651510000Y702056000D03*
X654050000Y702056000D03*
X651510000Y699516000D03*
X654050000Y699516000D03*
X651510000Y696976000D03*
X654050000Y696976000D03*
X651510000Y694436000D03*
X654050000Y694436000D03*
X651510000Y691896000D03*
X654050000Y691896000D03*
X651510000Y689356000D03*
X648970000Y691896000D03*
X648970000Y689356000D03*
X646430000Y691896000D03*
X646430000Y689356000D03*
X643890000Y691896000D03*
X643890000Y689356000D03*
X641350000Y691896000D03*
X641350000Y689356000D03*
X638810000Y691896000D03*
X638810000Y689356000D03*
X636270000Y691896000D03*
X638810000Y694436000D03*
X636270000Y694436000D03*
X638810000Y696976000D03*
X636270000Y696976000D03*
X638810000Y699516000D03*
X636270000Y699516000D03*
X638810000Y702056000D03*
X636270000Y702056000D03*
X638810000Y704596000D03*
X636270000Y704596000D03*
X638810000Y707136000D03*
X641350000Y704596000D03*
X641350000Y707136000D03*
X643890000Y704596000D03*
X643890000Y707136000D03*
G36*
G01*
X645731499Y705345500D02*
X647128501Y705345500D01*
G75*
G02*
X647179500Y705294501I0J-50999D01*
G01*
X647179500Y703897499D01*
G75*
G02*
X647128501Y703846500I-50999J0D01*
G01*
X645731499Y703846500D01*
G75*
G02*
X645680500Y703897499I0J50999D01*
G01*
X645680500Y705294501D01*
G75*
G02*
X645731499Y705345500I50999J0D01*
G01*
G37*
M02*
