G04 #@! TF.GenerationSoftware,KiCad,Pcbnew,(5.1.7-0-10_14)*
G04 #@! TF.CreationDate,2021-05-30T12:22:11+02:00*
G04 #@! TF.ProjectId,MSX USB Drive,4d535820-5553-4422-9044-726976652e6b,rev?*
G04 #@! TF.SameCoordinates,Original*
G04 #@! TF.FileFunction,Copper,L1,Top*
G04 #@! TF.FilePolarity,Positive*
%FSLAX46Y46*%
G04 Gerber Fmt 4.6, Leading zero omitted, Abs format (unit mm)*
G04 Created by KiCad (PCBNEW (5.1.7-0-10_14)) date 2021-05-30 12:22:11*
%MOMM*%
%LPD*%
G01*
G04 APERTURE LIST*
G04 #@! TA.AperFunction,SMDPad,CuDef*
%ADD10R,1.270000X7.620000*%
G04 #@! TD*
G04 #@! TA.AperFunction,ComponentPad*
%ADD11R,1.700000X1.700000*%
G04 #@! TD*
G04 #@! TA.AperFunction,ComponentPad*
%ADD12O,1.700000X1.700000*%
G04 #@! TD*
G04 #@! TA.AperFunction,ComponentPad*
%ADD13R,1.600000X1.600000*%
G04 #@! TD*
G04 #@! TA.AperFunction,ComponentPad*
%ADD14O,1.600000X1.600000*%
G04 #@! TD*
G04 #@! TA.AperFunction,ComponentPad*
%ADD15C,1.397000*%
G04 #@! TD*
G04 #@! TA.AperFunction,ComponentPad*
%ADD16R,1.397000X1.397000*%
G04 #@! TD*
G04 #@! TA.AperFunction,ViaPad*
%ADD17C,1.000000*%
G04 #@! TD*
G04 #@! TA.AperFunction,ViaPad*
%ADD18C,0.800000*%
G04 #@! TD*
G04 #@! TA.AperFunction,Conductor*
%ADD19C,0.400000*%
G04 #@! TD*
G04 #@! TA.AperFunction,Conductor*
%ADD20C,0.250000*%
G04 #@! TD*
G04 APERTURE END LIST*
D10*
X617220000Y666496000D03*
X614680000Y666496000D03*
X665480000Y666496000D03*
X675640000Y666496000D03*
X668020000Y666496000D03*
X662940000Y666496000D03*
X660400000Y666496000D03*
X657860000Y666496000D03*
X670560000Y666496000D03*
X673100000Y666496000D03*
X642620000Y666496000D03*
X640080000Y666496000D03*
X637540000Y666496000D03*
X650240000Y666496000D03*
X647700000Y666496000D03*
X652780000Y666496000D03*
X645160000Y666496000D03*
X655320000Y666496000D03*
X624840000Y666496000D03*
X635000000Y666496000D03*
X632460000Y666496000D03*
X629920000Y666496000D03*
X627380000Y666496000D03*
X622300000Y667766000D03*
X619760000Y666496000D03*
D11*
X623570000Y687324000D03*
D12*
X623570000Y689864000D03*
X621030000Y687324000D03*
X621030000Y689864000D03*
X618490000Y687324000D03*
X618490000Y689864000D03*
X615950000Y687324000D03*
X615950000Y689864000D03*
X613410000Y687324000D03*
X613410000Y689864000D03*
X610870000Y687324000D03*
X610870000Y689864000D03*
X608330000Y687324000D03*
X608330000Y689864000D03*
X605790000Y687324000D03*
X605790000Y689864000D03*
D13*
X665480000Y721106000D03*
D14*
X680720000Y683006000D03*
X665480000Y718566000D03*
X680720000Y685546000D03*
X665480000Y716026000D03*
X680720000Y688086000D03*
X665480000Y713486000D03*
X680720000Y690626000D03*
X665480000Y710946000D03*
X680720000Y693166000D03*
X665480000Y708406000D03*
X680720000Y695706000D03*
X665480000Y705866000D03*
X680720000Y698246000D03*
X665480000Y703326000D03*
X680720000Y700786000D03*
X665480000Y700786000D03*
X680720000Y703326000D03*
X665480000Y698246000D03*
X680720000Y705866000D03*
X665480000Y695706000D03*
X680720000Y708406000D03*
X665480000Y693166000D03*
X680720000Y710946000D03*
X665480000Y690626000D03*
X680720000Y713486000D03*
X665480000Y688086000D03*
X680720000Y716026000D03*
X665480000Y685546000D03*
X680720000Y718566000D03*
X665480000Y683006000D03*
X680720000Y721106000D03*
G04 #@! TA.AperFunction,SMDPad,CuDef*
G36*
G01*
X616480000Y677884000D02*
X616480000Y678984000D01*
G75*
G02*
X616730000Y679234000I250000J0D01*
G01*
X619730000Y679234000D01*
G75*
G02*
X619980000Y678984000I0J-250000D01*
G01*
X619980000Y677884000D01*
G75*
G02*
X619730000Y677634000I-250000J0D01*
G01*
X616730000Y677634000D01*
G75*
G02*
X616480000Y677884000I0J250000D01*
G01*
G37*
G04 #@! TD.AperFunction*
G04 #@! TA.AperFunction,SMDPad,CuDef*
G36*
G01*
X622080000Y677884000D02*
X622080000Y678984000D01*
G75*
G02*
X622330000Y679234000I250000J0D01*
G01*
X625330000Y679234000D01*
G75*
G02*
X625580000Y678984000I0J-250000D01*
G01*
X625580000Y677884000D01*
G75*
G02*
X625330000Y677634000I-250000J0D01*
G01*
X622330000Y677634000D01*
G75*
G02*
X622080000Y677884000I0J250000D01*
G01*
G37*
G04 #@! TD.AperFunction*
D11*
X640080000Y718566000D03*
D12*
X640080000Y721106000D03*
X642620000Y718566000D03*
X642620000Y721106000D03*
X645160000Y718566000D03*
X645160000Y721106000D03*
X647700000Y718566000D03*
X647700000Y721106000D03*
X650240000Y718566000D03*
X650240000Y721106000D03*
D15*
X646430000Y707136000D03*
X648970000Y704596000D03*
X648970000Y707136000D03*
X651510000Y704596000D03*
X651510000Y707136000D03*
X654050000Y704596000D03*
X651510000Y702056000D03*
X654050000Y702056000D03*
X651510000Y699516000D03*
X654050000Y699516000D03*
X651510000Y696976000D03*
X654050000Y696976000D03*
X651510000Y694436000D03*
X654050000Y694436000D03*
X651510000Y691896000D03*
X654050000Y691896000D03*
X651510000Y689356000D03*
X648970000Y691896000D03*
X648970000Y689356000D03*
X646430000Y691896000D03*
X646430000Y689356000D03*
X643890000Y691896000D03*
X643890000Y689356000D03*
X641350000Y691896000D03*
X641350000Y689356000D03*
X638810000Y691896000D03*
X638810000Y689356000D03*
X636270000Y691896000D03*
X638810000Y694436000D03*
X636270000Y694436000D03*
X638810000Y696976000D03*
X636270000Y696976000D03*
X638810000Y699516000D03*
X636270000Y699516000D03*
X638810000Y702056000D03*
X636270000Y702056000D03*
X638810000Y704596000D03*
X636270000Y704596000D03*
X638810000Y707136000D03*
X641350000Y704596000D03*
X641350000Y707136000D03*
X643890000Y704596000D03*
X643890000Y707136000D03*
D16*
X646430000Y704596000D03*
D17*
X645668000Y698246000D03*
X643867988Y698246002D03*
X635445000Y687832000D03*
X662939998Y678434000D03*
X618744000Y674116000D03*
X666317593Y679120673D03*
X635591129Y684550129D03*
X645668000Y700024000D03*
X643636000Y700024000D03*
X662940000Y685546000D03*
X657352000Y693420000D03*
X658622000Y685546000D03*
X624586000Y673862008D03*
D18*
X644647347Y709671347D03*
X648711347Y711703347D03*
X662940000Y671829986D03*
X673104653Y672850653D03*
X685546002Y703326000D03*
X662939544Y675566012D03*
X654050000Y674116000D03*
X667512000Y676148010D03*
X656590001Y674116000D03*
X646434653Y680978653D03*
X651002000Y671830006D03*
X662221043Y682280990D03*
X650240004Y680974000D03*
X646430000Y678688000D03*
X661924000Y679196000D03*
X646684000Y671830000D03*
X643382000Y671830000D03*
X640842000Y671830000D03*
X638265010Y671830000D03*
X635762000Y683260000D03*
X634238000Y683260000D03*
X662681538Y690880000D03*
X634238000Y671830001D03*
X632715231Y686819851D03*
X639318000Y686308000D03*
X657352000Y688086000D03*
X657352000Y685546000D03*
X631698000Y678726000D03*
X634487347Y697733347D03*
X631839625Y691001695D03*
X631697996Y671830000D03*
X629666000Y692912000D03*
X629666000Y695198000D03*
X629666000Y701801998D03*
X630715217Y686816000D03*
X629195000Y678726000D03*
X633222000Y703072000D03*
X629158000Y671830004D03*
X628682121Y686817959D03*
X629730042Y703072004D03*
X626618000Y678726000D03*
X626618000Y671829998D03*
X626618002Y686816000D03*
X631666024Y701802000D03*
X628555021Y692914865D03*
X630682000Y695161010D03*
X627456503Y679970915D03*
X627634000Y686816000D03*
X630666011Y701802000D03*
X633004990Y699770000D03*
X629864390Y680472970D03*
X628977980Y708406006D03*
X629682049Y686805009D03*
X635762000Y681736000D03*
X632404390Y683012970D03*
X631715228Y686815803D03*
X639264524Y685229205D03*
X662681538Y691880013D03*
X642112000Y686308000D03*
X657352000Y689102000D03*
X656082006Y685546000D03*
X657352000Y690118006D03*
X642620000Y678688000D03*
X664718000Y676321102D03*
X647700000Y675386000D03*
X647953998Y679958000D03*
X673100000Y675386000D03*
X652780000Y675386000D03*
X654812000Y675386000D03*
X658114000Y674116000D03*
X634492000Y703942999D03*
X673100000Y674116000D03*
X660400000Y671830000D03*
X627380000Y701039998D03*
X628555021Y704088000D03*
X677672000Y696722000D03*
X643885347Y710433347D03*
X647949347Y712465347D03*
X667258000Y680212000D03*
X659384000Y680212000D03*
X670560000Y676656000D03*
X662432000Y680212000D03*
X675640000Y695706000D03*
X633004990Y705866000D03*
X640080000Y716788000D03*
X640080000Y715264000D03*
X642620000Y715264000D03*
X645160000Y715264000D03*
X650116766Y711353528D03*
X657352000Y696976002D03*
X662686000Y701548000D03*
X662686000Y704088000D03*
X657874946Y702056000D03*
X662686000Y707136000D03*
X657874946Y704596000D03*
X657860000Y671830004D03*
X647700000Y709676000D03*
X649516010Y709676000D03*
X651002000Y709676004D03*
D19*
X643867990Y698246000D02*
X643867988Y698246002D01*
X645668000Y698246000D02*
X643867990Y698246000D01*
X618230000Y674630000D02*
X618744000Y674116000D01*
X618230000Y678434000D02*
X618230000Y674630000D01*
X665630920Y678434000D02*
X666317593Y679120673D01*
X662939998Y678434000D02*
X665630920Y678434000D01*
X635445000Y687832000D02*
X635445000Y684696258D01*
X635445000Y684696258D02*
X635591129Y684550129D01*
X645668000Y700024000D02*
X643636000Y700024000D01*
X657352000Y693420000D02*
X658622000Y692150000D01*
X658622000Y686253106D02*
X658622000Y685546000D01*
X658622000Y692150000D02*
X658622000Y686253106D01*
X623830000Y678434000D02*
X623830000Y674618008D01*
X624086001Y674362007D02*
X624586000Y673862008D01*
X623830000Y674618008D02*
X624086001Y674362007D01*
X662940000Y685546000D02*
X665480000Y683006000D01*
X604012000Y687324000D02*
X604012000Y689102000D01*
X623062000Y680114956D02*
X611221044Y680114956D01*
X623824000Y679352956D02*
X623062000Y680114956D01*
X604012000Y689102000D02*
X604774000Y689864000D01*
X623824000Y678440000D02*
X623824000Y679352956D01*
X611221044Y680114956D02*
X604012000Y687324000D01*
X604774000Y689864000D02*
X605790000Y689864000D01*
X623830000Y678434000D02*
X623824000Y678440000D01*
X605790000Y689864000D02*
X608330000Y689864000D01*
D20*
X641350000Y707136000D02*
X641350000Y708914000D01*
X642107347Y709671347D02*
X644647347Y709671347D01*
X641350000Y708914000D02*
X642107347Y709671347D01*
X659238001Y675805686D02*
X659238001Y675531985D01*
X662540001Y672229985D02*
X662940000Y671829986D01*
X660596011Y677163696D02*
X659238001Y675805686D01*
X650409656Y712103346D02*
X653148990Y709364011D01*
X657753956Y709364011D02*
X659834011Y707283956D01*
X653148990Y709364011D02*
X657753956Y709364011D01*
X649111346Y712103346D02*
X650409656Y712103346D01*
X659834011Y707283956D02*
X659834011Y702442759D01*
X659834011Y702442759D02*
X660596011Y701680759D01*
X660596011Y701680759D02*
X660596011Y677163696D01*
X659238001Y675531985D02*
X662540001Y672229985D01*
X648711347Y711703347D02*
X649111346Y712103346D01*
X673104653Y672850653D02*
X685546002Y685292002D01*
X685546002Y685292002D02*
X685546002Y703326000D01*
X665280423Y675566012D02*
X663505229Y675566012D01*
X663505229Y675566012D02*
X662939544Y675566012D01*
X677926000Y705866000D02*
X671322000Y699262000D01*
X671322000Y681607589D02*
X665280423Y675566012D01*
X671322000Y699262000D02*
X671322000Y681607589D01*
X680720000Y705866000D02*
X677926000Y705866000D01*
X654050000Y674116000D02*
X656590001Y674116000D01*
X671830000Y681356410D02*
X667512000Y677038410D01*
X671830000Y698500000D02*
X671830000Y681356410D01*
X667512000Y676713695D02*
X667512000Y676148010D01*
X680720000Y703326000D02*
X676656000Y703326000D01*
X667512000Y677038410D02*
X667512000Y676713695D01*
X676656000Y703326000D02*
X671830000Y698500000D01*
X651002000Y680212004D02*
X650640003Y680574001D01*
X650640003Y680574001D02*
X650240004Y680974000D01*
X646434653Y680978653D02*
X650235351Y680978653D01*
X650235351Y680978653D02*
X650240004Y680974000D01*
X651002000Y671830006D02*
X651002000Y680212004D01*
X661956528Y708692528D02*
X661956528Y683111190D01*
X661956528Y683111190D02*
X662221043Y682846675D01*
X664210000Y710946000D02*
X661956528Y708692528D01*
X662221043Y682846675D02*
X662221043Y682280990D01*
X665480000Y710946000D02*
X664210000Y710946000D01*
X646430000Y672084000D02*
X646684000Y671830000D01*
X646430000Y678688000D02*
X646430000Y672084000D01*
X661496033Y679623967D02*
X661524001Y679595999D01*
X661496033Y690043910D02*
X661496033Y679623967D01*
X661506517Y690054394D02*
X661496033Y690043910D01*
X661506517Y710782517D02*
X661506517Y690054394D01*
X661524001Y679595999D02*
X661924000Y679196000D01*
X664210000Y713486000D02*
X661506517Y710782517D01*
X665480000Y713486000D02*
X664210000Y713486000D01*
X643382000Y672395685D02*
X643382000Y671830000D01*
X643382000Y682780172D02*
X643382000Y672395685D01*
X648970000Y688368172D02*
X643382000Y682780172D01*
X648970000Y689356000D02*
X648970000Y688368172D01*
X646430000Y689356000D02*
X646430000Y688368172D01*
X640842000Y682780172D02*
X640842000Y672395685D01*
X646430000Y688368172D02*
X640842000Y682780172D01*
X640842000Y672395685D02*
X640842000Y671830000D01*
X641350000Y689356000D02*
X641350000Y685292000D01*
X641350000Y685292000D02*
X638265010Y682207010D01*
X638265010Y682207010D02*
X638265010Y672395685D01*
X638265010Y672395685D02*
X638265010Y671830000D01*
X634238000Y683260000D02*
X634238000Y671830001D01*
X636778000Y693166000D02*
X635766609Y693166000D01*
X637540000Y695706000D02*
X637540000Y693928000D01*
X632715231Y690114622D02*
X632715231Y687385536D01*
X632715231Y687385536D02*
X632715231Y686819851D01*
X637540000Y693928000D02*
X636778000Y693166000D01*
X638810000Y696976000D02*
X637540000Y695706000D01*
X635766609Y693166000D02*
X632715231Y690114622D01*
X657352000Y688086000D02*
X657352000Y685546000D01*
X665475538Y688086000D02*
X662681538Y690880000D01*
X665480000Y688086000D02*
X665475538Y688086000D01*
X632715231Y686254166D02*
X632715231Y686819851D01*
X627805043Y681343978D02*
X632715231Y686254166D01*
X627244800Y681343978D02*
X627805043Y681343978D01*
X613676432Y681089978D02*
X626990800Y681089978D01*
X626990800Y681089978D02*
X627244800Y681343978D01*
X608330000Y686436410D02*
X613676432Y681089978D01*
X608330000Y687324000D02*
X608330000Y686436410D01*
X635762000Y683260000D02*
X636270000Y683260000D01*
X636270000Y683260000D02*
X639318000Y686308000D01*
X632460000Y691622070D02*
X632239624Y691401694D01*
X632239624Y691401694D02*
X631839625Y691001695D01*
X632460000Y695706000D02*
X632460000Y691622070D01*
X634487347Y697733347D02*
X632460000Y695706000D01*
X631698000Y678726000D02*
X631698000Y671830004D01*
X631698000Y671830004D02*
X631697996Y671830000D01*
X629666000Y692912000D02*
X629666000Y695198000D01*
X630715217Y687381685D02*
X630715217Y686816000D01*
X631839625Y691001695D02*
X630715217Y689877287D01*
X630715217Y689877287D02*
X630715217Y687381685D01*
X682898646Y724408000D02*
X637032000Y724408000D01*
X684784000Y687070000D02*
X684784000Y722522646D01*
X684784000Y722522646D02*
X682898646Y724408000D01*
X637032000Y724408000D02*
X628432999Y715808999D01*
X628432999Y715808999D02*
X628432999Y708934029D01*
X629005032Y703447050D02*
X629005032Y702462966D01*
X628252978Y705463047D02*
X629280023Y704436002D01*
X629280023Y703722041D02*
X629005032Y703447050D01*
X629266001Y702201997D02*
X629666000Y701801998D01*
X628252978Y708754008D02*
X628252978Y705463047D01*
X629005032Y702462966D02*
X629266001Y702201997D01*
X628432999Y708934029D02*
X628252978Y708754008D01*
X629280023Y704436002D02*
X629280023Y703722041D01*
X680720000Y683006000D02*
X684784000Y687070000D01*
X630715217Y686250315D02*
X630715217Y686816000D01*
X626454902Y681990000D02*
X630715217Y686250315D01*
X614049230Y681990000D02*
X626454902Y681990000D01*
X613410000Y682629230D02*
X614049230Y681990000D01*
X613410000Y687324000D02*
X613410000Y682629230D01*
X629195000Y678726000D02*
X629195000Y671867004D01*
X629195000Y671867004D02*
X629158000Y671830004D01*
X631444000Y699712315D02*
X631444000Y692980587D01*
X631444000Y692980587D02*
X628682121Y690218708D01*
X628682121Y687383644D02*
X628682121Y686817959D01*
X628682121Y690218708D02*
X628682121Y687383644D01*
X633222000Y703072000D02*
X633222000Y701490315D01*
X633222000Y701490315D02*
X631444000Y699712315D01*
X682525846Y723507978D02*
X637404798Y723507978D01*
X629730042Y704622394D02*
X629730042Y703637689D01*
X680720000Y688086000D02*
X683883978Y691249978D01*
X683883978Y691249978D02*
X683883978Y722149843D01*
X629702990Y704649446D02*
X629730042Y704622394D01*
X683883978Y722149843D02*
X682525846Y723507978D01*
X637404798Y723507978D02*
X629702990Y715806170D01*
X629730042Y703637689D02*
X629730042Y703072004D01*
X629702990Y715806170D02*
X629702990Y704649446D01*
X628682121Y686252274D02*
X628682121Y686817959D01*
X620522000Y685038000D02*
X627467847Y685038000D01*
X618490000Y687070000D02*
X620522000Y685038000D01*
X627467847Y685038000D02*
X628682121Y686252274D01*
X618490000Y687324000D02*
X618490000Y687070000D01*
X626618000Y678726000D02*
X626618000Y671829998D01*
X626052317Y686816000D02*
X626618002Y686816000D01*
X623570000Y687324000D02*
X624078000Y686816000D01*
X631666024Y716496384D02*
X631666024Y702367685D01*
X682983956Y695429956D02*
X682983956Y721777043D01*
X680720000Y693166000D02*
X682983956Y695429956D01*
X637777596Y722607956D02*
X631666024Y716496384D01*
X682983956Y721777043D02*
X682153046Y722607956D01*
X682153046Y722607956D02*
X637777596Y722607956D01*
X631666024Y702367685D02*
X631666024Y701802000D01*
X625544317Y687324000D02*
X623570000Y687324000D01*
X626052317Y686816000D02*
X625544317Y687324000D01*
X628555021Y691926611D02*
X628555021Y692349180D01*
X626618002Y689989592D02*
X628555021Y691926611D01*
X626618002Y686816000D02*
X626618002Y689989592D01*
X628555021Y692349180D02*
X628555021Y692914865D01*
X627380000Y679894412D02*
X627456503Y679970915D01*
X627380000Y666496000D02*
X627380000Y679894412D01*
X627634000Y689806998D02*
X627634000Y687381685D01*
X630682000Y695161010D02*
X630682000Y692854998D01*
X627634000Y687381685D02*
X627634000Y686816000D01*
X630682000Y692854998D02*
X627634000Y689806998D01*
X683433967Y721963443D02*
X682339446Y723057967D01*
X680720000Y690626000D02*
X683433967Y693339967D01*
X683433967Y693339967D02*
X683433967Y721963443D01*
X630666011Y702367685D02*
X630666011Y701802000D01*
X682339446Y723057967D02*
X637591197Y723057967D01*
X630666011Y716132781D02*
X630666011Y702367685D01*
X637591197Y723057967D02*
X630666011Y716132781D01*
X627634000Y686250315D02*
X627634000Y686816000D01*
X626929685Y685546000D02*
X627634000Y686250315D01*
X621538000Y685546000D02*
X626929685Y685546000D01*
X621030000Y686054000D02*
X621538000Y685546000D01*
X621030000Y687324000D02*
X621030000Y686054000D01*
X629920000Y680417360D02*
X629864390Y680472970D01*
X629920000Y666496000D02*
X629920000Y680417360D01*
X631952000Y692852176D02*
X629682049Y690582225D01*
X633004990Y699770000D02*
X631952000Y698717010D01*
X631952000Y698717010D02*
X631952000Y692852176D01*
X629682049Y690582225D02*
X629682049Y687370694D01*
X629682049Y687370694D02*
X629682049Y686805009D01*
X682712246Y723957989D02*
X637218399Y723957989D01*
X628977980Y715717570D02*
X628977980Y708971691D01*
X680720000Y685546000D02*
X684333989Y689159989D01*
X628977980Y708971691D02*
X628977980Y708406006D01*
X684333989Y722336243D02*
X682712246Y723957989D01*
X637218399Y723957989D02*
X628977980Y715717570D01*
X684333989Y689159989D02*
X684333989Y722336243D01*
X620014000Y684530000D02*
X627972725Y684530000D01*
X615950000Y686562000D02*
X616712000Y685800000D01*
X618744000Y685800000D02*
X620014000Y684530000D01*
X629682049Y686239324D02*
X629682049Y686805009D01*
X627972725Y684530000D02*
X629682049Y686239324D01*
X616712000Y685800000D02*
X618744000Y685800000D01*
X615950000Y687324000D02*
X615950000Y686562000D01*
X632460000Y682957360D02*
X632404390Y683012970D01*
X632460000Y666496000D02*
X632460000Y682957360D01*
X635532220Y695706000D02*
X632968000Y693141780D01*
X636778000Y695706000D02*
X635532220Y695706000D01*
X631715228Y689751029D02*
X631715228Y687381488D01*
X632968000Y691003801D02*
X631715228Y689751029D01*
X637540000Y696468000D02*
X636778000Y695706000D01*
X638810000Y699516000D02*
X637540000Y698246000D01*
X637540000Y698246000D02*
X637540000Y696468000D01*
X632968000Y693141780D02*
X632968000Y691003801D01*
X631715228Y687381488D02*
X631715228Y686815803D01*
X631715228Y686509168D02*
X631715228Y686815803D01*
X613862831Y681539989D02*
X626746049Y681539989D01*
X626746049Y681539989D02*
X631715228Y686509168D01*
X610870000Y684532820D02*
X613862831Y681539989D01*
X610870000Y687324000D02*
X610870000Y684532820D01*
X639255205Y685229205D02*
X639264524Y685229205D01*
X635762000Y681736000D02*
X639255205Y685229205D01*
X633730000Y687578000D02*
X633730000Y686816000D01*
X637540000Y691388000D02*
X633730000Y687578000D01*
X637540000Y693166000D02*
X637540000Y691388000D01*
X638810000Y694436000D02*
X637540000Y693166000D01*
X656082006Y688397691D02*
X656082006Y686111685D01*
X656786315Y689102000D02*
X656082006Y688397691D01*
X657352000Y689102000D02*
X656786315Y689102000D01*
X656082006Y686111685D02*
X656082006Y685546000D01*
X664225987Y691880013D02*
X662681538Y691880013D01*
X665480000Y690626000D02*
X664225987Y691880013D01*
X611966033Y680639967D02*
X605790000Y686816000D01*
X627177200Y680639967D02*
X611966033Y680639967D01*
X605790000Y686816000D02*
X605790000Y687324000D01*
X627431200Y680893967D02*
X627177200Y680639967D01*
X629260067Y680893967D02*
X627431200Y680893967D01*
X633730000Y685363900D02*
X629260067Y680893967D01*
X633730000Y686816000D02*
X633730000Y685363900D01*
X642620000Y686816000D02*
X642112000Y686308000D01*
X642620000Y693928000D02*
X642620000Y686816000D01*
X642112000Y694436000D02*
X642620000Y693928000D01*
X638810000Y694436000D02*
X642112000Y694436000D01*
X635000000Y666496000D02*
X635000000Y683920254D01*
X635000000Y683920254D02*
X633730000Y685190254D01*
X633730000Y685190254D02*
X633730000Y686816000D01*
X640651501Y691197501D02*
X641350000Y691896000D01*
X640080000Y684977953D02*
X640080000Y690626000D01*
X637540000Y682437953D02*
X640080000Y684977953D01*
X637540000Y666496000D02*
X637540000Y682437953D01*
X640080000Y690626000D02*
X640651501Y691197501D01*
X645160000Y690626000D02*
X645731501Y691197501D01*
X645160000Y688028998D02*
X645160000Y690626000D01*
X640080000Y682948998D02*
X645160000Y688028998D01*
X640080000Y666496000D02*
X640080000Y682948998D01*
X645731501Y691197501D02*
X646430000Y691896000D01*
X656952001Y690518005D02*
X657352000Y690118006D01*
X648970000Y691896000D02*
X650240000Y693166000D01*
X654304006Y693166000D02*
X656952001Y690518005D01*
X650240000Y693166000D02*
X654304006Y693166000D01*
X647700000Y690626000D02*
X648271501Y691197501D01*
X647700000Y688340000D02*
X647700000Y690626000D01*
X648271501Y691197501D02*
X648970000Y691896000D01*
X642620000Y683260000D02*
X647700000Y688340000D01*
X642620000Y666496000D02*
X642620000Y683260000D01*
X652780000Y690626000D02*
X653351501Y691197501D01*
X650748000Y690626000D02*
X652780000Y690626000D01*
X645160000Y683768000D02*
X650240000Y688848000D01*
X650240000Y690118000D02*
X650748000Y690626000D01*
X650240000Y688848000D02*
X650240000Y690118000D01*
X653351501Y691197501D02*
X654050000Y691896000D01*
X645160000Y666496000D02*
X645160000Y683768000D01*
X647700000Y675132000D02*
X647700000Y675386000D01*
X647700000Y666496000D02*
X647700000Y675132000D01*
X665117999Y676721101D02*
X664718000Y676321102D01*
X670814000Y681736000D02*
X665799101Y676721101D01*
X670814000Y705991590D02*
X670814000Y681736000D01*
X673228410Y708406000D02*
X670814000Y705991590D01*
X665799101Y676721101D02*
X665117999Y676721101D01*
X680720000Y708406000D02*
X673228410Y708406000D01*
X650240000Y676402000D02*
X647953998Y678688002D01*
X647953998Y679392315D02*
X647953998Y679958000D01*
X650240000Y666496000D02*
X650240000Y676402000D01*
X647953998Y678688002D02*
X647953998Y679392315D01*
X652780000Y666496000D02*
X652780000Y675386000D01*
X654812000Y675386000D02*
X656844000Y675386000D01*
X656844000Y675386000D02*
X657714001Y674515999D01*
X657714001Y674515999D02*
X658114000Y674116000D01*
X676656000Y697484000D02*
X676656000Y678942000D01*
X676656000Y678942000D02*
X673100000Y675386000D01*
X677418000Y698246000D02*
X676656000Y697484000D01*
X680720000Y698246000D02*
X677418000Y698246000D01*
X651510000Y688368172D02*
X651510000Y689356000D01*
X651510000Y677729004D02*
X651510000Y688368172D01*
X653505002Y674783998D02*
X653505002Y675734002D01*
X653251002Y674529998D02*
X653505002Y674783998D01*
X653505002Y675734002D02*
X651510000Y677729004D01*
X655320000Y671633002D02*
X653251002Y673702000D01*
X653251002Y673702000D02*
X653251002Y674529998D01*
X655320000Y666496000D02*
X655320000Y671633002D01*
X660400000Y671830000D02*
X660400000Y666496000D01*
X635108999Y703326000D02*
X634492000Y703942999D01*
X637549218Y703834000D02*
X637041218Y703326000D01*
X637041218Y703326000D02*
X635108999Y703326000D01*
X646108500Y705866000D02*
X638048000Y705866000D01*
X637549218Y705367218D02*
X637549218Y703834000D01*
X638048000Y705866000D02*
X637549218Y705367218D01*
X646430000Y705544500D02*
X646108500Y705866000D01*
X646430000Y704596000D02*
X646430000Y705544500D01*
X627380000Y701039998D02*
X627380000Y702912979D01*
X627380000Y702912979D02*
X628555021Y704088000D01*
X677672000Y678688000D02*
X677672000Y696722000D01*
X673100000Y674116000D02*
X677672000Y678688000D01*
X642107347Y710433347D02*
X643885347Y710433347D01*
X638810000Y707136000D02*
X642107347Y710433347D01*
X653335390Y709814022D02*
X657940356Y709814022D01*
X660284022Y702629158D02*
X661046022Y701867158D01*
X648349346Y712865346D02*
X650284066Y712865346D01*
X647949347Y712465347D02*
X648349346Y712865346D01*
X665480000Y670556000D02*
X665480000Y666496000D01*
X657940356Y709814022D02*
X660284022Y707470356D01*
X650284066Y712865346D02*
X653335390Y709814022D01*
X661046022Y674989978D02*
X665480000Y670556000D01*
X661046022Y701867158D02*
X661046022Y674989978D01*
X660284022Y707470356D02*
X660284022Y702629158D01*
X659638000Y701365948D02*
X659638000Y681031685D01*
X651510000Y704596000D02*
X652780000Y703326000D01*
X657677948Y703326000D02*
X659638000Y701365948D01*
X659638000Y681031685D02*
X659384000Y680777685D01*
X659384000Y680777685D02*
X659384000Y680212000D01*
X652780000Y703326000D02*
X657677948Y703326000D01*
X670560000Y676090315D02*
X670560000Y676656000D01*
X673100000Y666496000D02*
X673100000Y671830000D01*
X670560000Y674370000D02*
X670560000Y676090315D01*
X673100000Y671830000D02*
X670560000Y674370000D01*
X667258000Y680212000D02*
X662432000Y680212000D01*
X672479583Y694323583D02*
X673862000Y695706000D01*
X672479583Y681369583D02*
X672479583Y694323583D01*
X670560000Y679450000D02*
X672479583Y681369583D01*
X670560000Y676656000D02*
X670560000Y679450000D01*
X673862000Y695706000D02*
X675640000Y695706000D01*
X632460000Y701522974D02*
X632460000Y705321010D01*
X632460000Y705321010D02*
X632604991Y705466001D01*
X630268002Y699330976D02*
X632460000Y701522974D01*
X630268002Y697381004D02*
X630268002Y699330976D01*
X628432999Y695546001D02*
X630268002Y697381004D01*
X624586000Y688594000D02*
X627380000Y691388000D01*
X628432999Y695488999D02*
X628432999Y695546001D01*
X627380000Y691388000D02*
X627380000Y694436000D01*
X619760000Y688594000D02*
X624586000Y688594000D01*
X632604991Y705466001D02*
X633004990Y705866000D01*
X627380000Y694436000D02*
X628432999Y695488999D01*
X618490000Y689864000D02*
X619760000Y688594000D01*
D19*
X619760000Y666496000D02*
X619760000Y672846000D01*
X619760000Y672846000D02*
X622300000Y672846000D01*
X622300000Y672846000D02*
X622300000Y667766000D01*
D20*
X640479999Y714864001D02*
X640080000Y715264000D01*
X647700000Y707644000D02*
X640479999Y714864001D01*
X647700000Y698246000D02*
X647700000Y707644000D01*
X651510000Y694436000D02*
X647700000Y698246000D01*
X640080000Y718566000D02*
X640080000Y716788000D01*
X642620000Y715264000D02*
X645160000Y715264000D01*
X650241011Y703324989D02*
X650241011Y710663598D01*
X650116766Y710787843D02*
X650116766Y711353528D01*
X650241011Y710663598D02*
X650116766Y710787843D01*
X651510000Y702056000D02*
X650241011Y703324989D01*
X633730000Y717923950D02*
X633730000Y703637002D01*
X633730000Y703637002D02*
X633947001Y703420001D01*
X635642050Y719836000D02*
X633730000Y717923950D01*
X635571501Y697674499D02*
X636270000Y696976000D01*
X633947001Y703420001D02*
X633947001Y699298999D01*
X643890000Y719836000D02*
X635642050Y719836000D01*
X633947001Y699298999D02*
X635571501Y697674499D01*
X645160000Y718566000D02*
X643890000Y719836000D01*
X637576998Y716062998D02*
X647482998Y716062998D01*
X647482998Y716062998D02*
X649986000Y718566000D01*
X636270000Y714756000D02*
X637576998Y716062998D01*
X649986000Y718566000D02*
X650240000Y718566000D01*
X636270000Y704596000D02*
X636270000Y714756000D01*
X654050000Y696976000D02*
X657351998Y696976000D01*
X657351998Y696976000D02*
X657352000Y696976002D01*
X663194000Y702056000D02*
X662686000Y701548000D01*
X680212000Y716026000D02*
X666242000Y702056000D01*
X666242000Y702056000D02*
X663194000Y702056000D01*
X680720000Y716026000D02*
X680212000Y716026000D01*
X654050000Y702056000D02*
X657874946Y702056000D01*
X663194000Y704596000D02*
X662686000Y704088000D01*
X667004000Y705866000D02*
X667004000Y705104000D01*
X681990000Y716788000D02*
X681482000Y717296000D01*
X666496000Y704596000D02*
X663194000Y704596000D01*
X681990000Y714756000D02*
X681990000Y716788000D01*
X667004000Y705104000D02*
X666496000Y704596000D01*
X678434000Y717296000D02*
X667004000Y705866000D01*
X681482000Y717296000D02*
X678434000Y717296000D01*
X680720000Y713486000D02*
X681990000Y714756000D01*
X654050000Y704596000D02*
X657874946Y704596000D01*
X667512000Y708406000D02*
X666242000Y707136000D01*
X677672000Y719836000D02*
X667512000Y709676000D01*
X666242000Y707136000D02*
X662686000Y707136000D01*
X681845001Y719836000D02*
X677672000Y719836000D01*
X682498000Y711454000D02*
X682498000Y719183001D01*
X681990000Y710946000D02*
X682498000Y711454000D01*
X667512000Y709676000D02*
X667512000Y708406000D01*
X682498000Y719183001D02*
X681845001Y719836000D01*
X680720000Y710946000D02*
X681990000Y710946000D01*
X647700000Y709676000D02*
X649516010Y709676000D01*
X659384000Y707097556D02*
X657713555Y708768001D01*
X659384000Y702256358D02*
X659384000Y707097556D01*
X651910003Y708768001D02*
X651401999Y709276005D01*
X660146000Y701494358D02*
X659384000Y702256358D01*
X658839001Y672809005D02*
X658839001Y674464001D01*
X651401999Y709276005D02*
X651002000Y709676004D01*
X658839001Y674464001D02*
X658585002Y674718000D01*
X658585002Y674718000D02*
X658585002Y675914687D01*
X657860000Y671830004D02*
X658839001Y672809005D01*
X658585002Y675914687D02*
X660146000Y677475685D01*
X660146000Y677475685D02*
X660146000Y701494358D01*
X657713555Y708768001D02*
X651910003Y708768001D01*
M02*
