G04 #@! TF.GenerationSoftware,KiCad,Pcbnew,(5.1.7-0-10_14)*
G04 #@! TF.CreationDate,2021-05-30T12:22:11+02:00*
G04 #@! TF.ProjectId,MSX USB Drive,4d535820-5553-4422-9044-726976652e6b,rev?*
G04 #@! TF.SameCoordinates,Original*
G04 #@! TF.FileFunction,Legend,Top*
G04 #@! TF.FilePolarity,Positive*
%FSLAX46Y46*%
G04 Gerber Fmt 4.6, Leading zero omitted, Abs format (unit mm)*
G04 Created by KiCad (PCBNEW (5.1.7-0-10_14)) date 2021-05-30 12:22:11*
%MOMM*%
%LPD*%
G01*
G04 APERTURE LIST*
%ADD10C,0.150000*%
%ADD11C,0.120000*%
%ADD12C,0.300000*%
%ADD13C,0.100000*%
%ADD14C,0.066040*%
%ADD15C,0.381000*%
%ADD16C,0.304800*%
G04 APERTURE END LIST*
D10*
X697269688Y698087313D02*
X697269688Y698277789D01*
X697222068Y698373027D01*
X697174449Y698420646D01*
X697031592Y698515883D01*
X696841116Y698563502D01*
X696460163Y698563501D01*
X696364925Y698515882D01*
X696317306Y698468263D01*
X696269687Y698373024D01*
X696269688Y698182548D01*
X696317307Y698087310D01*
X696364926Y698039691D01*
X696460165Y697992072D01*
X696698260Y697992073D01*
X696793498Y698039692D01*
X696841117Y698087311D01*
X696888736Y698182550D01*
X696888735Y698373026D01*
X696841116Y698468264D01*
X696793497Y698515883D01*
X696698258Y698563502D01*
X697269689Y697658741D02*
X697269691Y697039694D01*
X696888738Y697373026D01*
X696888738Y697230169D01*
X696841119Y697134931D01*
X696793500Y697087311D01*
X696698262Y697039692D01*
X696460167Y697039691D01*
X696364929Y697087310D01*
X696317310Y697134929D01*
X696269690Y697230167D01*
X696269690Y697515881D01*
X696317308Y697611120D01*
X696364927Y697658739D01*
X696364930Y696611120D02*
X696317311Y696563501D01*
X696269692Y696611120D01*
X696317311Y696658739D01*
X696364930Y696611120D01*
X696269692Y696611120D01*
X697269694Y695658741D02*
X697269693Y696134932D01*
X696793503Y696182549D01*
X696841122Y696134931D01*
X696888741Y696039693D01*
X696888742Y695801597D01*
X696841123Y695706359D01*
X696793504Y695658740D01*
X696698266Y695611121D01*
X696460171Y695611120D01*
X696364932Y695658739D01*
X696317313Y695706358D01*
X696269694Y695801596D01*
X696269693Y696039691D01*
X696317312Y696134929D01*
X696364931Y696182548D01*
X697269695Y695277789D02*
X697269697Y694658741D01*
X696888744Y694992073D01*
X696888744Y694849216D01*
X696841125Y694753978D01*
X696793506Y694706359D01*
X696698268Y694658740D01*
X696460173Y694658739D01*
X696364935Y694706358D01*
X696317316Y694753977D01*
X696269696Y694849215D01*
X696269696Y695134929D01*
X696317315Y695230167D01*
X696364933Y695277786D01*
X696269699Y693706358D02*
X696269698Y694277786D01*
X696269699Y693992072D02*
X697269699Y693992074D01*
X697126841Y694087312D01*
X697031603Y694182550D01*
X696983984Y694277788D01*
X696269702Y692515881D02*
X696936369Y692515883D01*
X696841131Y692515883D02*
X696888750Y692468264D01*
X696936369Y692373026D01*
X696936370Y692230169D01*
X696888751Y692134931D01*
X696793513Y692087311D01*
X696269703Y692087310D01*
X696793513Y692087311D02*
X696888751Y692039693D01*
X696936371Y691944455D01*
X696936371Y691801597D01*
X696888752Y691706359D01*
X696793514Y691658740D01*
X696269705Y691658739D01*
X696269706Y691182548D02*
X696936372Y691182550D01*
X696841134Y691182550D02*
X696888754Y691134931D01*
X696936373Y691039693D01*
X696936373Y690896836D01*
X696888754Y690801597D01*
X696793516Y690753978D01*
X696269707Y690753977D01*
X696793516Y690753978D02*
X696888755Y690706359D01*
X696936374Y690611121D01*
X696936374Y690468264D01*
X696888755Y690373026D01*
X696793518Y690325407D01*
X696269708Y690325405D01*
D11*
X695452160Y662655269D02*
X695451998Y726186015D01*
X689610162Y662655254D02*
X696038581Y662655270D01*
X689610000Y726186000D02*
X696038419Y726186016D01*
X695451998Y726186015D02*
X696038422Y725059513D01*
X695451998Y726186015D02*
X694865580Y725059510D01*
X695452160Y662655269D02*
X696038578Y663781774D01*
X695452160Y662655269D02*
X694865736Y663781771D01*
D10*
X680015347Y660882350D02*
X679443927Y660879343D01*
X679729637Y660880846D02*
X679724374Y661880832D01*
X679629889Y661737476D01*
X679535153Y661641738D01*
X679440167Y661593618D01*
X680391533Y661789104D02*
X680438900Y661836973D01*
X680533886Y661885093D01*
X680771978Y661886346D01*
X680867466Y661839229D01*
X680915335Y661791861D01*
X680963454Y661696875D01*
X680963956Y661601638D01*
X680917089Y661458533D01*
X680348676Y660884104D01*
X680967715Y660887363D01*
X681395779Y660984855D02*
X681443648Y660937487D01*
X681396281Y660889618D01*
X681348412Y660936986D01*
X681395779Y660984855D01*
X681396281Y660889618D01*
X682057675Y661893113D02*
X682152912Y661893614D01*
X682248399Y661846497D01*
X682296268Y661799129D01*
X682344388Y661704143D01*
X682393009Y661513920D01*
X682394262Y661275828D01*
X682347646Y661085104D01*
X682300529Y660989617D01*
X682253161Y660941748D01*
X682158175Y660893628D01*
X682062938Y660893127D01*
X681967451Y660940244D01*
X681919582Y660987612D01*
X681871462Y661082598D01*
X681822841Y661272821D01*
X681821588Y661510913D01*
X681868204Y661701637D01*
X681915321Y661797124D01*
X681962689Y661844993D01*
X682057675Y661893113D01*
X683248135Y661899379D02*
X683057661Y661898376D01*
X682962675Y661850256D01*
X682915307Y661802387D01*
X682820822Y661659031D01*
X682774206Y661468307D01*
X682776211Y661087360D01*
X682824331Y660992374D01*
X682872200Y660945006D01*
X682967687Y660897889D01*
X683158161Y660898891D01*
X683253147Y660947011D01*
X683300515Y660994880D01*
X683347632Y661090367D01*
X683346379Y661328459D01*
X683298259Y661423445D01*
X683250390Y661470813D01*
X683154903Y661517930D01*
X682964429Y661516928D01*
X682869443Y661468808D01*
X682822075Y661420939D01*
X682774958Y661325452D01*
X684248121Y661904642D02*
X683771937Y661902135D01*
X683726825Y661425701D01*
X683774192Y661473570D01*
X683869179Y661521690D01*
X684107271Y661522943D01*
X684202758Y661475826D01*
X684250627Y661428458D01*
X684298747Y661333472D01*
X684300000Y661095380D01*
X684252883Y660999892D01*
X684205515Y660952023D01*
X684110529Y660903904D01*
X683872437Y660902651D01*
X683776949Y660949768D01*
X683729080Y660997135D01*
X685491462Y660911172D02*
X685487953Y661577829D01*
X685488454Y661482592D02*
X685535822Y661530461D01*
X685630808Y661578581D01*
X685773664Y661579333D01*
X685869151Y661532216D01*
X685917271Y661437230D01*
X685920027Y660913427D01*
X685917271Y661437230D02*
X685964388Y661532717D01*
X686059374Y661580837D01*
X686202229Y661581589D01*
X686297716Y661534471D01*
X686345836Y661439485D01*
X686348593Y660915683D01*
X686824777Y660918189D02*
X686821268Y661584847D01*
X686821769Y661489610D02*
X686869137Y661537479D01*
X686964123Y661585598D01*
X687106978Y661586350D01*
X687202466Y661539233D01*
X687250585Y661444247D01*
X687253342Y660920445D01*
X687250585Y661444247D02*
X687297703Y661539734D01*
X687392689Y661587854D01*
X687535544Y661588606D01*
X687631031Y661541489D01*
X687679151Y661446503D01*
X687681908Y660922700D01*
D11*
X677545162Y662591754D02*
X689610162Y662655254D01*
X677545000Y662622500D02*
X677548248Y662005342D01*
X689610000Y662686000D02*
X689613248Y662068842D01*
X689610162Y662655254D02*
X688486760Y662062912D01*
X689610162Y662655254D02*
X688480587Y663235738D01*
X677545162Y662591754D02*
X678674737Y662011270D01*
X677545162Y662591754D02*
X678668564Y663184096D01*
D10*
X641207619Y654931047D02*
X641112380Y654978666D01*
X641064761Y655026285D01*
X641017142Y655121523D01*
X641017142Y655169142D01*
X641064761Y655264380D01*
X641112380Y655312000D01*
X641207619Y655359619D01*
X641398095Y655359619D01*
X641493333Y655312000D01*
X641540952Y655264380D01*
X641588571Y655169142D01*
X641588571Y655121523D01*
X641540952Y655026285D01*
X641493333Y654978666D01*
X641398095Y654931047D01*
X641207619Y654931047D01*
X641112380Y654883428D01*
X641064761Y654835809D01*
X641017142Y654740571D01*
X641017142Y654550095D01*
X641064761Y654454857D01*
X641112380Y654407238D01*
X641207619Y654359619D01*
X641398095Y654359619D01*
X641493333Y654407238D01*
X641540952Y654454857D01*
X641588571Y654550095D01*
X641588571Y654740571D01*
X641540952Y654835809D01*
X641493333Y654883428D01*
X641398095Y654931047D01*
X642160000Y654931047D02*
X642064761Y654978666D01*
X642017142Y655026285D01*
X641969523Y655121523D01*
X641969523Y655169142D01*
X642017142Y655264380D01*
X642064761Y655312000D01*
X642160000Y655359619D01*
X642350476Y655359619D01*
X642445714Y655312000D01*
X642493333Y655264380D01*
X642540952Y655169142D01*
X642540952Y655121523D01*
X642493333Y655026285D01*
X642445714Y654978666D01*
X642350476Y654931047D01*
X642160000Y654931047D01*
X642064761Y654883428D01*
X642017142Y654835809D01*
X641969523Y654740571D01*
X641969523Y654550095D01*
X642017142Y654454857D01*
X642064761Y654407238D01*
X642160000Y654359619D01*
X642350476Y654359619D01*
X642445714Y654407238D01*
X642493333Y654454857D01*
X642540952Y654550095D01*
X642540952Y654740571D01*
X642493333Y654835809D01*
X642445714Y654883428D01*
X642350476Y654931047D01*
X642969523Y654454857D02*
X643017142Y654407238D01*
X642969523Y654359619D01*
X642921904Y654407238D01*
X642969523Y654454857D01*
X642969523Y654359619D01*
X643493333Y654359619D02*
X643683809Y654359619D01*
X643779047Y654407238D01*
X643826666Y654454857D01*
X643921904Y654597714D01*
X643969523Y654788190D01*
X643969523Y655169142D01*
X643921904Y655264380D01*
X643874285Y655312000D01*
X643779047Y655359619D01*
X643588571Y655359619D01*
X643493333Y655312000D01*
X643445714Y655264380D01*
X643398095Y655169142D01*
X643398095Y654931047D01*
X643445714Y654835809D01*
X643493333Y654788190D01*
X643588571Y654740571D01*
X643779047Y654740571D01*
X643874285Y654788190D01*
X643921904Y654835809D01*
X643969523Y654931047D01*
X644588571Y655359619D02*
X644683809Y655359619D01*
X644779047Y655312000D01*
X644826666Y655264380D01*
X644874285Y655169142D01*
X644921904Y654978666D01*
X644921904Y654740571D01*
X644874285Y654550095D01*
X644826666Y654454857D01*
X644779047Y654407238D01*
X644683809Y654359619D01*
X644588571Y654359619D01*
X644493333Y654407238D01*
X644445714Y654454857D01*
X644398095Y654550095D01*
X644350476Y654740571D01*
X644350476Y654978666D01*
X644398095Y655169142D01*
X644445714Y655264380D01*
X644493333Y655312000D01*
X644588571Y655359619D01*
X645540952Y655359619D02*
X645636190Y655359619D01*
X645731428Y655312000D01*
X645779047Y655264380D01*
X645826666Y655169142D01*
X645874285Y654978666D01*
X645874285Y654740571D01*
X645826666Y654550095D01*
X645779047Y654454857D01*
X645731428Y654407238D01*
X645636190Y654359619D01*
X645540952Y654359619D01*
X645445714Y654407238D01*
X645398095Y654454857D01*
X645350476Y654550095D01*
X645302857Y654740571D01*
X645302857Y654978666D01*
X645350476Y655169142D01*
X645398095Y655264380D01*
X645445714Y655312000D01*
X645540952Y655359619D01*
X647064761Y654359619D02*
X647064761Y655026285D01*
X647064761Y654931047D02*
X647112380Y654978666D01*
X647207619Y655026285D01*
X647350476Y655026285D01*
X647445714Y654978666D01*
X647493333Y654883428D01*
X647493333Y654359619D01*
X647493333Y654883428D02*
X647540952Y654978666D01*
X647636190Y655026285D01*
X647779047Y655026285D01*
X647874285Y654978666D01*
X647921904Y654883428D01*
X647921904Y654359619D01*
X648398095Y654359619D02*
X648398095Y655026285D01*
X648398095Y654931047D02*
X648445714Y654978666D01*
X648540952Y655026285D01*
X648683809Y655026285D01*
X648779047Y654978666D01*
X648826666Y654883428D01*
X648826666Y654359619D01*
X648826666Y654883428D02*
X648874285Y654978666D01*
X648969523Y655026285D01*
X649112380Y655026285D01*
X649207619Y654978666D01*
X649255238Y654883428D01*
X649255238Y654359619D01*
D11*
X600710000Y656082000D02*
X689610000Y656082000D01*
X600710000Y675640000D02*
X600710000Y655495579D01*
X689610000Y675640000D02*
X689610000Y655495579D01*
X689610000Y656082000D02*
X688483496Y655495579D01*
X689610000Y656082000D02*
X688483496Y656668421D01*
X600710000Y656082000D02*
X601836504Y655495579D01*
X600710000Y656082000D02*
X601836504Y656668421D01*
D12*
X688510571Y684742285D02*
X687010571Y684742285D01*
X688082000Y685242285D01*
X687010571Y685742285D01*
X688510571Y685742285D01*
X688439142Y686385142D02*
X688510571Y686599428D01*
X688510571Y686956571D01*
X688439142Y687099428D01*
X688367714Y687170857D01*
X688224857Y687242285D01*
X688082000Y687242285D01*
X687939142Y687170857D01*
X687867714Y687099428D01*
X687796285Y686956571D01*
X687724857Y686670857D01*
X687653428Y686528000D01*
X687582000Y686456571D01*
X687439142Y686385142D01*
X687296285Y686385142D01*
X687153428Y686456571D01*
X687082000Y686528000D01*
X687010571Y686670857D01*
X687010571Y687028000D01*
X687082000Y687242285D01*
X687010571Y687742285D02*
X688510571Y688742285D01*
X687010571Y688742285D02*
X688510571Y687742285D01*
X687010571Y690456571D02*
X688224857Y690456571D01*
X688367714Y690528000D01*
X688439142Y690599428D01*
X688510571Y690742285D01*
X688510571Y691028000D01*
X688439142Y691170857D01*
X688367714Y691242285D01*
X688224857Y691313714D01*
X687010571Y691313714D01*
X688439142Y691956571D02*
X688510571Y692170857D01*
X688510571Y692528000D01*
X688439142Y692670857D01*
X688367714Y692742285D01*
X688224857Y692813714D01*
X688082000Y692813714D01*
X687939142Y692742285D01*
X687867714Y692670857D01*
X687796285Y692528000D01*
X687724857Y692242285D01*
X687653428Y692099428D01*
X687582000Y692028000D01*
X687439142Y691956571D01*
X687296285Y691956571D01*
X687153428Y692028000D01*
X687082000Y692099428D01*
X687010571Y692242285D01*
X687010571Y692599428D01*
X687082000Y692813714D01*
X687724857Y693956571D02*
X687796285Y694170857D01*
X687867714Y694242285D01*
X688010571Y694313714D01*
X688224857Y694313714D01*
X688367714Y694242285D01*
X688439142Y694170857D01*
X688510571Y694028000D01*
X688510571Y693456571D01*
X687010571Y693456571D01*
X687010571Y693956571D01*
X687082000Y694099428D01*
X687153428Y694170857D01*
X687296285Y694242285D01*
X687439142Y694242285D01*
X687582000Y694170857D01*
X687653428Y694099428D01*
X687724857Y693956571D01*
X687724857Y693456571D01*
X687510571Y695956571D02*
X688510571Y696313714D01*
X687510571Y696670857D01*
X688510571Y698028000D02*
X688510571Y697170857D01*
X688510571Y697599428D02*
X687010571Y697599428D01*
X687224857Y697456571D01*
X687367714Y697313714D01*
X687439142Y697170857D01*
X688367714Y698670857D02*
X688439142Y698742285D01*
X688510571Y698670857D01*
X688439142Y698599428D01*
X688367714Y698670857D01*
X688510571Y698670857D01*
X687010571Y699670857D02*
X687010571Y699813714D01*
X687082000Y699956571D01*
X687153428Y700028000D01*
X687296285Y700099428D01*
X687582000Y700170857D01*
X687939142Y700170857D01*
X688224857Y700099428D01*
X688367714Y700028000D01*
X688439142Y699956571D01*
X688510571Y699813714D01*
X688510571Y699670857D01*
X688439142Y699528000D01*
X688367714Y699456571D01*
X688224857Y699385142D01*
X687939142Y699313714D01*
X687582000Y699313714D01*
X687296285Y699385142D01*
X687153428Y699456571D01*
X687082000Y699528000D01*
X687010571Y699670857D01*
X688510571Y701956571D02*
X687010571Y701956571D01*
X687582000Y701956571D02*
X687510571Y702099428D01*
X687510571Y702385142D01*
X687582000Y702528000D01*
X687653428Y702599428D01*
X687796285Y702670857D01*
X688224857Y702670857D01*
X688367714Y702599428D01*
X688439142Y702528000D01*
X688510571Y702385142D01*
X688510571Y702099428D01*
X688439142Y701956571D01*
X687510571Y703170857D02*
X688510571Y703528000D01*
X687510571Y703885142D02*
X688510571Y703528000D01*
X688867714Y703385142D01*
X688939142Y703313714D01*
X689010571Y703170857D01*
X688439142Y705528000D02*
X688510571Y705742285D01*
X688510571Y706099428D01*
X688439142Y706242285D01*
X688367714Y706313714D01*
X688224857Y706385142D01*
X688082000Y706385142D01*
X687939142Y706313714D01*
X687867714Y706242285D01*
X687796285Y706099428D01*
X687724857Y705813714D01*
X687653428Y705670857D01*
X687582000Y705599428D01*
X687439142Y705528000D01*
X687296285Y705528000D01*
X687153428Y705599428D01*
X687082000Y705670857D01*
X687010571Y705813714D01*
X687010571Y706170857D01*
X687082000Y706385142D01*
X687010571Y707313714D02*
X687010571Y707456571D01*
X687082000Y707599428D01*
X687153428Y707670857D01*
X687296285Y707742285D01*
X687582000Y707813714D01*
X687939142Y707813714D01*
X688224857Y707742285D01*
X688367714Y707670857D01*
X688439142Y707599428D01*
X688510571Y707456571D01*
X688510571Y707313714D01*
X688439142Y707170857D01*
X688367714Y707099428D01*
X688224857Y707028000D01*
X687939142Y706956571D01*
X687582000Y706956571D01*
X687296285Y707028000D01*
X687153428Y707099428D01*
X687082000Y707170857D01*
X687010571Y707313714D01*
X687510571Y709099428D02*
X688510571Y709099428D01*
X687510571Y708456571D02*
X688296285Y708456571D01*
X688439142Y708528000D01*
X688510571Y708670857D01*
X688510571Y708885142D01*
X688439142Y709028000D01*
X688367714Y709099428D01*
X688510571Y709813714D02*
X687510571Y709813714D01*
X687796285Y709813714D02*
X687653428Y709885142D01*
X687582000Y709956571D01*
X687510571Y710099428D01*
X687510571Y710242285D01*
X688439142Y711385142D02*
X688510571Y711242285D01*
X688510571Y710956571D01*
X688439142Y710813714D01*
X688367714Y710742285D01*
X688224857Y710670857D01*
X687796285Y710670857D01*
X687653428Y710742285D01*
X687582000Y710813714D01*
X687510571Y710956571D01*
X687510571Y711242285D01*
X687582000Y711385142D01*
X688439142Y712599428D02*
X688510571Y712456571D01*
X688510571Y712170857D01*
X688439142Y712028000D01*
X688296285Y711956571D01*
X687724857Y711956571D01*
X687582000Y712028000D01*
X687510571Y712170857D01*
X687510571Y712456571D01*
X687582000Y712599428D01*
X687724857Y712670857D01*
X687867714Y712670857D01*
X688010571Y711956571D01*
X688510571Y713313714D02*
X687510571Y713313714D01*
X687796285Y713313714D02*
X687653428Y713385142D01*
X687582000Y713456571D01*
X687510571Y713599428D01*
X687510571Y713742285D01*
X688510571Y714456571D02*
X688439142Y714313714D01*
X688367714Y714242285D01*
X688224857Y714170857D01*
X687796285Y714170857D01*
X687653428Y714242285D01*
X687582000Y714313714D01*
X687510571Y714456571D01*
X687510571Y714670857D01*
X687582000Y714813714D01*
X687653428Y714885142D01*
X687796285Y714956571D01*
X688224857Y714956571D01*
X688367714Y714885142D01*
X688439142Y714813714D01*
X688510571Y714670857D01*
X688510571Y714456571D01*
X688510571Y715599428D02*
X687510571Y715599428D01*
X687796285Y715599428D02*
X687653428Y715670857D01*
X687582000Y715742285D01*
X687510571Y715885142D01*
X687510571Y716028000D01*
D13*
X612775000Y662686000D02*
X677545000Y662686000D01*
D14*
X676275000Y662686000D02*
X676275000Y669671000D01*
X676275000Y669671000D02*
X677545000Y669671000D01*
X677545000Y662686000D02*
X677545000Y669671000D01*
X676275000Y662686000D02*
X677545000Y662686000D01*
X673735000Y662686000D02*
X673735000Y669671000D01*
X673735000Y669671000D02*
X675005000Y669671000D01*
X675005000Y662686000D02*
X675005000Y669671000D01*
X673735000Y662686000D02*
X675005000Y662686000D01*
X671195000Y662686000D02*
X671195000Y669671000D01*
X671195000Y669671000D02*
X672465000Y669671000D01*
X672465000Y662686000D02*
X672465000Y669671000D01*
X671195000Y662686000D02*
X672465000Y662686000D01*
X668655000Y662686000D02*
X668655000Y669671000D01*
X668655000Y669671000D02*
X669925000Y669671000D01*
X669925000Y662686000D02*
X669925000Y669671000D01*
X668655000Y662686000D02*
X669925000Y662686000D01*
X666115000Y662686000D02*
X666115000Y669671000D01*
X666115000Y669671000D02*
X667385000Y669671000D01*
X667385000Y662686000D02*
X667385000Y669671000D01*
X666115000Y662686000D02*
X667385000Y662686000D01*
X663575000Y662686000D02*
X663575000Y669671000D01*
X663575000Y669671000D02*
X664845000Y669671000D01*
X664845000Y662686000D02*
X664845000Y669671000D01*
X663575000Y662686000D02*
X664845000Y662686000D01*
X661035000Y662686000D02*
X661035000Y669671000D01*
X661035000Y669671000D02*
X662305000Y669671000D01*
X662305000Y662686000D02*
X662305000Y669671000D01*
X661035000Y662686000D02*
X662305000Y662686000D01*
X658495000Y662686000D02*
X658495000Y669671000D01*
X658495000Y669671000D02*
X659765000Y669671000D01*
X659765000Y662686000D02*
X659765000Y669671000D01*
X658495000Y662686000D02*
X659765000Y662686000D01*
X655955000Y662686000D02*
X655955000Y669671000D01*
X655955000Y669671000D02*
X657225000Y669671000D01*
X657225000Y662686000D02*
X657225000Y669671000D01*
X655955000Y662686000D02*
X657225000Y662686000D01*
X653415000Y662686000D02*
X653415000Y669671000D01*
X653415000Y669671000D02*
X654685000Y669671000D01*
X654685000Y662686000D02*
X654685000Y669671000D01*
X653415000Y662686000D02*
X654685000Y662686000D01*
X650875000Y662686000D02*
X650875000Y669671000D01*
X650875000Y669671000D02*
X652145000Y669671000D01*
X652145000Y662686000D02*
X652145000Y669671000D01*
X650875000Y662686000D02*
X652145000Y662686000D01*
X648335000Y662686000D02*
X648335000Y669671000D01*
X648335000Y669671000D02*
X649605000Y669671000D01*
X649605000Y662686000D02*
X649605000Y669671000D01*
X648335000Y662686000D02*
X649605000Y662686000D01*
X645795000Y662686000D02*
X645795000Y669671000D01*
X645795000Y669671000D02*
X647065000Y669671000D01*
X647065000Y662686000D02*
X647065000Y669671000D01*
X645795000Y662686000D02*
X647065000Y662686000D01*
X643255000Y662686000D02*
X643255000Y669671000D01*
X643255000Y669671000D02*
X644525000Y669671000D01*
X644525000Y662686000D02*
X644525000Y669671000D01*
X643255000Y662686000D02*
X644525000Y662686000D01*
X640715000Y662686000D02*
X640715000Y669671000D01*
X640715000Y669671000D02*
X641985000Y669671000D01*
X641985000Y662686000D02*
X641985000Y669671000D01*
X640715000Y662686000D02*
X641985000Y662686000D01*
X638175000Y662686000D02*
X638175000Y669671000D01*
X638175000Y669671000D02*
X639445000Y669671000D01*
X639445000Y662686000D02*
X639445000Y669671000D01*
X638175000Y662686000D02*
X639445000Y662686000D01*
X635635000Y662686000D02*
X635635000Y669671000D01*
X635635000Y669671000D02*
X636905000Y669671000D01*
X636905000Y662686000D02*
X636905000Y669671000D01*
X635635000Y662686000D02*
X636905000Y662686000D01*
X633095000Y662686000D02*
X633095000Y669671000D01*
X633095000Y669671000D02*
X634365000Y669671000D01*
X634365000Y662686000D02*
X634365000Y669671000D01*
X633095000Y662686000D02*
X634365000Y662686000D01*
X630555000Y662686000D02*
X630555000Y669671000D01*
X630555000Y669671000D02*
X631825000Y669671000D01*
X631825000Y662686000D02*
X631825000Y669671000D01*
X630555000Y662686000D02*
X631825000Y662686000D01*
X628015000Y662686000D02*
X628015000Y669671000D01*
X628015000Y669671000D02*
X629285000Y669671000D01*
X629285000Y662686000D02*
X629285000Y669671000D01*
X628015000Y662686000D02*
X629285000Y662686000D01*
X625475000Y662686000D02*
X625475000Y669671000D01*
X625475000Y669671000D02*
X626745000Y669671000D01*
X626745000Y662686000D02*
X626745000Y669671000D01*
X625475000Y662686000D02*
X626745000Y662686000D01*
X622935000Y662686000D02*
X622935000Y669671000D01*
X622935000Y669671000D02*
X624205000Y669671000D01*
X624205000Y662686000D02*
X624205000Y669671000D01*
X622935000Y662686000D02*
X624205000Y662686000D01*
X620395000Y662686000D02*
X620395000Y669671000D01*
X620395000Y669671000D02*
X621665000Y669671000D01*
X621665000Y662686000D02*
X621665000Y669671000D01*
X620395000Y662686000D02*
X621665000Y662686000D01*
X617855000Y662686000D02*
X617855000Y669671000D01*
X617855000Y669671000D02*
X619125000Y669671000D01*
X619125000Y662686000D02*
X619125000Y669671000D01*
X617855000Y662686000D02*
X619125000Y662686000D01*
X615315000Y662686000D02*
X615315000Y669671000D01*
X615315000Y669671000D02*
X616585000Y669671000D01*
X616585000Y662686000D02*
X616585000Y669671000D01*
X615315000Y662686000D02*
X616585000Y662686000D01*
X612775000Y662686000D02*
X612775000Y669671000D01*
X612775000Y669671000D02*
X614045000Y669671000D01*
X614045000Y662686000D02*
X614045000Y669671000D01*
X612775000Y662686000D02*
X614045000Y662686000D01*
X612775000Y662686000D02*
X612775000Y669671000D01*
X612775000Y669671000D02*
X614045000Y669671000D01*
X614045000Y662686000D02*
X614045000Y669671000D01*
X612775000Y662686000D02*
X614045000Y662686000D01*
X676275000Y662686000D02*
X676275000Y669671000D01*
X676275000Y669671000D02*
X677545000Y669671000D01*
X677545000Y662686000D02*
X677545000Y669671000D01*
X676275000Y662686000D02*
X677545000Y662686000D01*
X673735000Y662686000D02*
X673735000Y669671000D01*
X673735000Y669671000D02*
X675005000Y669671000D01*
X675005000Y662686000D02*
X675005000Y669671000D01*
X673735000Y662686000D02*
X675005000Y662686000D01*
X671195000Y662686000D02*
X671195000Y669671000D01*
X671195000Y669671000D02*
X672465000Y669671000D01*
X672465000Y662686000D02*
X672465000Y669671000D01*
X671195000Y662686000D02*
X672465000Y662686000D01*
X668655000Y662686000D02*
X668655000Y669671000D01*
X668655000Y669671000D02*
X669925000Y669671000D01*
X669925000Y662686000D02*
X669925000Y669671000D01*
X668655000Y662686000D02*
X669925000Y662686000D01*
X666115000Y662686000D02*
X666115000Y669671000D01*
X666115000Y669671000D02*
X667385000Y669671000D01*
X667385000Y662686000D02*
X667385000Y669671000D01*
X666115000Y662686000D02*
X667385000Y662686000D01*
X663575000Y662686000D02*
X663575000Y669671000D01*
X663575000Y669671000D02*
X664845000Y669671000D01*
X664845000Y662686000D02*
X664845000Y669671000D01*
X663575000Y662686000D02*
X664845000Y662686000D01*
X661035000Y662686000D02*
X661035000Y669671000D01*
X661035000Y669671000D02*
X662305000Y669671000D01*
X662305000Y662686000D02*
X662305000Y669671000D01*
X661035000Y662686000D02*
X662305000Y662686000D01*
X658495000Y662686000D02*
X658495000Y669671000D01*
X658495000Y669671000D02*
X659765000Y669671000D01*
X659765000Y662686000D02*
X659765000Y669671000D01*
X658495000Y662686000D02*
X659765000Y662686000D01*
X655955000Y662686000D02*
X655955000Y669671000D01*
X655955000Y669671000D02*
X657225000Y669671000D01*
X657225000Y662686000D02*
X657225000Y669671000D01*
X655955000Y662686000D02*
X657225000Y662686000D01*
X653415000Y662686000D02*
X653415000Y669671000D01*
X653415000Y669671000D02*
X654685000Y669671000D01*
X654685000Y662686000D02*
X654685000Y669671000D01*
X653415000Y662686000D02*
X654685000Y662686000D01*
X650875000Y662686000D02*
X650875000Y669671000D01*
X650875000Y669671000D02*
X652145000Y669671000D01*
X652145000Y662686000D02*
X652145000Y669671000D01*
X650875000Y662686000D02*
X652145000Y662686000D01*
X648335000Y662686000D02*
X648335000Y669671000D01*
X648335000Y669671000D02*
X649605000Y669671000D01*
X649605000Y662686000D02*
X649605000Y669671000D01*
X648335000Y662686000D02*
X649605000Y662686000D01*
X645795000Y662686000D02*
X645795000Y669671000D01*
X645795000Y669671000D02*
X647065000Y669671000D01*
X647065000Y662686000D02*
X647065000Y669671000D01*
X645795000Y662686000D02*
X647065000Y662686000D01*
X643255000Y662686000D02*
X643255000Y669671000D01*
X643255000Y669671000D02*
X644525000Y669671000D01*
X644525000Y662686000D02*
X644525000Y669671000D01*
X643255000Y662686000D02*
X644525000Y662686000D01*
X640715000Y662686000D02*
X640715000Y669671000D01*
X640715000Y669671000D02*
X641985000Y669671000D01*
X641985000Y662686000D02*
X641985000Y669671000D01*
X640715000Y662686000D02*
X641985000Y662686000D01*
X638175000Y662686000D02*
X638175000Y669671000D01*
X638175000Y669671000D02*
X639445000Y669671000D01*
X639445000Y662686000D02*
X639445000Y669671000D01*
X638175000Y662686000D02*
X639445000Y662686000D01*
X635635000Y662686000D02*
X635635000Y669671000D01*
X635635000Y669671000D02*
X636905000Y669671000D01*
X636905000Y662686000D02*
X636905000Y669671000D01*
X635635000Y662686000D02*
X636905000Y662686000D01*
X633095000Y662686000D02*
X633095000Y669671000D01*
X633095000Y669671000D02*
X634365000Y669671000D01*
X634365000Y662686000D02*
X634365000Y669671000D01*
X633095000Y662686000D02*
X634365000Y662686000D01*
X630555000Y662686000D02*
X630555000Y669671000D01*
X630555000Y669671000D02*
X631825000Y669671000D01*
X631825000Y662686000D02*
X631825000Y669671000D01*
X630555000Y662686000D02*
X631825000Y662686000D01*
X628015000Y662686000D02*
X628015000Y669671000D01*
X628015000Y669671000D02*
X629285000Y669671000D01*
X629285000Y662686000D02*
X629285000Y669671000D01*
X628015000Y662686000D02*
X629285000Y662686000D01*
X625475000Y662686000D02*
X625475000Y669671000D01*
X625475000Y669671000D02*
X626745000Y669671000D01*
X626745000Y662686000D02*
X626745000Y669671000D01*
X625475000Y662686000D02*
X626745000Y662686000D01*
X622935000Y662686000D02*
X622935000Y669671000D01*
X622935000Y669671000D02*
X624205000Y669671000D01*
X624205000Y662686000D02*
X624205000Y669671000D01*
X622935000Y662686000D02*
X624205000Y662686000D01*
X620395000Y662686000D02*
X620395000Y669671000D01*
X620395000Y669671000D02*
X621665000Y669671000D01*
X621665000Y662686000D02*
X621665000Y669671000D01*
X620395000Y662686000D02*
X621665000Y662686000D01*
X617855000Y662686000D02*
X617855000Y669671000D01*
X617855000Y669671000D02*
X619125000Y669671000D01*
X619125000Y662686000D02*
X619125000Y669671000D01*
X617855000Y662686000D02*
X619125000Y662686000D01*
X615315000Y662686000D02*
X615315000Y669671000D01*
X615315000Y669671000D02*
X616585000Y669671000D01*
X616585000Y662686000D02*
X616585000Y669671000D01*
X615315000Y662686000D02*
X616585000Y662686000D01*
D11*
X682050000Y722496000D02*
X664150000Y722496000D01*
X682050000Y681616000D02*
X682050000Y722496000D01*
X664150000Y681616000D02*
X682050000Y681616000D01*
X664150000Y722496000D02*
X664150000Y681616000D01*
X679560000Y722436000D02*
X674100000Y722436000D01*
X679560000Y681676000D02*
X679560000Y722436000D01*
X666640000Y681676000D02*
X679560000Y681676000D01*
X666640000Y722436000D02*
X666640000Y681676000D01*
X672100000Y722436000D02*
X666640000Y722436000D01*
X674100000Y722436000D02*
G75*
G02*
X672100000Y722436000I-1000000J0D01*
G01*
X616986250Y680675250D02*
X616986250Y679887750D01*
X616592500Y680281500D02*
X617380000Y680281500D01*
X617620000Y676088437D02*
X618684437Y675024000D01*
X617620000Y680779563D02*
X618684437Y681844000D01*
X617620000Y680779563D02*
X617620000Y679494000D01*
X617620000Y676088437D02*
X617620000Y677374000D01*
X618684437Y675024000D02*
X624440000Y675024000D01*
X618684437Y681844000D02*
X624440000Y681844000D01*
X624440000Y681844000D02*
X624440000Y679494000D01*
X624440000Y675024000D02*
X624440000Y677374000D01*
X638750000Y717236000D02*
X638750000Y718566000D01*
X640080000Y717236000D02*
X638750000Y717236000D01*
X638750000Y719836000D02*
X638750000Y722436000D01*
X641350000Y719836000D02*
X638750000Y719836000D01*
X641350000Y717236000D02*
X641350000Y719836000D01*
X638750000Y722436000D02*
X651570000Y722436000D01*
X641350000Y717236000D02*
X651570000Y717236000D01*
X651570000Y717236000D02*
X651570000Y722436000D01*
D15*
X637540000Y709676000D02*
X633730000Y705866000D01*
X633730000Y705866000D02*
X633730000Y686816000D01*
X633730000Y686816000D02*
X656590000Y686816000D01*
X656590000Y686816000D02*
X656590000Y709676000D01*
X656590000Y709676000D02*
X637540000Y709676000D01*
D10*
X639203095Y673698714D02*
X639626428Y673698714D01*
X639807857Y673033476D02*
X639203095Y673033476D01*
X639203095Y674303476D01*
X639807857Y674303476D01*
X640352142Y673033476D02*
X640352142Y674303476D01*
X640654523Y674303476D01*
X640835952Y674243000D01*
X640956904Y674122047D01*
X641017380Y674001095D01*
X641077857Y673759190D01*
X641077857Y673577761D01*
X641017380Y673335857D01*
X640956904Y673214904D01*
X640835952Y673093952D01*
X640654523Y673033476D01*
X640352142Y673033476D01*
X642287380Y674243000D02*
X642166428Y674303476D01*
X641985000Y674303476D01*
X641803571Y674243000D01*
X641682619Y674122047D01*
X641622142Y674001095D01*
X641561666Y673759190D01*
X641561666Y673577761D01*
X641622142Y673335857D01*
X641682619Y673214904D01*
X641803571Y673093952D01*
X641985000Y673033476D01*
X642105952Y673033476D01*
X642287380Y673093952D01*
X642347857Y673154428D01*
X642347857Y673577761D01*
X642105952Y673577761D01*
X643557380Y673033476D02*
X642831666Y673033476D01*
X643194523Y673033476D02*
X643194523Y674303476D01*
X643073571Y674122047D01*
X642952619Y674001095D01*
X642831666Y673940619D01*
X637267857Y674811476D02*
X637267857Y676081476D01*
X637691190Y675174333D01*
X638114523Y676081476D01*
X638114523Y674811476D01*
X638658809Y674871952D02*
X638840238Y674811476D01*
X639142619Y674811476D01*
X639263571Y674871952D01*
X639324047Y674932428D01*
X639384523Y675053380D01*
X639384523Y675174333D01*
X639324047Y675295285D01*
X639263571Y675355761D01*
X639142619Y675416238D01*
X638900714Y675476714D01*
X638779761Y675537190D01*
X638719285Y675597666D01*
X638658809Y675718619D01*
X638658809Y675839571D01*
X638719285Y675960523D01*
X638779761Y676021000D01*
X638900714Y676081476D01*
X639203095Y676081476D01*
X639384523Y676021000D01*
X639807857Y676081476D02*
X640654523Y674811476D01*
X640654523Y676081476D02*
X639807857Y674811476D01*
X640835952Y674690523D02*
X641803571Y674690523D01*
X642831666Y674932428D02*
X642771190Y674871952D01*
X642589761Y674811476D01*
X642468809Y674811476D01*
X642287380Y674871952D01*
X642166428Y674992904D01*
X642105952Y675113857D01*
X642045476Y675355761D01*
X642045476Y675537190D01*
X642105952Y675779095D01*
X642166428Y675900047D01*
X642287380Y676021000D01*
X642468809Y676081476D01*
X642589761Y676081476D01*
X642771190Y676021000D01*
X642831666Y675960523D01*
X643617857Y676081476D02*
X643859761Y676081476D01*
X643980714Y676021000D01*
X644101666Y675900047D01*
X644162142Y675658142D01*
X644162142Y675234809D01*
X644101666Y674992904D01*
X643980714Y674871952D01*
X643859761Y674811476D01*
X643617857Y674811476D01*
X643496904Y674871952D01*
X643375952Y674992904D01*
X643315476Y675234809D01*
X643315476Y675658142D01*
X643375952Y675900047D01*
X643496904Y676021000D01*
X643617857Y676081476D01*
X644706428Y674811476D02*
X644706428Y676081476D01*
X645432142Y674811476D01*
X645432142Y676081476D01*
X672338095Y723983619D02*
X672338095Y723174095D01*
X672385714Y723078857D01*
X672433333Y723031238D01*
X672528571Y722983619D01*
X672719047Y722983619D01*
X672814285Y723031238D01*
X672861904Y723078857D01*
X672909523Y723174095D01*
X672909523Y723983619D01*
X673861904Y723983619D02*
X673385714Y723983619D01*
X673338095Y723507428D01*
X673385714Y723555047D01*
X673480952Y723602666D01*
X673719047Y723602666D01*
X673814285Y723555047D01*
X673861904Y723507428D01*
X673909523Y723412190D01*
X673909523Y723174095D01*
X673861904Y723078857D01*
X673814285Y723031238D01*
X673719047Y722983619D01*
X673480952Y722983619D01*
X673385714Y723031238D01*
X673338095Y723078857D01*
X620863333Y682426857D02*
X620815714Y682379238D01*
X620672857Y682331619D01*
X620577619Y682331619D01*
X620434761Y682379238D01*
X620339523Y682474476D01*
X620291904Y682569714D01*
X620244285Y682760190D01*
X620244285Y682903047D01*
X620291904Y683093523D01*
X620339523Y683188761D01*
X620434761Y683284000D01*
X620577619Y683331619D01*
X620672857Y683331619D01*
X620815714Y683284000D01*
X620863333Y683236380D01*
X621815714Y682331619D02*
X621244285Y682331619D01*
X621530000Y682331619D02*
X621530000Y683331619D01*
X621434761Y683188761D01*
X621339523Y683093523D01*
X621244285Y683045904D01*
X637202380Y719502666D02*
X637916666Y719502666D01*
X638059523Y719455047D01*
X638154761Y719359809D01*
X638202380Y719216952D01*
X638202380Y719121714D01*
X638202380Y720502666D02*
X638202380Y719931238D01*
X638202380Y720216952D02*
X637202380Y720216952D01*
X637345238Y720121714D01*
X637440476Y720026476D01*
X637488095Y719931238D01*
D16*
X632629333Y708067333D02*
X634068666Y708067333D01*
X634238000Y708152000D01*
X634322666Y708236666D01*
X634407333Y708406000D01*
X634407333Y708744666D01*
X634322666Y708914000D01*
X634238000Y708998666D01*
X634068666Y709083333D01*
X632629333Y709083333D01*
X634407333Y710861333D02*
X634407333Y709845333D01*
X634407333Y710353333D02*
X632629333Y710353333D01*
X632883333Y710184000D01*
X633052666Y710014666D01*
X633137333Y709845333D01*
M02*
