M48
; DRILL file {KiCad (5.1.7-0-10_14)} date Sunday, May 30, 2021 at 12:22:22 PM
; FORMAT={-:-/ absolute / inch / decimal}
; #@! TF.CreationDate,2021-05-30T12:22:22+02:00
; #@! TF.GenerationSoftware,Kicad,Pcbnew,(5.1.7-0-10_14)
; #@! TF.FileFunction,Plated,1,2,PTH
FMAT,2
INCH
T1C0.0157
T2C0.0315
T3C0.0320
T4C0.0394
%
G90
G05
T1
X24.36Y26.54
X24.59Y26.53
X24.67Y26.7215
X24.67Y26.45
X24.67Y27.04
X24.7Y27.6
X24.703Y26.7705
X24.71Y27.04
X24.7463Y27.72
X24.7463Y27.2801
X24.7513Y27.0401
X24.7629Y27.89
X24.77Y26.45
X24.7715Y26.7215
X24.79Y27.63
X24.79Y27.37
X24.79Y27.28
X24.7906Y27.0396
X24.7925Y27.68
X24.7978Y26.7903
X24.8294Y27.63
X24.83Y27.3685
X24.8313Y27.04
X24.8687Y27.63
X24.87Y26.45
X24.87Y26.7215
X24.8707Y27.04
X24.8756Y27.2048
X24.8978Y26.8903
X24.91Y27.0402
X24.9215Y27.79
X24.9215Y27.55
X24.93Y27.68
X24.97Y26.9
X24.97Y26.45
X24.9798Y27.4698
X24.98Y27.7143
X25.0175Y27.08
X25.0233Y26.9508
X25.03Y26.9
X25.03Y26.84
X25.1285Y26.45
X25.1679Y26.9775
X25.17Y27.02
X25.2Y28.22
X25.2Y28.16
X25.23Y26.45
X25.28Y27.02
X25.3Y28.16
X25.3Y26.72
X25.33Y26.45
X25.34Y27.56
X25.3491Y27.49
X25.3498Y27.9698
X25.3798Y27.9398
X25.4Y28.16
X25.42Y27.56
X25.42Y27.49
X25.45Y26.72
X25.4502Y26.8102
X25.46Y26.45
X25.5Y27.94
X25.5Y26.59
X25.5098Y28.0498
X25.51Y26.77
X25.5398Y28.0198
X25.5715Y27.94
X25.5951Y28.006
X25.6Y26.81
X25.63Y27.94
X25.63Y26.45
X25.7Y26.59
X25.75Y26.54
X25.78Y26.59
X25.83Y26.99
X25.85Y26.54
X25.88Y27.44
X25.88Y27.3
X25.88Y27.17
X25.88Y27.13
X25.88Y27.09
X25.88Y26.99
X25.9Y26.45
X25.9006Y27.74
X25.9006Y27.64
X25.91Y26.54
X25.93Y26.99
X25.96Y26.78
X26.0Y26.45
X26.06Y26.74
X26.0717Y26.8615
X26.08Y26.78
X26.0898Y27.2394
X26.0898Y27.2
X26.09Y27.84
X26.09Y27.72
X26.09Y27.62
X26.1Y26.5971
X26.1Y26.71
X26.1Y26.99
X26.1Y26.45
X26.17Y26.6268
X26.233Y26.737
X26.27Y26.78
X26.28Y26.62
X26.4Y26.64
X26.5Y26.59
X26.5Y26.54
X26.5002Y26.4902
X26.6Y27.39
X26.68Y27.43
X26.99Y27.69
T2
X26.2Y28.39
X26.2Y28.29
X26.2Y28.19
X26.2Y28.09
X26.2Y27.99
X26.2Y27.89
X26.2Y27.79
X26.2Y27.69
X26.2Y27.59
X26.2Y27.49
X26.2Y27.39
X26.2Y27.29
X26.2Y27.19
X26.2Y27.09
X26.2Y26.99
X26.2Y26.89
X26.8Y28.39
X26.8Y28.29
X26.8Y28.19
X26.8Y28.09
X26.8Y27.99
X26.8Y27.89
X26.8Y27.79
X26.8Y27.69
X26.8Y27.59
X26.8Y27.49
X26.8Y27.39
X26.8Y27.29
X26.8Y27.19
X26.8Y27.09
X26.8Y26.99
X26.8Y26.89
T3
X25.05Y27.74
X25.05Y27.64
X25.05Y27.54
X25.05Y27.44
X25.05Y27.34
X25.05Y27.24
X25.15Y27.84
X25.15Y27.74
X25.15Y27.64
X25.15Y27.54
X25.15Y27.44
X25.15Y27.34
X25.15Y27.24
X25.15Y27.14
X25.25Y27.84
X25.25Y27.74
X25.25Y27.24
X25.25Y27.14
X25.35Y27.84
X25.35Y27.74
X25.35Y27.24
X25.35Y27.14
X25.45Y27.84
X25.45Y27.74
X25.45Y27.24
X25.45Y27.14
X25.55Y27.84
X25.55Y27.74
X25.55Y27.24
X25.55Y27.14
X25.65Y27.84
X25.65Y27.74
X25.65Y27.64
X25.65Y27.54
X25.65Y27.44
X25.65Y27.34
X25.65Y27.24
X25.65Y27.14
X25.75Y27.74
X25.75Y27.64
X25.75Y27.54
X25.75Y27.44
X25.75Y27.34
X25.75Y27.24
T4
X25.2Y28.39
X25.2Y28.29
X25.3Y28.39
X25.3Y28.29
X25.4Y28.39
X25.4Y28.29
X25.5Y28.39
X25.5Y28.29
X25.6Y28.39
X25.6Y28.29
X23.85Y27.16
X23.85Y27.06
X23.95Y27.16
X23.95Y27.06
X24.05Y27.16
X24.05Y27.06
X24.15Y27.16
X24.15Y27.06
X24.25Y27.16
X24.25Y27.06
X24.35Y27.16
X24.35Y27.06
X24.45Y27.16
X24.45Y27.06
X24.55Y27.16
X24.55Y27.06
T0
M30
