G04 #@! TF.GenerationSoftware,KiCad,Pcbnew,(5.1.7-0-10_14)*
G04 #@! TF.CreationDate,2021-05-30T12:22:11+02:00*
G04 #@! TF.ProjectId,MSX USB Drive,4d535820-5553-4422-9044-726976652e6b,rev?*
G04 #@! TF.SameCoordinates,Original*
G04 #@! TF.FileFunction,Paste,Bot*
G04 #@! TF.FilePolarity,Positive*
%FSLAX46Y46*%
G04 Gerber Fmt 4.6, Leading zero omitted, Abs format (unit mm)*
G04 Created by KiCad (PCBNEW (5.1.7-0-10_14)) date 2021-05-30 12:22:11*
%MOMM*%
%LPD*%
G01*
G04 APERTURE LIST*
G04 APERTURE END LIST*
G36*
G01*
X643805000Y701605999D02*
X643805000Y702506001D01*
G75*
G02*
X644054999Y702756000I249999J0D01*
G01*
X644705001Y702756000D01*
G75*
G02*
X644955000Y702506001I0J-249999D01*
G01*
X644955000Y701605999D01*
G75*
G02*
X644705001Y701356000I-249999J0D01*
G01*
X644054999Y701356000D01*
G75*
G02*
X643805000Y701605999I0J249999D01*
G01*
G37*
G36*
G01*
X645855000Y701605999D02*
X645855000Y702506001D01*
G75*
G02*
X646104999Y702756000I249999J0D01*
G01*
X646755001Y702756000D01*
G75*
G02*
X647005000Y702506001I0J-249999D01*
G01*
X647005000Y701605999D01*
G75*
G02*
X646755001Y701356000I-249999J0D01*
G01*
X646104999Y701356000D01*
G75*
G02*
X645855000Y701605999I0J249999D01*
G01*
G37*
G36*
G01*
X645365000Y693985999D02*
X645365000Y694886001D01*
G75*
G02*
X645614999Y695136000I249999J0D01*
G01*
X646265001Y695136000D01*
G75*
G02*
X646515000Y694886001I0J-249999D01*
G01*
X646515000Y693985999D01*
G75*
G02*
X646265001Y693736000I-249999J0D01*
G01*
X645614999Y693736000D01*
G75*
G02*
X645365000Y693985999I0J249999D01*
G01*
G37*
G36*
G01*
X643315000Y693985999D02*
X643315000Y694886001D01*
G75*
G02*
X643564999Y695136000I249999J0D01*
G01*
X644215001Y695136000D01*
G75*
G02*
X644465000Y694886001I0J-249999D01*
G01*
X644465000Y693985999D01*
G75*
G02*
X644215001Y693736000I-249999J0D01*
G01*
X643564999Y693736000D01*
G75*
G02*
X643315000Y693985999I0J249999D01*
G01*
G37*
G36*
G01*
X672649999Y705942000D02*
X673550001Y705942000D01*
G75*
G02*
X673800000Y705692001I0J-249999D01*
G01*
X673800000Y705041999D01*
G75*
G02*
X673550001Y704792000I-249999J0D01*
G01*
X672649999Y704792000D01*
G75*
G02*
X672400000Y705041999I0J249999D01*
G01*
X672400000Y705692001D01*
G75*
G02*
X672649999Y705942000I249999J0D01*
G01*
G37*
G36*
G01*
X672649999Y703892000D02*
X673550001Y703892000D01*
G75*
G02*
X673800000Y703642001I0J-249999D01*
G01*
X673800000Y702991999D01*
G75*
G02*
X673550001Y702742000I-249999J0D01*
G01*
X672649999Y702742000D01*
G75*
G02*
X672400000Y702991999I0J249999D01*
G01*
X672400000Y703642001D01*
G75*
G02*
X672649999Y703892000I249999J0D01*
G01*
G37*
M02*
