G04 #@! TF.GenerationSoftware,KiCad,Pcbnew,(6.0.5)*
G04 #@! TF.CreationDate,2022-10-25T10:43:51-03:00*
G04 #@! TF.ProjectId,MSX USB Drive,4d535820-5553-4422-9044-726976652e6b,rev?*
G04 #@! TF.SameCoordinates,Original*
G04 #@! TF.FileFunction,Legend,Bot*
G04 #@! TF.FilePolarity,Positive*
%FSLAX46Y46*%
G04 Gerber Fmt 4.6, Leading zero omitted, Abs format (unit mm)*
G04 Created by KiCad (PCBNEW (6.0.5)) date 2022-10-25 10:43:51*
%MOMM*%
%LPD*%
G01*
G04 APERTURE LIST*
%ADD10C,0.150000*%
%ADD11C,0.120000*%
G04 APERTURE END LIST*
D10*
X173031071Y-91056285D02*
X172688214Y-91056285D01*
X172516785Y-91142000D01*
X172345357Y-91313428D01*
X172259642Y-91656285D01*
X172259642Y-92256285D01*
X172345357Y-92599142D01*
X172516785Y-92770571D01*
X172688214Y-92856285D01*
X173031071Y-92856285D01*
X173202500Y-92770571D01*
X173373928Y-92599142D01*
X173459642Y-92256285D01*
X173459642Y-91656285D01*
X173373928Y-91313428D01*
X173202500Y-91142000D01*
X173031071Y-91056285D01*
X171488214Y-92856285D02*
X171488214Y-91656285D01*
X171488214Y-91999142D02*
X171402500Y-91827714D01*
X171316785Y-91742000D01*
X171145357Y-91656285D01*
X170973928Y-91656285D01*
X170373928Y-92856285D02*
X170373928Y-91656285D01*
X170373928Y-91056285D02*
X170459642Y-91142000D01*
X170373928Y-91227714D01*
X170288214Y-91142000D01*
X170373928Y-91056285D01*
X170373928Y-91227714D01*
X168745357Y-91656285D02*
X168745357Y-93113428D01*
X168831071Y-93284857D01*
X168916785Y-93370571D01*
X169088214Y-93456285D01*
X169345357Y-93456285D01*
X169516785Y-93370571D01*
X168745357Y-92770571D02*
X168916785Y-92856285D01*
X169259642Y-92856285D01*
X169431071Y-92770571D01*
X169516785Y-92684857D01*
X169602500Y-92513428D01*
X169602500Y-91999142D01*
X169516785Y-91827714D01*
X169431071Y-91742000D01*
X169259642Y-91656285D01*
X168916785Y-91656285D01*
X168745357Y-91742000D01*
X167888214Y-92856285D02*
X167888214Y-91656285D01*
X167888214Y-91056285D02*
X167973928Y-91142000D01*
X167888214Y-91227714D01*
X167802500Y-91142000D01*
X167888214Y-91056285D01*
X167888214Y-91227714D01*
X167031071Y-91656285D02*
X167031071Y-92856285D01*
X167031071Y-91827714D02*
X166945357Y-91742000D01*
X166773928Y-91656285D01*
X166516785Y-91656285D01*
X166345357Y-91742000D01*
X166259642Y-91913428D01*
X166259642Y-92856285D01*
X164631071Y-92856285D02*
X164631071Y-91913428D01*
X164716785Y-91742000D01*
X164888214Y-91656285D01*
X165231071Y-91656285D01*
X165402500Y-91742000D01*
X164631071Y-92770571D02*
X164802500Y-92856285D01*
X165231071Y-92856285D01*
X165402500Y-92770571D01*
X165488214Y-92599142D01*
X165488214Y-92427714D01*
X165402500Y-92256285D01*
X165231071Y-92170571D01*
X164802500Y-92170571D01*
X164631071Y-92084857D01*
X163516785Y-92856285D02*
X163688214Y-92770571D01*
X163773928Y-92599142D01*
X163773928Y-91056285D01*
X161459642Y-92856285D02*
X161459642Y-91656285D01*
X161459642Y-91056285D02*
X161545357Y-91142000D01*
X161459642Y-91227714D01*
X161373928Y-91142000D01*
X161459642Y-91056285D01*
X161459642Y-91227714D01*
X159831071Y-92856285D02*
X159831071Y-91056285D01*
X159831071Y-92770571D02*
X160002500Y-92856285D01*
X160345357Y-92856285D01*
X160516785Y-92770571D01*
X160602500Y-92684857D01*
X160688214Y-92513428D01*
X160688214Y-91999142D01*
X160602500Y-91827714D01*
X160516785Y-91742000D01*
X160345357Y-91656285D01*
X160002500Y-91656285D01*
X159831071Y-91742000D01*
X158288214Y-92770571D02*
X158459642Y-92856285D01*
X158802500Y-92856285D01*
X158973928Y-92770571D01*
X159059642Y-92599142D01*
X159059642Y-91913428D01*
X158973928Y-91742000D01*
X158802500Y-91656285D01*
X158459642Y-91656285D01*
X158288214Y-91742000D01*
X158202500Y-91913428D01*
X158202500Y-92084857D01*
X159059642Y-92256285D01*
X156659642Y-92856285D02*
X156659642Y-91913428D01*
X156745357Y-91742000D01*
X156916785Y-91656285D01*
X157259642Y-91656285D01*
X157431071Y-91742000D01*
X156659642Y-92770571D02*
X156831071Y-92856285D01*
X157259642Y-92856285D01*
X157431071Y-92770571D01*
X157516785Y-92599142D01*
X157516785Y-92427714D01*
X157431071Y-92256285D01*
X157259642Y-92170571D01*
X156831071Y-92170571D01*
X156659642Y-92084857D01*
X153659642Y-92856285D02*
X153659642Y-91913428D01*
X153745357Y-91742000D01*
X153916785Y-91656285D01*
X154259642Y-91656285D01*
X154431071Y-91742000D01*
X153659642Y-92770571D02*
X153831071Y-92856285D01*
X154259642Y-92856285D01*
X154431071Y-92770571D01*
X154516785Y-92599142D01*
X154516785Y-92427714D01*
X154431071Y-92256285D01*
X154259642Y-92170571D01*
X153831071Y-92170571D01*
X153659642Y-92084857D01*
X152802500Y-91656285D02*
X152802500Y-92856285D01*
X152802500Y-91827714D02*
X152716785Y-91742000D01*
X152545357Y-91656285D01*
X152288214Y-91656285D01*
X152116785Y-91742000D01*
X152031071Y-91913428D01*
X152031071Y-92856285D01*
X150402500Y-92856285D02*
X150402500Y-91056285D01*
X150402500Y-92770571D02*
X150573928Y-92856285D01*
X150916785Y-92856285D01*
X151088214Y-92770571D01*
X151173928Y-92684857D01*
X151259642Y-92513428D01*
X151259642Y-91999142D01*
X151173928Y-91827714D01*
X151088214Y-91742000D01*
X150916785Y-91656285D01*
X150573928Y-91656285D01*
X150402500Y-91742000D01*
X147402500Y-92770571D02*
X147573928Y-92856285D01*
X147916785Y-92856285D01*
X148088214Y-92770571D01*
X148173928Y-92684857D01*
X148259642Y-92513428D01*
X148259642Y-91999142D01*
X148173928Y-91827714D01*
X148088214Y-91742000D01*
X147916785Y-91656285D01*
X147573928Y-91656285D01*
X147402500Y-91742000D01*
X146373928Y-92856285D02*
X146545357Y-92770571D01*
X146631071Y-92684857D01*
X146716785Y-92513428D01*
X146716785Y-91999142D01*
X146631071Y-91827714D01*
X146545357Y-91742000D01*
X146373928Y-91656285D01*
X146116785Y-91656285D01*
X145945357Y-91742000D01*
X145859642Y-91827714D01*
X145773928Y-91999142D01*
X145773928Y-92513428D01*
X145859642Y-92684857D01*
X145945357Y-92770571D01*
X146116785Y-92856285D01*
X146373928Y-92856285D01*
X144231071Y-92856285D02*
X144231071Y-91056285D01*
X144231071Y-92770571D02*
X144402500Y-92856285D01*
X144745357Y-92856285D01*
X144916785Y-92770571D01*
X145002500Y-92684857D01*
X145088214Y-92513428D01*
X145088214Y-91999142D01*
X145002500Y-91827714D01*
X144916785Y-91742000D01*
X144745357Y-91656285D01*
X144402500Y-91656285D01*
X144231071Y-91742000D01*
X142688214Y-92770571D02*
X142859642Y-92856285D01*
X143202500Y-92856285D01*
X143373928Y-92770571D01*
X143459642Y-92599142D01*
X143459642Y-91913428D01*
X143373928Y-91742000D01*
X143202500Y-91656285D01*
X142859642Y-91656285D01*
X142688214Y-91742000D01*
X142602500Y-91913428D01*
X142602500Y-92084857D01*
X143459642Y-92256285D01*
X140459642Y-92856285D02*
X140459642Y-91056285D01*
X140459642Y-91742000D02*
X140288214Y-91656285D01*
X139945357Y-91656285D01*
X139773928Y-91742000D01*
X139688214Y-91827714D01*
X139602500Y-91999142D01*
X139602500Y-92513428D01*
X139688214Y-92684857D01*
X139773928Y-92770571D01*
X139945357Y-92856285D01*
X140288214Y-92856285D01*
X140459642Y-92770571D01*
X139002500Y-91656285D02*
X138573928Y-92856285D01*
X138145357Y-91656285D02*
X138573928Y-92856285D01*
X138745357Y-93284857D01*
X138831071Y-93370571D01*
X139002500Y-93456285D01*
X136173928Y-92770571D02*
X135916785Y-92856285D01*
X135488214Y-92856285D01*
X135316785Y-92770571D01*
X135231071Y-92684857D01*
X135145357Y-92513428D01*
X135145357Y-92342000D01*
X135231071Y-92170571D01*
X135316785Y-92084857D01*
X135488214Y-91999142D01*
X135831071Y-91913428D01*
X136002500Y-91827714D01*
X136088214Y-91742000D01*
X136173928Y-91570571D01*
X136173928Y-91399142D01*
X136088214Y-91227714D01*
X136002500Y-91142000D01*
X135831071Y-91056285D01*
X135402500Y-91056285D01*
X135145357Y-91142000D01*
X134031071Y-91056285D02*
X133859642Y-91056285D01*
X133688214Y-91142000D01*
X133602500Y-91227714D01*
X133516785Y-91399142D01*
X133431071Y-91742000D01*
X133431071Y-92170571D01*
X133516785Y-92513428D01*
X133602500Y-92684857D01*
X133688214Y-92770571D01*
X133859642Y-92856285D01*
X134031071Y-92856285D01*
X134202500Y-92770571D01*
X134288214Y-92684857D01*
X134373928Y-92513428D01*
X134459642Y-92170571D01*
X134459642Y-91742000D01*
X134373928Y-91399142D01*
X134288214Y-91227714D01*
X134202500Y-91142000D01*
X134031071Y-91056285D01*
X131888214Y-91656285D02*
X131888214Y-92856285D01*
X132659642Y-91656285D02*
X132659642Y-92599142D01*
X132573928Y-92770571D01*
X132402500Y-92856285D01*
X132145357Y-92856285D01*
X131973928Y-92770571D01*
X131888214Y-92684857D01*
X131031071Y-92856285D02*
X131031071Y-91656285D01*
X131031071Y-91999142D02*
X130945357Y-91827714D01*
X130859642Y-91742000D01*
X130688214Y-91656285D01*
X130516785Y-91656285D01*
X129145357Y-92770571D02*
X129316785Y-92856285D01*
X129659642Y-92856285D01*
X129831071Y-92770571D01*
X129916785Y-92684857D01*
X130002500Y-92513428D01*
X130002500Y-91999142D01*
X129916785Y-91827714D01*
X129831071Y-91742000D01*
X129659642Y-91656285D01*
X129316785Y-91656285D01*
X129145357Y-91742000D01*
X127688214Y-92770571D02*
X127859642Y-92856285D01*
X128202500Y-92856285D01*
X128373928Y-92770571D01*
X128459642Y-92599142D01*
X128459642Y-91913428D01*
X128373928Y-91742000D01*
X128202500Y-91656285D01*
X127859642Y-91656285D01*
X127688214Y-91742000D01*
X127602500Y-91913428D01*
X127602500Y-92084857D01*
X128459642Y-92256285D01*
X126831071Y-92856285D02*
X126831071Y-91656285D01*
X126831071Y-91999142D02*
X126745357Y-91827714D01*
X126659642Y-91742000D01*
X126488214Y-91656285D01*
X126316785Y-91656285D01*
X125459642Y-92856285D02*
X125631071Y-92770571D01*
X125716785Y-92684857D01*
X125802500Y-92513428D01*
X125802500Y-91999142D01*
X125716785Y-91827714D01*
X125631071Y-91742000D01*
X125459642Y-91656285D01*
X125202500Y-91656285D01*
X125031071Y-91742000D01*
X124945357Y-91827714D01*
X124859642Y-91999142D01*
X124859642Y-92513428D01*
X124945357Y-92684857D01*
X125031071Y-92770571D01*
X125202500Y-92856285D01*
X125459642Y-92856285D01*
X124088214Y-92856285D02*
X124088214Y-91656285D01*
X124088214Y-91999142D02*
X124002500Y-91827714D01*
X123916785Y-91742000D01*
X123745357Y-91656285D01*
X123573928Y-91656285D01*
X173373928Y-95754285D02*
X173373928Y-93954285D01*
X172516785Y-95754285D02*
X172516785Y-94554285D01*
X172516785Y-94725714D02*
X172431071Y-94640000D01*
X172259642Y-94554285D01*
X172002500Y-94554285D01*
X171831071Y-94640000D01*
X171745357Y-94811428D01*
X171745357Y-95754285D01*
X171745357Y-94811428D02*
X171659642Y-94640000D01*
X171488214Y-94554285D01*
X171231071Y-94554285D01*
X171059642Y-94640000D01*
X170973928Y-94811428D01*
X170973928Y-95754285D01*
X170116785Y-94554285D02*
X170116785Y-96354285D01*
X170116785Y-94640000D02*
X169945357Y-94554285D01*
X169602500Y-94554285D01*
X169431071Y-94640000D01*
X169345357Y-94725714D01*
X169259642Y-94897142D01*
X169259642Y-95411428D01*
X169345357Y-95582857D01*
X169431071Y-95668571D01*
X169602500Y-95754285D01*
X169945357Y-95754285D01*
X170116785Y-95668571D01*
X168488214Y-95754285D02*
X168488214Y-94554285D01*
X168488214Y-94897142D02*
X168402500Y-94725714D01*
X168316785Y-94640000D01*
X168145357Y-94554285D01*
X167973928Y-94554285D01*
X167116785Y-95754285D02*
X167288214Y-95668571D01*
X167373928Y-95582857D01*
X167459642Y-95411428D01*
X167459642Y-94897142D01*
X167373928Y-94725714D01*
X167288214Y-94640000D01*
X167116785Y-94554285D01*
X166859642Y-94554285D01*
X166688214Y-94640000D01*
X166602500Y-94725714D01*
X166516785Y-94897142D01*
X166516785Y-95411428D01*
X166602500Y-95582857D01*
X166688214Y-95668571D01*
X166859642Y-95754285D01*
X167116785Y-95754285D01*
X165916785Y-94554285D02*
X165488214Y-95754285D01*
X165059642Y-94554285D01*
X163688214Y-95668571D02*
X163859642Y-95754285D01*
X164202500Y-95754285D01*
X164373928Y-95668571D01*
X164459642Y-95497142D01*
X164459642Y-94811428D01*
X164373928Y-94640000D01*
X164202500Y-94554285D01*
X163859642Y-94554285D01*
X163688214Y-94640000D01*
X163602500Y-94811428D01*
X163602500Y-94982857D01*
X164459642Y-95154285D01*
X162831071Y-95754285D02*
X162831071Y-94554285D01*
X162831071Y-94725714D02*
X162745357Y-94640000D01*
X162573928Y-94554285D01*
X162316785Y-94554285D01*
X162145357Y-94640000D01*
X162059642Y-94811428D01*
X162059642Y-95754285D01*
X162059642Y-94811428D02*
X161973928Y-94640000D01*
X161802500Y-94554285D01*
X161545357Y-94554285D01*
X161373928Y-94640000D01*
X161288214Y-94811428D01*
X161288214Y-95754285D01*
X159745357Y-95668571D02*
X159916785Y-95754285D01*
X160259642Y-95754285D01*
X160431071Y-95668571D01*
X160516785Y-95497142D01*
X160516785Y-94811428D01*
X160431071Y-94640000D01*
X160259642Y-94554285D01*
X159916785Y-94554285D01*
X159745357Y-94640000D01*
X159659642Y-94811428D01*
X159659642Y-94982857D01*
X160516785Y-95154285D01*
X158888214Y-94554285D02*
X158888214Y-95754285D01*
X158888214Y-94725714D02*
X158802500Y-94640000D01*
X158631071Y-94554285D01*
X158373928Y-94554285D01*
X158202500Y-94640000D01*
X158116785Y-94811428D01*
X158116785Y-95754285D01*
X157516785Y-94554285D02*
X156831071Y-94554285D01*
X157259642Y-93954285D02*
X157259642Y-95497142D01*
X157173928Y-95668571D01*
X157002500Y-95754285D01*
X156831071Y-95754285D01*
X156316785Y-95668571D02*
X156145357Y-95754285D01*
X155802500Y-95754285D01*
X155631071Y-95668571D01*
X155545357Y-95497142D01*
X155545357Y-95411428D01*
X155631071Y-95240000D01*
X155802500Y-95154285D01*
X156059642Y-95154285D01*
X156231071Y-95068571D01*
X156316785Y-94897142D01*
X156316785Y-94811428D01*
X156231071Y-94640000D01*
X156059642Y-94554285D01*
X155802500Y-94554285D01*
X155631071Y-94640000D01*
X153402500Y-95754285D02*
X153402500Y-93954285D01*
X153402500Y-94640000D02*
X153231071Y-94554285D01*
X152888214Y-94554285D01*
X152716785Y-94640000D01*
X152631071Y-94725714D01*
X152545357Y-94897142D01*
X152545357Y-95411428D01*
X152631071Y-95582857D01*
X152716785Y-95668571D01*
X152888214Y-95754285D01*
X153231071Y-95754285D01*
X153402500Y-95668571D01*
X151945357Y-94554285D02*
X151516785Y-95754285D01*
X151088214Y-94554285D02*
X151516785Y-95754285D01*
X151688214Y-96182857D01*
X151773928Y-96268571D01*
X151945357Y-96354285D01*
X149031071Y-95754285D02*
X149031071Y-94554285D01*
X149031071Y-93954285D02*
X149116785Y-94040000D01*
X149031071Y-94125714D01*
X148945357Y-94040000D01*
X149031071Y-93954285D01*
X149031071Y-94125714D01*
X148259642Y-95668571D02*
X148088214Y-95754285D01*
X147745357Y-95754285D01*
X147573928Y-95668571D01*
X147488214Y-95497142D01*
X147488214Y-95411428D01*
X147573928Y-95240000D01*
X147745357Y-95154285D01*
X148002500Y-95154285D01*
X148173928Y-95068571D01*
X148259642Y-94897142D01*
X148259642Y-94811428D01*
X148173928Y-94640000D01*
X148002500Y-94554285D01*
X147745357Y-94554285D01*
X147573928Y-94640000D01*
X146802500Y-95668571D02*
X146631071Y-95754285D01*
X146288214Y-95754285D01*
X146116785Y-95668571D01*
X146031071Y-95497142D01*
X146031071Y-95411428D01*
X146116785Y-95240000D01*
X146288214Y-95154285D01*
X146545357Y-95154285D01*
X146716785Y-95068571D01*
X146802500Y-94897142D01*
X146802500Y-94811428D01*
X146716785Y-94640000D01*
X146545357Y-94554285D01*
X146288214Y-94554285D01*
X146116785Y-94640000D01*
X144488214Y-95754285D02*
X144488214Y-94811428D01*
X144573928Y-94640000D01*
X144745357Y-94554285D01*
X145088214Y-94554285D01*
X145259642Y-94640000D01*
X144488214Y-95668571D02*
X144659642Y-95754285D01*
X145088214Y-95754285D01*
X145259642Y-95668571D01*
X145345357Y-95497142D01*
X145345357Y-95325714D01*
X145259642Y-95154285D01*
X145088214Y-95068571D01*
X144659642Y-95068571D01*
X144488214Y-94982857D01*
X143373928Y-95754285D02*
X143545357Y-95668571D01*
X143631071Y-95497142D01*
X143631071Y-93954285D01*
X142688214Y-95754285D02*
X142688214Y-94554285D01*
X142688214Y-93954285D02*
X142773928Y-94040000D01*
X142688214Y-94125714D01*
X142602500Y-94040000D01*
X142688214Y-93954285D01*
X142688214Y-94125714D01*
X141059642Y-94554285D02*
X141059642Y-96011428D01*
X141145357Y-96182857D01*
X141231071Y-96268571D01*
X141402500Y-96354285D01*
X141659642Y-96354285D01*
X141831071Y-96268571D01*
X141059642Y-95668571D02*
X141231071Y-95754285D01*
X141573928Y-95754285D01*
X141745357Y-95668571D01*
X141831071Y-95582857D01*
X141916785Y-95411428D01*
X141916785Y-94897142D01*
X141831071Y-94725714D01*
X141745357Y-94640000D01*
X141573928Y-94554285D01*
X141231071Y-94554285D01*
X141059642Y-94640000D01*
X138059642Y-95754285D02*
X138059642Y-94811428D01*
X138145357Y-94640000D01*
X138316785Y-94554285D01*
X138659642Y-94554285D01*
X138831071Y-94640000D01*
X138059642Y-95668571D02*
X138231071Y-95754285D01*
X138659642Y-95754285D01*
X138831071Y-95668571D01*
X138916785Y-95497142D01*
X138916785Y-95325714D01*
X138831071Y-95154285D01*
X138659642Y-95068571D01*
X138231071Y-95068571D01*
X138059642Y-94982857D01*
X137202500Y-94554285D02*
X137202500Y-95754285D01*
X137202500Y-94725714D02*
X137116785Y-94640000D01*
X136945357Y-94554285D01*
X136688214Y-94554285D01*
X136516785Y-94640000D01*
X136431071Y-94811428D01*
X136431071Y-95754285D01*
X134802500Y-95754285D02*
X134802500Y-93954285D01*
X134802500Y-95668571D02*
X134973928Y-95754285D01*
X135316785Y-95754285D01*
X135488214Y-95668571D01*
X135573928Y-95582857D01*
X135659642Y-95411428D01*
X135659642Y-94897142D01*
X135573928Y-94725714D01*
X135488214Y-94640000D01*
X135316785Y-94554285D01*
X134973928Y-94554285D01*
X134802500Y-94640000D01*
X131802500Y-95668571D02*
X131973928Y-95754285D01*
X132316785Y-95754285D01*
X132488214Y-95668571D01*
X132573928Y-95582857D01*
X132659642Y-95411428D01*
X132659642Y-94897142D01*
X132573928Y-94725714D01*
X132488214Y-94640000D01*
X132316785Y-94554285D01*
X131973928Y-94554285D01*
X131802500Y-94640000D01*
X131031071Y-95754285D02*
X131031071Y-94554285D01*
X131031071Y-94897142D02*
X130945357Y-94725714D01*
X130859642Y-94640000D01*
X130688214Y-94554285D01*
X130516785Y-94554285D01*
X129916785Y-95754285D02*
X129916785Y-94554285D01*
X129916785Y-93954285D02*
X130002500Y-94040000D01*
X129916785Y-94125714D01*
X129831071Y-94040000D01*
X129916785Y-93954285D01*
X129916785Y-94125714D01*
X129145357Y-95668571D02*
X128973928Y-95754285D01*
X128631071Y-95754285D01*
X128459642Y-95668571D01*
X128373928Y-95497142D01*
X128373928Y-95411428D01*
X128459642Y-95240000D01*
X128631071Y-95154285D01*
X128888214Y-95154285D01*
X129059642Y-95068571D01*
X129145357Y-94897142D01*
X129145357Y-94811428D01*
X129059642Y-94640000D01*
X128888214Y-94554285D01*
X128631071Y-94554285D01*
X128459642Y-94640000D01*
X126831071Y-95754285D02*
X126831071Y-94811428D01*
X126916785Y-94640000D01*
X127088214Y-94554285D01*
X127431071Y-94554285D01*
X127602500Y-94640000D01*
X126831071Y-95668571D02*
X127002500Y-95754285D01*
X127431071Y-95754285D01*
X127602500Y-95668571D01*
X127688214Y-95497142D01*
X127688214Y-95325714D01*
X127602500Y-95154285D01*
X127431071Y-95068571D01*
X127002500Y-95068571D01*
X126831071Y-94982857D01*
X125202500Y-94554285D02*
X125202500Y-96011428D01*
X125288214Y-96182857D01*
X125373928Y-96268571D01*
X125545357Y-96354285D01*
X125802500Y-96354285D01*
X125973928Y-96268571D01*
X125202500Y-95668571D02*
X125373928Y-95754285D01*
X125716785Y-95754285D01*
X125888214Y-95668571D01*
X125973928Y-95582857D01*
X126059642Y-95411428D01*
X126059642Y-94897142D01*
X125973928Y-94725714D01*
X125888214Y-94640000D01*
X125716785Y-94554285D01*
X125373928Y-94554285D01*
X125202500Y-94640000D01*
X172345357Y-98652285D02*
X172945357Y-97795142D01*
X173373928Y-98652285D02*
X173373928Y-96852285D01*
X172688214Y-96852285D01*
X172516785Y-96938000D01*
X172431071Y-97023714D01*
X172345357Y-97195142D01*
X172345357Y-97452285D01*
X172431071Y-97623714D01*
X172516785Y-97709428D01*
X172688214Y-97795142D01*
X173373928Y-97795142D01*
X170888214Y-98566571D02*
X171059642Y-98652285D01*
X171402500Y-98652285D01*
X171573928Y-98566571D01*
X171659642Y-98395142D01*
X171659642Y-97709428D01*
X171573928Y-97538000D01*
X171402500Y-97452285D01*
X171059642Y-97452285D01*
X170888214Y-97538000D01*
X170802500Y-97709428D01*
X170802500Y-97880857D01*
X171659642Y-98052285D01*
X170202500Y-97452285D02*
X169773928Y-98652285D01*
X169345357Y-97452285D01*
X167888214Y-97452285D02*
X167888214Y-98652285D01*
X168316785Y-96766571D02*
X168745357Y-98052285D01*
X167631071Y-98052285D01*
X110276666Y-81927142D02*
X110324285Y-81974761D01*
X110467142Y-82022380D01*
X110562380Y-82022380D01*
X110705238Y-81974761D01*
X110800476Y-81879523D01*
X110848095Y-81784285D01*
X110895714Y-81593809D01*
X110895714Y-81450952D01*
X110848095Y-81260476D01*
X110800476Y-81165238D01*
X110705238Y-81070000D01*
X110562380Y-81022380D01*
X110467142Y-81022380D01*
X110324285Y-81070000D01*
X110276666Y-81117619D01*
X109943333Y-81022380D02*
X109324285Y-81022380D01*
X109657619Y-81403333D01*
X109514761Y-81403333D01*
X109419523Y-81450952D01*
X109371904Y-81498571D01*
X109324285Y-81593809D01*
X109324285Y-81831904D01*
X109371904Y-81927142D01*
X109419523Y-81974761D01*
X109514761Y-82022380D01*
X109800476Y-82022380D01*
X109895714Y-81974761D01*
X109943333Y-81927142D01*
X110276666Y-85627142D02*
X110324285Y-85674761D01*
X110467142Y-85722380D01*
X110562380Y-85722380D01*
X110705238Y-85674761D01*
X110800476Y-85579523D01*
X110848095Y-85484285D01*
X110895714Y-85293809D01*
X110895714Y-85150952D01*
X110848095Y-84960476D01*
X110800476Y-84865238D01*
X110705238Y-84770000D01*
X110562380Y-84722380D01*
X110467142Y-84722380D01*
X110324285Y-84770000D01*
X110276666Y-84817619D01*
X109895714Y-84817619D02*
X109848095Y-84770000D01*
X109752857Y-84722380D01*
X109514761Y-84722380D01*
X109419523Y-84770000D01*
X109371904Y-84817619D01*
X109324285Y-84912857D01*
X109324285Y-85008095D01*
X109371904Y-85150952D01*
X109943333Y-85722380D01*
X109324285Y-85722380D01*
X106576666Y-69572380D02*
X106910000Y-69096190D01*
X107148095Y-69572380D02*
X107148095Y-68572380D01*
X106767142Y-68572380D01*
X106671904Y-68620000D01*
X106624285Y-68667619D01*
X106576666Y-68762857D01*
X106576666Y-68905714D01*
X106624285Y-69000952D01*
X106671904Y-69048571D01*
X106767142Y-69096190D01*
X107148095Y-69096190D01*
X105624285Y-69572380D02*
X106195714Y-69572380D01*
X105910000Y-69572380D02*
X105910000Y-68572380D01*
X106005238Y-68715238D01*
X106100476Y-68810476D01*
X106195714Y-68858095D01*
X171059166Y-76077142D02*
X171106785Y-76124761D01*
X171249642Y-76172380D01*
X171344880Y-76172380D01*
X171487738Y-76124761D01*
X171582976Y-76029523D01*
X171630595Y-75934285D01*
X171678214Y-75743809D01*
X171678214Y-75600952D01*
X171630595Y-75410476D01*
X171582976Y-75315238D01*
X171487738Y-75220000D01*
X171344880Y-75172380D01*
X171249642Y-75172380D01*
X171106785Y-75220000D01*
X171059166Y-75267619D01*
X170202023Y-75505714D02*
X170202023Y-76172380D01*
X170440119Y-75124761D02*
X170678214Y-75839047D01*
X170059166Y-75839047D01*
D11*
X110371252Y-83985000D02*
X109848748Y-83985000D01*
X110371252Y-82515000D02*
X109848748Y-82515000D01*
X110371252Y-86215000D02*
X109848748Y-86215000D01*
X110371252Y-87685000D02*
X109848748Y-87685000D01*
X106182936Y-66735000D02*
X106637064Y-66735000D01*
X106182936Y-68205000D02*
X106637064Y-68205000D01*
X171153752Y-78135000D02*
X170631248Y-78135000D01*
X171153752Y-76665000D02*
X170631248Y-76665000D01*
M02*
