G04 #@! TF.GenerationSoftware,KiCad,Pcbnew,(6.0.5)*
G04 #@! TF.CreationDate,2022-10-25T10:43:50-03:00*
G04 #@! TF.ProjectId,MSX USB Drive,4d535820-5553-4422-9044-726976652e6b,rev?*
G04 #@! TF.SameCoordinates,Original*
G04 #@! TF.FileFunction,Copper,L1,Top*
G04 #@! TF.FilePolarity,Positive*
%FSLAX46Y46*%
G04 Gerber Fmt 4.6, Leading zero omitted, Abs format (unit mm)*
G04 Created by KiCad (PCBNEW (6.0.5)) date 2022-10-25 10:43:50*
%MOMM*%
%LPD*%
G01*
G04 APERTURE LIST*
G04 #@! TA.AperFunction,SMDPad,CuDef*
%ADD10R,1.270000X7.620000*%
G04 #@! TD*
G04 #@! TA.AperFunction,ComponentPad*
%ADD11R,1.600000X1.600000*%
G04 #@! TD*
G04 #@! TA.AperFunction,ComponentPad*
%ADD12C,1.600000*%
G04 #@! TD*
G04 #@! TA.AperFunction,ComponentPad*
%ADD13R,1.700000X1.700000*%
G04 #@! TD*
G04 #@! TA.AperFunction,ComponentPad*
%ADD14O,1.700000X1.700000*%
G04 #@! TD*
G04 #@! TA.AperFunction,ComponentPad*
%ADD15C,1.308000*%
G04 #@! TD*
G04 #@! TA.AperFunction,ComponentPad*
%ADD16C,2.100000*%
G04 #@! TD*
G04 #@! TA.AperFunction,ComponentPad*
%ADD17R,1.422400X1.422400*%
G04 #@! TD*
G04 #@! TA.AperFunction,ComponentPad*
%ADD18C,1.422400*%
G04 #@! TD*
G04 #@! TA.AperFunction,ComponentPad*
%ADD19R,1.397000X1.397000*%
G04 #@! TD*
G04 #@! TA.AperFunction,ComponentPad*
%ADD20C,1.397000*%
G04 #@! TD*
G04 #@! TA.AperFunction,ViaPad*
%ADD21C,0.800000*%
G04 #@! TD*
G04 #@! TA.AperFunction,Conductor*
%ADD22C,0.250000*%
G04 #@! TD*
G04 #@! TA.AperFunction,Conductor*
%ADD23C,0.400000*%
G04 #@! TD*
G04 APERTURE END LIST*
D10*
X113350000Y-124270000D03*
X110810000Y-124270000D03*
X161610000Y-124270000D03*
X171770000Y-124270000D03*
X164150000Y-124270000D03*
X159070000Y-124270000D03*
X156530000Y-124270000D03*
X153990000Y-124270000D03*
X166690000Y-124270000D03*
X169230000Y-124270000D03*
X138750000Y-124270000D03*
X136210000Y-124270000D03*
X133670000Y-124270000D03*
X146370000Y-124270000D03*
X143830000Y-124270000D03*
X148910000Y-124270000D03*
X141290000Y-124270000D03*
X151450000Y-124270000D03*
X120970000Y-124270000D03*
X131130000Y-124270000D03*
X128590000Y-124270000D03*
X126050000Y-124270000D03*
X123510000Y-124270000D03*
X118430000Y-123000000D03*
X115890000Y-124270000D03*
D11*
X102134900Y-103910000D03*
D12*
X104634900Y-103910000D03*
D13*
X130320000Y-107250000D03*
D14*
X130320000Y-104710000D03*
X132860000Y-107250000D03*
X132860000Y-104710000D03*
X135400000Y-107250000D03*
X135400000Y-104710000D03*
X137940000Y-107250000D03*
X137940000Y-104710000D03*
X140480000Y-107250000D03*
X140480000Y-104710000D03*
X143020000Y-107250000D03*
X143020000Y-104710000D03*
X145560000Y-107250000D03*
X145560000Y-104710000D03*
X148100000Y-107250000D03*
X148100000Y-104710000D03*
D15*
X98650000Y-66180000D03*
X94650000Y-66180000D03*
X96650000Y-66180000D03*
D16*
X100800000Y-66180000D03*
X92500000Y-66180000D03*
D17*
X172130000Y-72270000D03*
D18*
X169590000Y-69730000D03*
X169590000Y-72270000D03*
X167050000Y-69730000D03*
X164510000Y-72270000D03*
X167050000Y-72270000D03*
X164510000Y-74810000D03*
X167050000Y-74810000D03*
X164510000Y-77350000D03*
X167050000Y-77350000D03*
X164510000Y-79890000D03*
X167050000Y-79890000D03*
X164510000Y-82430000D03*
X167050000Y-84970000D03*
X167050000Y-82430000D03*
X169590000Y-84970000D03*
X169590000Y-82430000D03*
X172130000Y-84970000D03*
X172130000Y-82430000D03*
X174670000Y-84970000D03*
X177210000Y-82430000D03*
X174670000Y-82430000D03*
X177210000Y-79890000D03*
X174670000Y-79890000D03*
X177210000Y-77350000D03*
X174670000Y-77350000D03*
X177210000Y-74810000D03*
X174670000Y-74810000D03*
X177210000Y-72270000D03*
X174670000Y-69730000D03*
X174670000Y-72270000D03*
X172130000Y-69730000D03*
D19*
X111260000Y-78810000D03*
D20*
X108720000Y-76270000D03*
X108720000Y-78810000D03*
X106180000Y-76270000D03*
X106180000Y-78810000D03*
X103640000Y-76270000D03*
X101100000Y-78810000D03*
X103640000Y-78810000D03*
X101100000Y-81350000D03*
X103640000Y-81350000D03*
X101100000Y-83890000D03*
X103640000Y-83890000D03*
X101100000Y-86430000D03*
X103640000Y-86430000D03*
X101100000Y-88970000D03*
X103640000Y-88970000D03*
X101100000Y-91510000D03*
X103640000Y-94050000D03*
X103640000Y-91510000D03*
X106180000Y-94050000D03*
X106180000Y-91510000D03*
X108720000Y-94050000D03*
X108720000Y-91510000D03*
X111260000Y-94050000D03*
X111260000Y-91510000D03*
X113800000Y-94050000D03*
X113800000Y-91510000D03*
X116340000Y-94050000D03*
X118880000Y-91510000D03*
X116340000Y-91510000D03*
X118880000Y-88970000D03*
X116340000Y-88970000D03*
X118880000Y-86430000D03*
X116340000Y-86430000D03*
X118880000Y-83890000D03*
X116340000Y-83890000D03*
X118880000Y-81350000D03*
X116340000Y-81350000D03*
X118880000Y-78810000D03*
X116340000Y-76270000D03*
X116340000Y-78810000D03*
X113800000Y-76270000D03*
X113800000Y-78810000D03*
X111260000Y-76270000D03*
D13*
X92850000Y-85640000D03*
D14*
X90310000Y-85640000D03*
X92850000Y-83100000D03*
X90310000Y-83100000D03*
X92850000Y-80560000D03*
X90310000Y-80560000D03*
X92850000Y-78020000D03*
X90310000Y-78020000D03*
X92850000Y-75480000D03*
X90310000Y-75480000D03*
D21*
X119552700Y-75217800D03*
X152720000Y-122752800D03*
X150153100Y-120537500D03*
X127219900Y-98787200D03*
X121552500Y-101005800D03*
X127969900Y-97640000D03*
X118540000Y-99527300D03*
X134916900Y-95475300D03*
X133345900Y-95578100D03*
X112441600Y-97391400D03*
X129800300Y-96914600D03*
X132616300Y-119254500D03*
X148467300Y-103255200D03*
X130792300Y-116818600D03*
X106568600Y-97501000D03*
X122493200Y-110701300D03*
X125303000Y-117344900D03*
X144907500Y-92537300D03*
X137450800Y-120134700D03*
X148120800Y-96099400D03*
X126382400Y-102502000D03*
X146997200Y-99405800D03*
X158593700Y-107960200D03*
X157484800Y-110964300D03*
X150864700Y-119831600D03*
X157773000Y-81325300D03*
X131016300Y-109818700D03*
X156005900Y-117108000D03*
X106784000Y-88954900D03*
D22*
X168320000Y-73540000D02*
X169590000Y-72270000D01*
X166013400Y-74326200D02*
X166799600Y-73540000D01*
X166013400Y-74827100D02*
X166013400Y-74326200D01*
X164993900Y-75846600D02*
X166013400Y-74827100D01*
X163137400Y-77175800D02*
X164466600Y-75846600D01*
X163137400Y-77932600D02*
X163137400Y-77175800D01*
X155229520Y-85840480D02*
X163137400Y-77932600D01*
X164466600Y-75846600D02*
X164993900Y-75846600D01*
X117363011Y-82866989D02*
X141798789Y-82866989D01*
X116340000Y-83890000D02*
X117363011Y-82866989D01*
X141798789Y-82866989D02*
X144772280Y-85840480D01*
X144772280Y-85840480D02*
X155229520Y-85840480D01*
X166799600Y-73540000D02*
X168320000Y-73540000D01*
X175940000Y-81160000D02*
X174670000Y-82430000D01*
X175940000Y-79684100D02*
X175940000Y-81160000D01*
X176787100Y-78837000D02*
X175940000Y-79684100D01*
X177900000Y-78837000D02*
X176787100Y-78837000D01*
X178726600Y-78010400D02*
X177900000Y-78837000D01*
X178726600Y-71588000D02*
X178726600Y-78010400D01*
X175338400Y-68199800D02*
X178726600Y-71588000D01*
X166357600Y-68199800D02*
X175338400Y-68199800D01*
X155840000Y-78717400D02*
X166357600Y-68199800D01*
X147481300Y-84430000D02*
X154032582Y-84430000D01*
X154032582Y-84430000D02*
X155840000Y-82622582D01*
X130960300Y-80780000D02*
X143831300Y-80780000D01*
X143831300Y-80780000D02*
X147481300Y-84430000D01*
X127486400Y-77306100D02*
X130960300Y-80780000D01*
X155840000Y-82622582D02*
X155840000Y-78717400D01*
X116340000Y-78810000D02*
X117843900Y-77306100D01*
X117843900Y-77306100D02*
X127486400Y-77306100D01*
X112283800Y-78810000D02*
X111260000Y-78810000D01*
X113307700Y-79833900D02*
X112283800Y-78810000D01*
X116795600Y-79833900D02*
X113307700Y-79833900D01*
X117610000Y-79019500D02*
X116795600Y-79833900D01*
X126748200Y-77756500D02*
X118485500Y-77756500D01*
X118485500Y-77756500D02*
X117610000Y-78632000D01*
X117610000Y-78632000D02*
X117610000Y-79019500D01*
X143620500Y-81400000D02*
X130391700Y-81400000D01*
X130391700Y-81400000D02*
X126748200Y-77756500D01*
X154158300Y-84940000D02*
X147160500Y-84940000D01*
X147160500Y-84940000D02*
X143620500Y-81400000D01*
X157773000Y-81325300D02*
X154158300Y-84940000D01*
X122240000Y-82170000D02*
X118880000Y-78810000D01*
X143753600Y-82170000D02*
X122240000Y-82170000D01*
X146974560Y-85390960D02*
X143753600Y-82170000D01*
X154765140Y-85390960D02*
X146974560Y-85390960D01*
X158810100Y-81346000D02*
X154765140Y-85390960D01*
X158810100Y-79026300D02*
X158810100Y-81346000D01*
X164521500Y-73314900D02*
X158810100Y-79026300D01*
X165877600Y-71878100D02*
X165877600Y-72383400D01*
X173186700Y-70775000D02*
X166980700Y-70775000D01*
X164946100Y-73314900D02*
X164521500Y-73314900D01*
X173629900Y-71218200D02*
X173186700Y-70775000D01*
X166980700Y-70775000D02*
X165877600Y-71878100D01*
X165877600Y-72383400D02*
X164946100Y-73314900D01*
X173629900Y-73769900D02*
X173629900Y-71218200D01*
X174670000Y-74810000D02*
X173629900Y-73769900D01*
X168119800Y-81360200D02*
X167050000Y-82430000D01*
X167562400Y-78852300D02*
X168119800Y-79409700D01*
X132230200Y-84913900D02*
X133606300Y-86290000D01*
X163182600Y-78852300D02*
X167562400Y-78852300D01*
X104663900Y-84913900D02*
X132230200Y-84913900D01*
X133606300Y-86290000D02*
X155744900Y-86290000D01*
X103640000Y-83890000D02*
X104663900Y-84913900D01*
X155744900Y-86290000D02*
X163182600Y-78852300D01*
X168119800Y-79409700D02*
X168119800Y-81360200D01*
X165939300Y-83859300D02*
X167050000Y-84970000D01*
X164944800Y-81358000D02*
X165939300Y-82352500D01*
X158407400Y-86910000D02*
X163959400Y-81358000D01*
X133364400Y-86910000D02*
X158407400Y-86910000D01*
X165939300Y-82352500D02*
X165939300Y-83859300D01*
X131859900Y-85405500D02*
X133364400Y-86910000D01*
X104664500Y-85405500D02*
X131859900Y-85405500D01*
X163959400Y-81358000D02*
X164944800Y-81358000D01*
X103640000Y-86430000D02*
X104664500Y-85405500D01*
X174646500Y-86775700D02*
X174646500Y-112353500D01*
X169230000Y-117770000D02*
X169230000Y-124270000D01*
X175729900Y-83489900D02*
X175729900Y-85692300D01*
X174670000Y-82430000D02*
X175729900Y-83489900D01*
X175729900Y-85692300D02*
X174646500Y-86775700D01*
X174646500Y-112353500D02*
X169230000Y-117770000D01*
X134224700Y-104710000D02*
X135400000Y-104710000D01*
X134224700Y-104342600D02*
X134224700Y-104710000D01*
X133416800Y-103534700D02*
X134224700Y-104342600D01*
X109975300Y-103534700D02*
X133416800Y-103534700D01*
X106190000Y-107320000D02*
X109975300Y-103534700D01*
X102550000Y-107320000D02*
X106190000Y-107320000D01*
X95790000Y-100560000D02*
X102550000Y-107320000D01*
X88676100Y-95689500D02*
X93546600Y-100560000D01*
X88676100Y-80526800D02*
X88676100Y-95689500D01*
X93546600Y-100560000D02*
X95790000Y-100560000D01*
X97749300Y-79840900D02*
X97267300Y-79358900D01*
X97267300Y-79358900D02*
X89844000Y-79358900D01*
X105149100Y-79840900D02*
X97749300Y-79840900D01*
X106180000Y-78810000D02*
X105149100Y-79840900D01*
X89844000Y-79358900D02*
X88676100Y-80526800D01*
X95469520Y-101009520D02*
X105161300Y-110701300D01*
X105161300Y-110701300D02*
X122493200Y-110701300D01*
X88188000Y-95837117D02*
X93360403Y-101009520D01*
X89813900Y-74302200D02*
X88188000Y-75928100D01*
X99132200Y-74302200D02*
X89813900Y-74302200D01*
X88188000Y-75928100D02*
X88188000Y-95837117D01*
X93360403Y-101009520D02*
X95469520Y-101009520D01*
X103640000Y-78810000D02*
X99132200Y-74302200D01*
X129405700Y-111429300D02*
X131016300Y-109818700D01*
X93174206Y-101459040D02*
X95079040Y-101459040D01*
X87732900Y-96017734D02*
X93174206Y-101459040D01*
X87732900Y-75746300D02*
X87732900Y-96017734D01*
X89627300Y-73851900D02*
X87732900Y-75746300D01*
X95079040Y-101459040D02*
X105049300Y-111429300D01*
X101221900Y-73851900D02*
X89627300Y-73851900D01*
X105049300Y-111429300D02*
X129405700Y-111429300D01*
X103640000Y-76270000D02*
X101221900Y-73851900D01*
D23*
X109166600Y-96074400D02*
X107608700Y-94516500D01*
X139152700Y-103459700D02*
X131767400Y-96074400D01*
X143020000Y-104710000D02*
X141769700Y-104710000D01*
X91560300Y-83618100D02*
X91560300Y-83100000D01*
X141769700Y-104162900D02*
X141066500Y-103459700D01*
X96519600Y-84389600D02*
X92331800Y-84389600D01*
X131767400Y-96074400D02*
X109166600Y-96074400D01*
X107608700Y-94516500D02*
X107608700Y-92621300D01*
X101100000Y-88970000D02*
X96519600Y-84389600D01*
X141769700Y-104710000D02*
X141769700Y-104162900D01*
X107608700Y-92621300D02*
X108720000Y-91510000D01*
X141066500Y-103459700D02*
X139152700Y-103459700D01*
X92331800Y-84389600D02*
X91560300Y-83618100D01*
X90310000Y-83100000D02*
X91560300Y-83100000D01*
X107621100Y-78925100D02*
X107621100Y-78319000D01*
X133744800Y-93129200D02*
X117959200Y-93129200D01*
X104634900Y-103910000D02*
X104634900Y-101215200D01*
X148100000Y-104710000D02*
X145560000Y-104710000D01*
X104634900Y-101215200D02*
X90310000Y-86890300D01*
X108229000Y-77711100D02*
X112358900Y-77711100D01*
X90310000Y-85640000D02*
X90310000Y-86890300D01*
X144309700Y-104710000D02*
X144309700Y-103694100D01*
X144309700Y-103694100D02*
X133744800Y-93129200D01*
X145560000Y-104710000D02*
X144309700Y-104710000D01*
X109990000Y-92780000D02*
X108720000Y-94050000D01*
X116340000Y-91510000D02*
X115070000Y-92780000D01*
X115070000Y-92780000D02*
X109990000Y-92780000D01*
X117959200Y-93129200D02*
X116340000Y-91510000D01*
X103640000Y-81350000D02*
X105196200Y-81350000D01*
X105196200Y-81350000D02*
X107621100Y-78925100D01*
X112358900Y-77711100D02*
X113800000Y-76270000D01*
X107621100Y-78319000D02*
X108229000Y-77711100D01*
D22*
X106180000Y-76270000D02*
X107232200Y-75217800D01*
X107232200Y-75217800D02*
X119552700Y-75217800D01*
X173183100Y-78836900D02*
X173183100Y-97565700D01*
X152720000Y-118028800D02*
X152720000Y-122752800D01*
X173183100Y-97565700D02*
X152720000Y-118028800D01*
X174670000Y-77350000D02*
X173183100Y-78836900D01*
X171076900Y-79407500D02*
X171076900Y-98593800D01*
X150139400Y-120523800D02*
X150153100Y-120537500D01*
X176154700Y-76294700D02*
X174189700Y-76294700D01*
X171076800Y-98593800D02*
X150139400Y-119531200D01*
X171076900Y-98593800D02*
X171076800Y-98593800D01*
X177210000Y-77350000D02*
X176154700Y-76294700D01*
X150139400Y-119531200D02*
X150139400Y-120523800D01*
X174189700Y-76294700D02*
X171076900Y-79407500D01*
X111099200Y-101005800D02*
X106869100Y-96775700D01*
X121552500Y-101005800D02*
X111099200Y-101005800D01*
X125001300Y-101005800D02*
X127219900Y-98787200D01*
X106365700Y-96775700D02*
X103640000Y-94050000D01*
X121552500Y-101005800D02*
X125001300Y-101005800D01*
X106869100Y-96775700D02*
X106365700Y-96775700D01*
X120427300Y-97640000D02*
X127969900Y-97640000D01*
X104910000Y-93799100D02*
X104137000Y-93026100D01*
X106960100Y-96325400D02*
X104910000Y-94275300D01*
X110257600Y-99527300D02*
X107055700Y-96325400D01*
X118540000Y-99527300D02*
X110257600Y-99527300D01*
X107055700Y-96325400D02*
X106960100Y-96325400D01*
X102616100Y-93026100D02*
X101100000Y-91510000D01*
X104137000Y-93026100D02*
X102616100Y-93026100D01*
X104910000Y-94275300D02*
X104910000Y-93799100D01*
X118540000Y-99527300D02*
X120427300Y-97640000D01*
X127029800Y-95093200D02*
X127271500Y-94851500D01*
X114843200Y-95093200D02*
X127029800Y-95093200D01*
X127271500Y-94851500D02*
X134293100Y-94851500D01*
X134293100Y-94851500D02*
X134916900Y-95475300D01*
X113800000Y-94050000D02*
X114843200Y-95093200D01*
X133345900Y-95578100D02*
X133316700Y-95548900D01*
X112758900Y-95548900D02*
X111260000Y-94050000D01*
X133316700Y-95548900D02*
X112758900Y-95548900D01*
X112918400Y-96914600D02*
X129800300Y-96914600D01*
X109521400Y-97391400D02*
X112441600Y-97391400D01*
X106180000Y-94050000D02*
X109521400Y-97391400D01*
X112441600Y-97391400D02*
X112918400Y-96914600D01*
X148450300Y-106074600D02*
X149306200Y-105218700D01*
X144384700Y-107603600D02*
X132733800Y-119254500D01*
X146735400Y-106074600D02*
X148450300Y-106074600D01*
X149306200Y-105218700D02*
X149306200Y-104094100D01*
X132733800Y-119254500D02*
X132616300Y-119254500D01*
X144384700Y-107250000D02*
X144384700Y-107603600D01*
X149306200Y-104094100D02*
X148467300Y-103255200D01*
X145560000Y-107250000D02*
X144384700Y-107250000D01*
X145560000Y-107250000D02*
X146735400Y-106074600D01*
X100871300Y-90219100D02*
X100076000Y-91014400D01*
X100076000Y-91014400D02*
X100076000Y-91981600D01*
X139304700Y-108306200D02*
X130792300Y-116818600D01*
X102174400Y-84964400D02*
X102174400Y-89393100D01*
X102174400Y-89393100D02*
X101348400Y-90219100D01*
X105595400Y-97501000D02*
X106568600Y-97501000D01*
X100076000Y-91981600D02*
X105595400Y-97501000D01*
X101100000Y-83890000D02*
X102174400Y-84964400D01*
X101348400Y-90219100D02*
X100871300Y-90219100D01*
X139304700Y-107250000D02*
X139304700Y-108306200D01*
X140480000Y-107250000D02*
X139304700Y-107250000D01*
X122493200Y-110701300D02*
X127119800Y-106074700D01*
X127119800Y-106074700D02*
X133416800Y-106074700D01*
X135400000Y-107250000D02*
X134224700Y-107250000D01*
X134224700Y-106882600D02*
X134224700Y-107250000D01*
X133416800Y-106074700D02*
X134224700Y-106882600D01*
X130648700Y-108425300D02*
X130320000Y-108425300D01*
X130320000Y-107250000D02*
X130320000Y-108425300D01*
X125303000Y-117344900D02*
X131741600Y-110906300D01*
X131741600Y-109518200D02*
X130648700Y-108425300D01*
X131741600Y-110906300D02*
X131741600Y-109518200D01*
X132860000Y-110921500D02*
X123646800Y-120134700D01*
X123646800Y-120134700D02*
X123510000Y-120134700D01*
X132860000Y-107250000D02*
X132860000Y-110921500D01*
X123510000Y-124270000D02*
X123510000Y-120134700D01*
X89126500Y-82606300D02*
X89902800Y-81830000D01*
X137940000Y-106074700D02*
X138307400Y-106074700D01*
X89997900Y-84464400D02*
X89126500Y-83593000D01*
X137940000Y-108425300D02*
X137759400Y-108425300D01*
X137759400Y-108425300D02*
X126050000Y-120134700D01*
X100620000Y-81830000D02*
X101100000Y-81350000D01*
X138307400Y-106074700D02*
X139115300Y-105266800D01*
X137940000Y-107250000D02*
X137940000Y-108425300D01*
X106814400Y-101776700D02*
X91674600Y-86636900D01*
X139115300Y-104194200D02*
X136697800Y-101776700D01*
X89902800Y-81830000D02*
X100620000Y-81830000D01*
X136697800Y-101776700D02*
X106814400Y-101776700D01*
X90858600Y-84464400D02*
X89997900Y-84464400D01*
X89126500Y-83593000D02*
X89126500Y-82606300D01*
X91674600Y-85280400D02*
X90858600Y-84464400D01*
X91674600Y-86636900D02*
X91674600Y-85280400D01*
X137940000Y-107250000D02*
X137940000Y-106074700D01*
X126050000Y-124270000D02*
X126050000Y-120134700D01*
X139115300Y-105266800D02*
X139115300Y-104194200D01*
X141844700Y-107250000D02*
X141844700Y-107550700D01*
X143020000Y-107250000D02*
X141844700Y-107250000D01*
X141844700Y-107550700D02*
X129260700Y-120134700D01*
X129260700Y-120134700D02*
X128590000Y-120134700D01*
X128590000Y-124270000D02*
X128590000Y-120134700D01*
X104789200Y-87820800D02*
X159119200Y-87820800D01*
X134351600Y-120134700D02*
X146924700Y-107561600D01*
X131130000Y-124270000D02*
X131130000Y-120134700D01*
X159119200Y-87820800D02*
X164510000Y-82430000D01*
X131130000Y-120134700D02*
X134351600Y-120134700D01*
X146924700Y-107561600D02*
X146924700Y-107250000D01*
X148100000Y-107250000D02*
X146924700Y-107250000D01*
X103640000Y-88970000D02*
X104789200Y-87820800D01*
X107245600Y-90444400D02*
X106180000Y-91510000D01*
X117610000Y-91286400D02*
X116768000Y-90444400D01*
X144907500Y-98984100D02*
X147895600Y-101972200D01*
X146200800Y-109344200D02*
X133670000Y-121875000D01*
X133670000Y-121875000D02*
X133670000Y-124270000D01*
X118391800Y-92537300D02*
X117610000Y-91755500D01*
X148215800Y-101972200D02*
X149791100Y-103547500D01*
X116768000Y-90444400D02*
X107245600Y-90444400D01*
X144907500Y-92537300D02*
X118391800Y-92537300D01*
X149791100Y-103547500D02*
X149791100Y-107276100D01*
X147895600Y-101972200D02*
X148215800Y-101972200D01*
X149791100Y-107276100D02*
X147723000Y-109344200D01*
X147723000Y-109344200D02*
X146200800Y-109344200D01*
X117610000Y-91755500D02*
X117610000Y-91286400D01*
X144907500Y-92537300D02*
X144907500Y-98984100D01*
X146246300Y-97973900D02*
X148120800Y-96099400D01*
X137569400Y-120134700D02*
X150241400Y-107462700D01*
X137450800Y-120134700D02*
X137569400Y-120134700D01*
X150241400Y-103360800D02*
X148243400Y-101362800D01*
X147925100Y-101362800D02*
X146246300Y-99684000D01*
X146246300Y-99684000D02*
X146246300Y-97973900D01*
X150241400Y-107462700D02*
X150241400Y-103360800D01*
X136210000Y-120134700D02*
X137450800Y-120134700D01*
X148243400Y-101362800D02*
X147925100Y-101362800D01*
X136210000Y-124270000D02*
X136210000Y-120134700D01*
X134924000Y-102502000D02*
X126382400Y-102502000D01*
X137940000Y-104710000D02*
X136764700Y-104710000D01*
X150691700Y-103100300D02*
X146997200Y-99405800D01*
X138750000Y-119670600D02*
X150691700Y-107728900D01*
X150691700Y-107728900D02*
X150691700Y-103100300D01*
X138750000Y-124270000D02*
X138750000Y-119670600D01*
X136764700Y-104710000D02*
X136764700Y-104342700D01*
X136764700Y-104342700D02*
X134924000Y-102502000D01*
X151178100Y-97761800D02*
X151178100Y-110246600D01*
X144926300Y-91510000D02*
X151178100Y-97761800D01*
X141290000Y-124270000D02*
X141290000Y-120134700D01*
X151178100Y-110246600D02*
X141290000Y-120134700D01*
X118880000Y-91510000D02*
X144926300Y-91510000D01*
X156004500Y-107960200D02*
X158593700Y-107960200D01*
X143830000Y-120134700D02*
X156004500Y-107960200D01*
X143830000Y-124270000D02*
X143830000Y-120134700D01*
X173167100Y-75641800D02*
X173167100Y-71392300D01*
X159333700Y-89995600D02*
X159333700Y-108246000D01*
X170626500Y-78182400D02*
X173167100Y-75641800D01*
X173167100Y-71392300D02*
X173000200Y-71225400D01*
X159333700Y-89995600D02*
X159332100Y-89994000D01*
X170626500Y-85483600D02*
X170626500Y-78182400D01*
X159333700Y-89995600D02*
X166114500Y-89995600D01*
X168094600Y-71225400D02*
X167050000Y-72270000D01*
X159332100Y-89994000D02*
X105156000Y-89994000D01*
X146370000Y-124270000D02*
X146370000Y-120134700D01*
X166114500Y-89995600D02*
X170626500Y-85483600D01*
X105156000Y-89994000D02*
X103640000Y-91510000D01*
X173000200Y-71225400D02*
X168094600Y-71225400D01*
X157340700Y-110239000D02*
X156265700Y-110239000D01*
X159333700Y-108246000D02*
X157340700Y-110239000D01*
X156265700Y-110239000D02*
X146370000Y-120134700D01*
X157484800Y-110964300D02*
X148910000Y-119539100D01*
X148910000Y-119539100D02*
X148910000Y-120134700D01*
X148910000Y-124270000D02*
X148910000Y-120134700D01*
X151167800Y-120134700D02*
X151450000Y-120134700D01*
X150864700Y-119831600D02*
X151167800Y-120134700D01*
X151450000Y-124270000D02*
X151450000Y-120134700D01*
X157773100Y-77493000D02*
X157773100Y-81325300D01*
X175091000Y-68681100D02*
X166585000Y-68681100D01*
X173633500Y-80926500D02*
X174670000Y-79890000D01*
X173633500Y-97817500D02*
X173633500Y-80926500D01*
X177445800Y-73540000D02*
X176971500Y-73540000D01*
X176173400Y-78386600D02*
X177639700Y-78386600D01*
X177639700Y-78386600D02*
X178260800Y-77765500D01*
X157773100Y-81325300D02*
X157773000Y-81325300D01*
X156530000Y-120134700D02*
X155253100Y-118857800D01*
X155253100Y-118857800D02*
X155253100Y-116197900D01*
X174670000Y-79890000D02*
X176173400Y-78386600D01*
X166585000Y-68681100D02*
X157773100Y-77493000D01*
X155253100Y-116197900D02*
X173633500Y-97817500D01*
X175706600Y-69296700D02*
X175091000Y-68681100D01*
X156530000Y-124270000D02*
X156530000Y-120134700D01*
X176971500Y-73540000D02*
X175706600Y-72275100D01*
X178260800Y-74355000D02*
X177445800Y-73540000D01*
X178260800Y-77765500D02*
X178260800Y-74355000D01*
X175706600Y-72275100D02*
X175706600Y-69296700D01*
X161610000Y-120134700D02*
X158583300Y-117108000D01*
X158583300Y-117108000D02*
X156005900Y-117108000D01*
X161610000Y-124270000D02*
X161610000Y-120134700D01*
X106784000Y-88954900D02*
X116324900Y-88954900D01*
X116324900Y-88954900D02*
X116340000Y-88970000D01*
X94512500Y-82612800D02*
X94025300Y-83100000D01*
X92850000Y-83100000D02*
X94025300Y-83100000D01*
X116340000Y-81350000D02*
X115077200Y-82612800D01*
X115077200Y-82612800D02*
X94512500Y-82612800D01*
X92850000Y-75480000D02*
X94025300Y-75480000D01*
X94025300Y-75480000D02*
X97355300Y-78810000D01*
X97355300Y-78810000D02*
X101100000Y-78810000D01*
X164527100Y-88970000D02*
X168160700Y-85336400D01*
X118880000Y-88970000D02*
X164527100Y-88970000D01*
X168778700Y-81393400D02*
X168778700Y-76657800D01*
X168160700Y-82011400D02*
X168778700Y-81393400D01*
X168778700Y-76657800D02*
X172130000Y-73306500D01*
X168160700Y-85336400D02*
X168160700Y-82011400D01*
X172130000Y-72270000D02*
X172130000Y-73306500D01*
X118430000Y-123000000D02*
X118430000Y-118864700D01*
X117160000Y-118864700D02*
X118430000Y-118864700D01*
X115890000Y-120134700D02*
X117160000Y-118864700D01*
X115890000Y-124270000D02*
X115890000Y-120134700D01*
M02*
