G04 #@! TF.GenerationSoftware,KiCad,Pcbnew,(6.0.5)*
G04 #@! TF.CreationDate,2022-10-25T10:43:50-03:00*
G04 #@! TF.ProjectId,MSX USB Drive,4d535820-5553-4422-9044-726976652e6b,rev?*
G04 #@! TF.SameCoordinates,Original*
G04 #@! TF.FileFunction,Copper,L2,Bot*
G04 #@! TF.FilePolarity,Positive*
%FSLAX46Y46*%
G04 Gerber Fmt 4.6, Leading zero omitted, Abs format (unit mm)*
G04 Created by KiCad (PCBNEW (6.0.5)) date 2022-10-25 10:43:50*
%MOMM*%
%LPD*%
G01*
G04 APERTURE LIST*
G04 Aperture macros list*
%AMRoundRect*
0 Rectangle with rounded corners*
0 $1 Rounding radius*
0 $2 $3 $4 $5 $6 $7 $8 $9 X,Y pos of 4 corners*
0 Add a 4 corners polygon primitive as box body*
4,1,4,$2,$3,$4,$5,$6,$7,$8,$9,$2,$3,0*
0 Add four circle primitives for the rounded corners*
1,1,$1+$1,$2,$3*
1,1,$1+$1,$4,$5*
1,1,$1+$1,$6,$7*
1,1,$1+$1,$8,$9*
0 Add four rect primitives between the rounded corners*
20,1,$1+$1,$2,$3,$4,$5,0*
20,1,$1+$1,$4,$5,$6,$7,0*
20,1,$1+$1,$6,$7,$8,$9,0*
20,1,$1+$1,$8,$9,$2,$3,0*%
G04 Aperture macros list end*
G04 #@! TA.AperFunction,SMDPad,CuDef*
%ADD10R,1.270000X7.620000*%
G04 #@! TD*
G04 #@! TA.AperFunction,ComponentPad*
%ADD11R,1.600000X1.600000*%
G04 #@! TD*
G04 #@! TA.AperFunction,ComponentPad*
%ADD12C,1.600000*%
G04 #@! TD*
G04 #@! TA.AperFunction,ComponentPad*
%ADD13R,1.700000X1.700000*%
G04 #@! TD*
G04 #@! TA.AperFunction,ComponentPad*
%ADD14O,1.700000X1.700000*%
G04 #@! TD*
G04 #@! TA.AperFunction,ComponentPad*
%ADD15C,1.308000*%
G04 #@! TD*
G04 #@! TA.AperFunction,ComponentPad*
%ADD16C,2.100000*%
G04 #@! TD*
G04 #@! TA.AperFunction,ComponentPad*
%ADD17R,1.422400X1.422400*%
G04 #@! TD*
G04 #@! TA.AperFunction,ComponentPad*
%ADD18C,1.422400*%
G04 #@! TD*
G04 #@! TA.AperFunction,ComponentPad*
%ADD19R,1.397000X1.397000*%
G04 #@! TD*
G04 #@! TA.AperFunction,ComponentPad*
%ADD20C,1.397000*%
G04 #@! TD*
G04 #@! TA.AperFunction,SMDPad,CuDef*
%ADD21RoundRect,0.250000X0.337500X0.475000X-0.337500X0.475000X-0.337500X-0.475000X0.337500X-0.475000X0*%
G04 #@! TD*
G04 #@! TA.AperFunction,SMDPad,CuDef*
%ADD22RoundRect,0.250000X-0.350000X-0.450000X0.350000X-0.450000X0.350000X0.450000X-0.350000X0.450000X0*%
G04 #@! TD*
G04 #@! TA.AperFunction,ViaPad*
%ADD23C,0.800000*%
G04 #@! TD*
G04 #@! TA.AperFunction,Conductor*
%ADD24C,0.250000*%
G04 #@! TD*
G04 #@! TA.AperFunction,Conductor*
%ADD25C,0.400000*%
G04 #@! TD*
G04 APERTURE END LIST*
D10*
X113350000Y-124270000D03*
X115890000Y-124270000D03*
X171770000Y-124270000D03*
X169230000Y-124270000D03*
X159070000Y-124270000D03*
X161610000Y-124270000D03*
X153990000Y-124270000D03*
X166690000Y-124270000D03*
X164150000Y-124270000D03*
X156530000Y-124270000D03*
X138750000Y-124270000D03*
X136210000Y-124270000D03*
X133670000Y-124270000D03*
X146370000Y-124270000D03*
X151450000Y-124270000D03*
X148910000Y-124270000D03*
X143830000Y-124270000D03*
X141290000Y-124270000D03*
X131130000Y-124270000D03*
X128590000Y-124270000D03*
X126050000Y-124270000D03*
X123510000Y-124270000D03*
X118430000Y-124270000D03*
X120970000Y-124270000D03*
X110810000Y-124270000D03*
D11*
X102134900Y-103910000D03*
D12*
X104634900Y-103910000D03*
D13*
X130320000Y-107250000D03*
D14*
X130320000Y-104710000D03*
X132860000Y-107250000D03*
X132860000Y-104710000D03*
X135400000Y-107250000D03*
X135400000Y-104710000D03*
X137940000Y-107250000D03*
X137940000Y-104710000D03*
X140480000Y-107250000D03*
X140480000Y-104710000D03*
X143020000Y-107250000D03*
X143020000Y-104710000D03*
X145560000Y-107250000D03*
X145560000Y-104710000D03*
X148100000Y-107250000D03*
X148100000Y-104710000D03*
D15*
X98650000Y-66180000D03*
X94650000Y-66180000D03*
X96650000Y-66180000D03*
D16*
X100800000Y-66180000D03*
X92500000Y-66180000D03*
D17*
X172130000Y-72270000D03*
D18*
X169590000Y-69730000D03*
X169590000Y-72270000D03*
X167050000Y-69730000D03*
X164510000Y-72270000D03*
X167050000Y-72270000D03*
X164510000Y-74810000D03*
X167050000Y-74810000D03*
X164510000Y-77350000D03*
X167050000Y-77350000D03*
X164510000Y-79890000D03*
X167050000Y-79890000D03*
X164510000Y-82430000D03*
X167050000Y-84970000D03*
X167050000Y-82430000D03*
X169590000Y-84970000D03*
X169590000Y-82430000D03*
X172130000Y-84970000D03*
X172130000Y-82430000D03*
X174670000Y-84970000D03*
X177210000Y-82430000D03*
X174670000Y-82430000D03*
X177210000Y-79890000D03*
X174670000Y-79890000D03*
X177210000Y-77350000D03*
X174670000Y-77350000D03*
X177210000Y-74810000D03*
X174670000Y-74810000D03*
X177210000Y-72270000D03*
X174670000Y-69730000D03*
X174670000Y-72270000D03*
X172130000Y-69730000D03*
D19*
X111260000Y-78810000D03*
D20*
X108720000Y-76270000D03*
X108720000Y-78810000D03*
X106180000Y-76270000D03*
X106180000Y-78810000D03*
X103640000Y-76270000D03*
X101100000Y-78810000D03*
X103640000Y-78810000D03*
X101100000Y-81350000D03*
X103640000Y-81350000D03*
X101100000Y-83890000D03*
X103640000Y-83890000D03*
X101100000Y-86430000D03*
X103640000Y-86430000D03*
X101100000Y-88970000D03*
X103640000Y-88970000D03*
X101100000Y-91510000D03*
X103640000Y-94050000D03*
X103640000Y-91510000D03*
X106180000Y-94050000D03*
X106180000Y-91510000D03*
X108720000Y-94050000D03*
X108720000Y-91510000D03*
X111260000Y-94050000D03*
X111260000Y-91510000D03*
X113800000Y-94050000D03*
X113800000Y-91510000D03*
X116340000Y-94050000D03*
X118880000Y-91510000D03*
X116340000Y-91510000D03*
X118880000Y-88970000D03*
X116340000Y-88970000D03*
X118880000Y-86430000D03*
X116340000Y-86430000D03*
X118880000Y-83890000D03*
X116340000Y-83890000D03*
X118880000Y-81350000D03*
X116340000Y-81350000D03*
X118880000Y-78810000D03*
X116340000Y-76270000D03*
X116340000Y-78810000D03*
X113800000Y-76270000D03*
X113800000Y-78810000D03*
X111260000Y-76270000D03*
D13*
X92850000Y-85640000D03*
D14*
X90310000Y-85640000D03*
X92850000Y-83100000D03*
X90310000Y-83100000D03*
X92850000Y-80560000D03*
X90310000Y-80560000D03*
X92850000Y-78020000D03*
X90310000Y-78020000D03*
X92850000Y-75480000D03*
X90310000Y-75480000D03*
D21*
X111147500Y-83250000D03*
X109072500Y-83250000D03*
X111147500Y-86950000D03*
X109072500Y-86950000D03*
D22*
X105410000Y-67470000D03*
X107410000Y-67470000D03*
D21*
X171930000Y-77400000D03*
X169855000Y-77400000D03*
D23*
X119552700Y-75217800D03*
X152720000Y-122752800D03*
X150153100Y-120537500D03*
X127219900Y-98787200D03*
X121552500Y-101005800D03*
X127969900Y-97640000D03*
X118540000Y-99527300D03*
X134916900Y-95475300D03*
X133345900Y-95578100D03*
X112441600Y-97391400D03*
X129800300Y-96914600D03*
X132616300Y-119254500D03*
X148467300Y-103255200D03*
X130792300Y-116818600D03*
X106568600Y-97501000D03*
X122493200Y-110701300D03*
X125303000Y-117344900D03*
X144907500Y-92537300D03*
X137450800Y-120134700D03*
X148120800Y-96099400D03*
X126382400Y-102502000D03*
X146997200Y-99405800D03*
X158593700Y-107960200D03*
X157484800Y-110964300D03*
X150864700Y-119831600D03*
X157773000Y-81325300D03*
X131016300Y-109818700D03*
X156005900Y-117108000D03*
X106784000Y-88954900D03*
D24*
X154021400Y-84001800D02*
X128336700Y-84001800D01*
X154347460Y-83675740D02*
X154021400Y-84001800D01*
X154347460Y-78968040D02*
X154347460Y-83675740D01*
X166079500Y-67236000D02*
X154347460Y-78968040D01*
X174323700Y-67236000D02*
X166079500Y-67236000D01*
X179599000Y-87202700D02*
X179599000Y-72511300D01*
X128336700Y-84001800D02*
X119552700Y-75217800D01*
X179599000Y-72511300D02*
X174323700Y-67236000D01*
X159319000Y-119885700D02*
X159319000Y-107482700D01*
X159070000Y-120134700D02*
X159319000Y-119885700D01*
X159319000Y-107482700D02*
X179599000Y-87202700D01*
X159070000Y-124270000D02*
X159070000Y-120134700D01*
X154796980Y-79158420D02*
X154796980Y-83886720D01*
X166222200Y-67733200D02*
X154796980Y-79158420D01*
X154796980Y-83886720D02*
X154206900Y-84476800D01*
X174179900Y-67733200D02*
X166222200Y-67733200D01*
X122006800Y-84476800D02*
X118880000Y-81350000D01*
X177210000Y-70763300D02*
X174179900Y-67733200D01*
X154206900Y-84476800D02*
X122006800Y-84476800D01*
X177210000Y-72270000D02*
X177210000Y-70763300D01*
D25*
X108720000Y-78810000D02*
X108720000Y-77867200D01*
X102134900Y-103910000D02*
X102134900Y-105110300D01*
X118880000Y-83890000D02*
X117725100Y-82735100D01*
X171018400Y-76238100D02*
X169263300Y-76238100D01*
X117725100Y-82735100D02*
X117725100Y-79748500D01*
X113350000Y-120427000D02*
X113378700Y-120398300D01*
X111147500Y-83250000D02*
X111147500Y-81237500D01*
X108720000Y-90240000D02*
X102370000Y-90240000D01*
X167522400Y-81001600D02*
X166906400Y-81001600D01*
X168173700Y-80350300D02*
X167522400Y-81001600D01*
X111147500Y-86950000D02*
X111147500Y-87812500D01*
X111147500Y-86950000D02*
X111147500Y-83250000D01*
X116748500Y-75111400D02*
X110786700Y-75111400D01*
X171018400Y-70841600D02*
X172130000Y-69730000D01*
X117610000Y-75972900D02*
X116748500Y-75111400D01*
X164988400Y-83541600D02*
X164920600Y-83541600D01*
X113378700Y-120059700D02*
X113378700Y-116354100D01*
X165938400Y-81969600D02*
X165938400Y-82591600D01*
X115890000Y-120059700D02*
X113378700Y-120059700D01*
X109990000Y-76597200D02*
X108738400Y-77848800D01*
X168173700Y-77327700D02*
X168173700Y-80350300D01*
X115890000Y-124270000D02*
X115890000Y-120059700D01*
X102370000Y-102474600D02*
X102134900Y-102709700D01*
X164920600Y-83541600D02*
X144270300Y-104191900D01*
X113350000Y-124270000D02*
X113350000Y-120427000D01*
X117610000Y-79633400D02*
X117610000Y-75972900D01*
X143020000Y-104710000D02*
X144270300Y-104710000D01*
X102134900Y-103910000D02*
X102134900Y-102709700D01*
X169263300Y-76238100D02*
X168173700Y-77327700D01*
X102370000Y-90240000D02*
X101100000Y-88970000D01*
X109990000Y-75908100D02*
X109990000Y-76597200D01*
X102370000Y-90240000D02*
X102370000Y-102474600D01*
X113378700Y-120398300D02*
X113378700Y-120059700D01*
X171018400Y-76488400D02*
X171018400Y-76238100D01*
X111147500Y-87812500D02*
X108720000Y-90240000D01*
X111147500Y-81237500D02*
X108720000Y-78810000D01*
X166906400Y-81001600D02*
X165938400Y-81969600D01*
X113378700Y-116354100D02*
X102134900Y-105110300D01*
X144270300Y-104191900D02*
X144270300Y-104710000D01*
X108738400Y-77848800D02*
X107450000Y-76560500D01*
X107450000Y-69510000D02*
X105410000Y-67470000D01*
X165938400Y-82591600D02*
X164988400Y-83541600D01*
X107450000Y-76560500D02*
X107450000Y-69510000D01*
X108720000Y-90240000D02*
X108720000Y-91510000D01*
X171930000Y-77400000D02*
X171018400Y-76488400D01*
X108720000Y-77867200D02*
X108738400Y-77848800D01*
X171018400Y-76238100D02*
X171018400Y-70841600D01*
X117725100Y-79748500D02*
X117610000Y-79633400D01*
X110786700Y-75111400D02*
X109990000Y-75908100D01*
X169466500Y-77788500D02*
X169855000Y-77400000D01*
X96650000Y-66180000D02*
X96650000Y-76730200D01*
X90310000Y-75480000D02*
X91560300Y-75480000D01*
X120970000Y-120059700D02*
X118430000Y-120059700D01*
X169074100Y-80950100D02*
X169074100Y-79029800D01*
X99999800Y-80080000D02*
X102370000Y-80080000D01*
X92312200Y-76750000D02*
X91580000Y-77482200D01*
X96650000Y-76730200D02*
X99999800Y-80080000D01*
X102370000Y-80080000D02*
X103640000Y-81350000D01*
X104634900Y-98135100D02*
X104634900Y-103910000D01*
X168473800Y-83853800D02*
X168473800Y-81550400D01*
X118430000Y-124270000D02*
X118430000Y-120059700D01*
X118430000Y-117705100D02*
X118430000Y-120059700D01*
X169340200Y-84720100D02*
X169590000Y-84970000D01*
X109072500Y-83250000D02*
X105540000Y-83250000D01*
X91580000Y-77482200D02*
X91580000Y-83637800D01*
X104634900Y-103910000D02*
X118430000Y-117705100D01*
X96630200Y-76750000D02*
X92312200Y-76750000D01*
X105540000Y-83250000D02*
X103640000Y-81350000D01*
X109072500Y-83250000D02*
X109072500Y-86950000D01*
X168473800Y-81550400D02*
X169074100Y-80950100D01*
X96650000Y-76730200D02*
X96630200Y-76750000D01*
X108720000Y-94050000D02*
X104634900Y-98135100D01*
X149350300Y-104710000D02*
X169340200Y-84720100D01*
X169466500Y-78637400D02*
X169466500Y-77788500D01*
X92312200Y-76750000D02*
X91560300Y-75998100D01*
X120970000Y-124270000D02*
X120970000Y-120059700D01*
X90310000Y-85640000D02*
X90310000Y-84389700D01*
X90828100Y-84389700D02*
X90310000Y-84389700D01*
X91560300Y-75998100D02*
X91560300Y-75480000D01*
X148100000Y-104710000D02*
X149350300Y-104710000D01*
X169074100Y-79029800D02*
X169466500Y-78637400D01*
X169340200Y-84720100D02*
X168473800Y-83853800D01*
X91580000Y-83637800D02*
X90828100Y-84389700D01*
D24*
X129511900Y-105885300D02*
X129144700Y-106252500D01*
X130320000Y-103019000D02*
X126485700Y-99184700D01*
X115308700Y-86872200D02*
X115308700Y-77301300D01*
X129144700Y-106252500D02*
X129144700Y-108234800D01*
X117856100Y-89406800D02*
X117856100Y-89027900D01*
X155784000Y-111158400D02*
X155784000Y-108472900D01*
X155784000Y-108472900D02*
X178248100Y-86008800D01*
X126485700Y-97659800D02*
X119070500Y-90244600D01*
X178248100Y-81987700D02*
X177187000Y-80926600D01*
X176719300Y-80926600D02*
X176134800Y-80342100D01*
X176134800Y-80342100D02*
X176134800Y-73734800D01*
X115308700Y-77301300D02*
X116340000Y-76270000D01*
X176134800Y-73734800D02*
X174670000Y-72270000D01*
X117856100Y-89027900D02*
X116416500Y-87588300D01*
X126485700Y-99184700D02*
X126485700Y-97659800D01*
X133696200Y-111158400D02*
X155784000Y-111158400D01*
X119070500Y-90244600D02*
X118693900Y-90244600D01*
X156530000Y-124270000D02*
X156530000Y-120134700D01*
X118693900Y-90244600D02*
X117856100Y-89406800D01*
X116024800Y-87588300D02*
X115308700Y-86872200D01*
X129960200Y-109050300D02*
X131588100Y-109050300D01*
X116416500Y-87588300D02*
X116024800Y-87588300D01*
X156731200Y-119933500D02*
X156731200Y-112105600D01*
X130320000Y-104710000D02*
X130320000Y-105885300D01*
X130320000Y-105885300D02*
X129511900Y-105885300D01*
X156530000Y-120134700D02*
X156731200Y-119933500D01*
X177187000Y-80926600D02*
X176719300Y-80926600D01*
X178248100Y-86008800D02*
X178248100Y-81987700D01*
X156731200Y-112105600D02*
X155784000Y-111158400D01*
X129144700Y-108234800D02*
X129960200Y-109050300D01*
X130320000Y-104710000D02*
X130320000Y-103019000D01*
X131588100Y-109050300D02*
X133696200Y-111158400D01*
X152720000Y-122752800D02*
X151450000Y-124022800D01*
X151450000Y-124022800D02*
X151450000Y-124270000D01*
X148910000Y-124270000D02*
X148910000Y-120134700D01*
X149750300Y-120134700D02*
X148910000Y-120134700D01*
X150153100Y-120537500D02*
X149750300Y-120134700D01*
X156147100Y-80632900D02*
X156147100Y-84481600D01*
X164510000Y-72270000D02*
X156147100Y-80632900D01*
X138206400Y-86323900D02*
X127219900Y-97310400D01*
X121552500Y-101005800D02*
X121552500Y-102688800D01*
X146370000Y-124270000D02*
X146370000Y-120134700D01*
X154304800Y-86323900D02*
X138206400Y-86323900D01*
X127219900Y-97310400D02*
X127219900Y-98787200D01*
X121552500Y-102688800D02*
X132299100Y-113435400D01*
X139670700Y-113435400D02*
X146370000Y-120134700D01*
X132299100Y-113435400D02*
X139670700Y-113435400D01*
X156147100Y-84481600D02*
X154304800Y-86323900D01*
X165546600Y-72753900D02*
X164570700Y-73729800D01*
X156597400Y-84668200D02*
X154371100Y-86894500D01*
X137581000Y-113885700D02*
X143830000Y-120134700D01*
X143830000Y-124270000D02*
X143830000Y-120134700D01*
X164570700Y-73729800D02*
X163705900Y-73729800D01*
X138715300Y-86894500D02*
X138715300Y-86894600D01*
X167050000Y-69730000D02*
X165546600Y-71233400D01*
X165546600Y-71233400D02*
X165546600Y-72753900D01*
X154371100Y-86894500D02*
X138715300Y-86894500D01*
X163705900Y-73729800D02*
X156597400Y-80838300D01*
X132112500Y-113885700D02*
X137581000Y-113885700D01*
X118540000Y-100313200D02*
X132112500Y-113885700D01*
X138715300Y-86894600D02*
X127969900Y-97640000D01*
X156597400Y-80838300D02*
X156597400Y-84668200D01*
X118540000Y-99527300D02*
X118540000Y-100313200D01*
X113800000Y-96210100D02*
X136841400Y-119251500D01*
X113800000Y-94050000D02*
X113800000Y-96210100D01*
X136299300Y-96857700D02*
X134916900Y-95475300D01*
X137866800Y-119251500D02*
X138750000Y-120134700D01*
X160061200Y-85188300D02*
X148391800Y-96857700D01*
X164510000Y-79890000D02*
X160061200Y-84338800D01*
X136841400Y-119251500D02*
X137866800Y-119251500D01*
X160061200Y-84338800D02*
X160061200Y-85188300D01*
X148391800Y-96857700D02*
X136299300Y-96857700D01*
X138750000Y-124270000D02*
X138750000Y-120134700D01*
X158935600Y-84992500D02*
X158935600Y-82924400D01*
X158935600Y-82924400D02*
X164510000Y-77350000D01*
X136210000Y-124270000D02*
X136210000Y-120134700D01*
X111260000Y-95096400D02*
X136210000Y-120046400D01*
X135652800Y-93271200D02*
X150656900Y-93271200D01*
X133345900Y-95578100D02*
X135652800Y-93271200D01*
X150656900Y-93271200D02*
X158935600Y-84992500D01*
X111260000Y-94050000D02*
X111260000Y-95096400D01*
X136210000Y-120046400D02*
X136210000Y-120134700D01*
X112441600Y-97391400D02*
X133670000Y-118619800D01*
X139199300Y-87515500D02*
X139199300Y-87515600D01*
X157047700Y-84854800D02*
X154387000Y-87515500D01*
X157047700Y-81024900D02*
X157047700Y-84854800D01*
X164510000Y-74810000D02*
X163262600Y-74810000D01*
X154387000Y-87515500D02*
X139199300Y-87515500D01*
X133670000Y-118619800D02*
X133670000Y-124270000D01*
X139199300Y-87515600D02*
X129800300Y-96914600D01*
X163262600Y-74810000D02*
X157047700Y-81024900D01*
X131130000Y-124270000D02*
X131130000Y-120134700D01*
X148764800Y-103255200D02*
X148467300Y-103255200D01*
X167050000Y-84970000D02*
X148764800Y-103255200D01*
X131736100Y-120134700D02*
X131130000Y-120134700D01*
X132616300Y-119254500D02*
X131736100Y-120134700D01*
X140480000Y-107250000D02*
X141655300Y-107250000D01*
X110341500Y-97501000D02*
X130225700Y-117385200D01*
X169590000Y-82430000D02*
X170631700Y-83471700D01*
X106568600Y-97501000D02*
X110341500Y-97501000D01*
X170631700Y-87093900D02*
X148820700Y-108904900D01*
X142942900Y-108904900D02*
X141655300Y-107617300D01*
X130225700Y-117385200D02*
X130792300Y-116818600D01*
X141655300Y-107617300D02*
X141655300Y-107250000D01*
X170631700Y-83471700D02*
X170631700Y-87093900D01*
X148820700Y-108904900D02*
X142942900Y-108904900D01*
X128590000Y-119020900D02*
X130225700Y-117385200D01*
X128590000Y-124270000D02*
X128590000Y-119020900D01*
X126050000Y-114258100D02*
X122493200Y-110701300D01*
X126050000Y-120134700D02*
X126050000Y-114258100D01*
X173173000Y-85826400D02*
X173173000Y-83473000D01*
X135400000Y-107250000D02*
X136575300Y-107250000D01*
X149193800Y-109805600D02*
X173173000Y-85826400D01*
X173173000Y-83473000D02*
X172130000Y-82430000D01*
X138763600Y-109805600D02*
X149193800Y-109805600D01*
X136575300Y-107617300D02*
X138763600Y-109805600D01*
X136575300Y-107250000D02*
X136575300Y-107617300D01*
X126050000Y-124270000D02*
X126050000Y-120134700D01*
X177210000Y-83918300D02*
X150420300Y-110708000D01*
X150420300Y-110708000D02*
X134644400Y-110708000D01*
X123510000Y-124270000D02*
X123510000Y-119137900D01*
X123510000Y-119137900D02*
X125303000Y-117344900D01*
X131495300Y-107558900D02*
X131495300Y-107250000D01*
X134644400Y-110708000D02*
X131495300Y-107558900D01*
X177210000Y-82430000D02*
X177210000Y-83918300D01*
X130320000Y-107250000D02*
X131495300Y-107250000D01*
X134035300Y-107250000D02*
X134035300Y-107617300D01*
X149384100Y-110255900D02*
X174670000Y-84970000D01*
X132860000Y-107250000D02*
X134035300Y-107250000D01*
X136673900Y-110255900D02*
X149384100Y-110255900D01*
X134035300Y-107617300D02*
X136673900Y-110255900D01*
X139115300Y-107617300D02*
X140853300Y-109355300D01*
X140853300Y-109355300D02*
X149007200Y-109355300D01*
X149007200Y-109355300D02*
X172130000Y-86232500D01*
X137940000Y-107250000D02*
X139115300Y-107250000D01*
X172130000Y-86232500D02*
X172130000Y-84970000D01*
X139115300Y-107250000D02*
X139115300Y-107617300D01*
X149301100Y-107762000D02*
X148637800Y-108425300D01*
X148637800Y-108425300D02*
X145003200Y-108425300D01*
X148634900Y-106057100D02*
X149301100Y-106723300D01*
X144195300Y-107617400D02*
X144195300Y-107250000D01*
X167050000Y-82430000D02*
X146894500Y-102585500D01*
X145003200Y-108425300D02*
X144195300Y-107617400D01*
X146894500Y-102585500D02*
X146894500Y-105173100D01*
X147778500Y-106057100D02*
X148634900Y-106057100D01*
X149301100Y-106723300D02*
X149301100Y-107762000D01*
X143020000Y-107250000D02*
X144195300Y-107250000D01*
X146894500Y-105173100D02*
X147778500Y-106057100D01*
X164510000Y-82430000D02*
X164510000Y-82945000D01*
X141844600Y-104205500D02*
X141844600Y-105203700D01*
X146116800Y-106074700D02*
X146924700Y-106882600D01*
X141844600Y-105203700D02*
X142715600Y-106074700D01*
X146924700Y-106882600D02*
X146924700Y-107250000D01*
X148100000Y-107250000D02*
X146924700Y-107250000D01*
X164510000Y-82945000D02*
X144360600Y-103094400D01*
X144360600Y-103094400D02*
X142955700Y-103094400D01*
X142715600Y-106074700D02*
X146116800Y-106074700D01*
X142955700Y-103094400D02*
X141844600Y-104205500D01*
X158485200Y-81889500D02*
X164454100Y-75920600D01*
X164454100Y-75920600D02*
X165939400Y-75920600D01*
X158485200Y-84742700D02*
X158485200Y-81889500D01*
X144907500Y-92537300D02*
X150690600Y-92537300D01*
X150690600Y-92537300D02*
X158485200Y-84742700D01*
X165939400Y-75920600D02*
X167050000Y-74810000D01*
X137087700Y-120134700D02*
X137450800Y-120134700D01*
X111260000Y-91510000D02*
X112586100Y-92836100D01*
X159610900Y-84995900D02*
X159610900Y-83316800D01*
X159610900Y-83316800D02*
X164307700Y-78620000D01*
X164307700Y-78620000D02*
X165780000Y-78620000D01*
X112586100Y-95633100D02*
X137087700Y-120134700D01*
X165780000Y-78620000D02*
X167050000Y-77350000D01*
X112586100Y-92836100D02*
X112586100Y-95633100D01*
X148507400Y-96099400D02*
X159610900Y-84995900D01*
X148120800Y-96099400D02*
X148507400Y-96099400D01*
X139115300Y-104319500D02*
X144029000Y-99405800D01*
X146997200Y-99405800D02*
X160511500Y-85891500D01*
X139115300Y-104710000D02*
X139115300Y-104319500D01*
X160511500Y-84940200D02*
X164291700Y-81160000D01*
X115070000Y-92780000D02*
X116660400Y-92780000D01*
X116660400Y-92780000D02*
X126382400Y-102502000D01*
X160511500Y-85891500D02*
X160511500Y-84940200D01*
X113800000Y-91510000D02*
X115070000Y-92780000D01*
X165780000Y-81160000D02*
X167050000Y-79890000D01*
X144029000Y-99405800D02*
X146997200Y-99405800D01*
X137940000Y-104710000D02*
X139115300Y-104710000D01*
X164291700Y-81160000D02*
X165780000Y-81160000D01*
X179148700Y-87016100D02*
X179148700Y-76748700D01*
X179148700Y-76748700D02*
X177210000Y-74810000D01*
X158593700Y-107960200D02*
X158593700Y-107571100D01*
X158593700Y-107571100D02*
X179148700Y-87016100D01*
X177210000Y-79890000D02*
X178698400Y-81378400D01*
X178698400Y-81378400D02*
X178698400Y-86829500D01*
X178698400Y-86829500D02*
X157484900Y-108043000D01*
X157484900Y-110964300D02*
X157484800Y-110964300D01*
X157484900Y-108043000D02*
X157484900Y-110964300D01*
X116340000Y-94050000D02*
X126930900Y-104640900D01*
X132260600Y-112760000D02*
X143793100Y-112760000D01*
X126930900Y-107430300D02*
X132260600Y-112760000D01*
X126930900Y-104640900D02*
X126930900Y-107430300D01*
X143793100Y-112760000D02*
X150864700Y-119831600D01*
X132860000Y-104710000D02*
X132860000Y-103534700D01*
X132860000Y-103534700D02*
X132573500Y-103248200D01*
X153193800Y-89345600D02*
X157773000Y-84766400D01*
X138486500Y-89345600D02*
X153193800Y-89345600D01*
X132573500Y-103248200D02*
X132573500Y-95258600D01*
X132573500Y-95258600D02*
X138486500Y-89345600D01*
X157773000Y-84766400D02*
X157773000Y-81325300D01*
X131016300Y-109818700D02*
X132831800Y-111634200D01*
X150532100Y-111634200D02*
X156005900Y-117108000D01*
X132831800Y-111634200D02*
X150532100Y-111634200D01*
X92850000Y-85640000D02*
X94025300Y-85640000D01*
X105605200Y-87776100D02*
X106784000Y-88954900D01*
X94025300Y-85640000D02*
X96161400Y-87776100D01*
X96161400Y-87776100D02*
X105605200Y-87776100D01*
X94025300Y-80560000D02*
X99895300Y-86430000D01*
X92850000Y-80560000D02*
X94025300Y-80560000D01*
X99895300Y-86430000D02*
X101100000Y-86430000D01*
X154393400Y-84927200D02*
X120382800Y-84927200D01*
X155246500Y-79376300D02*
X155246500Y-84074100D01*
X120382800Y-84927200D02*
X118880000Y-86430000D01*
X166439200Y-68183600D02*
X155246500Y-79376300D01*
X174670000Y-69730000D02*
X173123600Y-68183600D01*
X173123600Y-68183600D02*
X166439200Y-68183600D01*
X155246500Y-84074100D02*
X154393400Y-84927200D01*
X169590000Y-69730000D02*
X168550100Y-68690100D01*
X137138200Y-85489200D02*
X135169700Y-87457700D01*
X135169700Y-87457700D02*
X117367700Y-87457700D01*
X155696800Y-79562900D02*
X155696800Y-84295000D01*
X166569600Y-68690100D02*
X155696800Y-79562900D01*
X154502600Y-85489200D02*
X137138200Y-85489200D01*
X155696800Y-84295000D02*
X154502600Y-85489200D01*
X168550100Y-68690100D02*
X166569600Y-68690100D01*
X117367700Y-87457700D02*
X116340000Y-86430000D01*
X128440800Y-108303300D02*
X128440800Y-102519500D01*
X153990000Y-124270000D02*
X153990000Y-120134700D01*
X132222000Y-112084500D02*
X128440800Y-108303300D01*
X112370700Y-86455300D02*
X112370700Y-77380700D01*
X153990000Y-120134700D02*
X145939800Y-112084500D01*
X116779300Y-90486100D02*
X116401500Y-90486100D01*
X145939800Y-112084500D02*
X132222000Y-112084500D01*
X116401500Y-90486100D02*
X112370700Y-86455300D01*
X117709400Y-91788100D02*
X117709400Y-91416200D01*
X128440800Y-102519500D02*
X117709400Y-91788100D01*
X112370700Y-77380700D02*
X111260000Y-76270000D01*
X117709400Y-91416200D02*
X116779300Y-90486100D01*
X108720000Y-76270000D02*
X108720000Y-68780000D01*
X108720000Y-68780000D02*
X107410000Y-67470000D01*
X96028600Y-64801400D02*
X94650000Y-66180000D01*
X104741400Y-64801400D02*
X96028600Y-64801400D01*
X107410000Y-67470000D02*
X104741400Y-64801400D01*
M02*
