M48
; DRILL file {KiCad (6.0.5)} date Tue Oct 25 10:43:55 2022
; FORMAT={-:-/ absolute / inch / decimal}
; #@! TF.CreationDate,2022-10-25T10:43:55-03:00
; #@! TF.GenerationSoftware,Kicad,Pcbnew,(6.0.5)
; #@! TF.FileFunction,Plated,1,2,PTH
FMAT,2
INCH
; #@! TA.AperFunction,Plated,PTH,ViaDrill
T1C0.0157
; #@! TA.AperFunction,Plated,PTH,ComponentDrill
T2C0.0315
; #@! TA.AperFunction,Plated,PTH,ComponentDrill
T3C0.0320
; #@! TA.AperFunction,Plated,PTH,ComponentDrill
T4C0.0394
; #@! TA.AperFunction,Plated,PTH,ComponentDrill
T5C0.0551
%
G90
G05
T1
X4.1956Y-3.8386
X4.2041Y-3.5022
X4.4268Y-3.8343
X4.6669Y-3.9184
X4.7068Y-2.9613
X4.7855Y-3.9766
X4.8226Y-4.3583
X4.9332Y-4.6199
X4.9757Y-4.0355
X5.0087Y-3.8893
X5.0382Y-3.8441
X5.1102Y-3.8155
X5.1493Y-4.5992
X5.1581Y-4.3236
X5.2211Y-4.6951
X5.2498Y-3.7629
X5.3117Y-3.7589
X5.4114Y-4.7297
X5.705Y-3.6432
X5.7873Y-3.9136
X5.8315Y-3.7834
X5.8452Y-4.0652
X5.9115Y-4.7456
X5.9396Y-4.7178
X6.0126Y-4.8328
X6.142Y-4.6106
X6.2002Y-4.3687
X6.2115Y-3.2018
X6.2438Y-4.2504
T2
X3.7264Y-2.6055
X3.8051Y-2.6055
X3.8839Y-2.6055
X4.0211Y-4.0909
X4.1195Y-4.0909
X6.4768Y-2.8453
X6.4768Y-2.9453
X6.4768Y-3.0453
X6.4768Y-3.1453
X6.4768Y-3.2453
X6.5768Y-2.7453
X6.5768Y-2.8453
X6.5768Y-2.9453
X6.5768Y-3.0453
X6.5768Y-3.1453
X6.5768Y-3.2453
X6.5768Y-3.3453
X6.6768Y-2.7453
X6.6768Y-2.8453
X6.6768Y-3.2453
X6.6768Y-3.3453
X6.7768Y-2.7453
X6.7768Y-2.8453
X6.7768Y-3.2453
X6.7768Y-3.3453
X6.8768Y-2.7453
X6.8768Y-2.8453
X6.8768Y-2.9453
X6.8768Y-3.0453
X6.8768Y-3.1453
X6.8768Y-3.2453
X6.8768Y-3.3453
X6.9768Y-2.8453
X6.9768Y-2.9453
X6.9768Y-3.0453
X6.9768Y-3.1453
X6.9768Y-3.2453
T3
X3.9803Y-3.1028
X3.9803Y-3.2028
X3.9803Y-3.3028
X3.9803Y-3.4028
X3.9803Y-3.5028
X3.9803Y-3.6028
X4.0803Y-3.0028
X4.0803Y-3.1028
X4.0803Y-3.2028
X4.0803Y-3.3028
X4.0803Y-3.4028
X4.0803Y-3.5028
X4.0803Y-3.6028
X4.0803Y-3.7028
X4.1803Y-3.0028
X4.1803Y-3.1028
X4.1803Y-3.6028
X4.1803Y-3.7028
X4.2803Y-3.0028
X4.2803Y-3.1028
X4.2803Y-3.6028
X4.2803Y-3.7028
X4.3803Y-3.0028
X4.3803Y-3.1028
X4.3803Y-3.6028
X4.3803Y-3.7028
X4.4803Y-3.0028
X4.4803Y-3.1028
X4.4803Y-3.6028
X4.4803Y-3.7028
X4.5803Y-3.0028
X4.5803Y-3.1028
X4.5803Y-3.2028
X4.5803Y-3.3028
X4.5803Y-3.4028
X4.5803Y-3.5028
X4.5803Y-3.6028
X4.5803Y-3.7028
X4.6803Y-3.1028
X4.6803Y-3.2028
X4.6803Y-3.3028
X4.6803Y-3.4028
X4.6803Y-3.5028
X4.6803Y-3.6028
T4
X3.5555Y-2.9717
X3.5555Y-3.0717
X3.5555Y-3.1717
X3.5555Y-3.2717
X3.5555Y-3.3717
X3.6555Y-2.9717
X3.6555Y-3.0717
X3.6555Y-3.1717
X3.6555Y-3.2717
X3.6555Y-3.3717
X5.1307Y-4.1224
X5.1307Y-4.2224
X5.2307Y-4.1224
X5.2307Y-4.2224
X5.3307Y-4.1224
X5.3307Y-4.2224
X5.4307Y-4.1224
X5.4307Y-4.2224
X5.5307Y-4.1224
X5.5307Y-4.2224
X5.6307Y-4.1224
X5.6307Y-4.2224
X5.7307Y-4.1224
X5.7307Y-4.2224
X5.8307Y-4.1224
X5.8307Y-4.2224
T5
X3.6417Y-2.6055
X3.9685Y-2.6055
T0
M30
